/* XPM */
static char *b27500b333d34e47b8c26240e6f678a7lD2FmQD3cKg83PlV[] = {
/* columns rows colors chars-per-pixel */
"64 64 243 2 ",
"   c #1B1A16",
".  c #1D1C19",
"X  c #191814",
"o  c #211D1C",
"O  c #251B1B",
"+  c #1D231D",
"@  c #1F301D",
"#  c #23231D",
"$  c #232B1D",
"%  c #29281F",
"&  c #30241F",
"*  c #2D0C25",
"=  c #2D0B2C",
"-  c #340D2C",
";  c #390D2D",
":  c #350728",
">  c #2E122A",
",  c #2A1A27",
"<  c #341225",
"1  c #34132C",
"2  c #3A132E",
"3  c #341A2D",
"4  c #3B192D",
"5  c #340533",
"6  c #3B0434",
"7  c #350D32",
"8  c #3B0D34",
"9  c #3C033A",
"0  c #3D0D3A",
"q  c #360938",
"w  c #351232",
"e  c #3B1234",
"r  c #351C32",
"t  c #3A1C34",
"y  c #3C123A",
"u  c #3A1A3A",
"i  c #2C1132",
"p  c #262622",
"a  c #2B2624",
"s  c #262A24",
"d  c #2A2925",
"f  c #27262A",
"g  c #2D2529",
"h  c #262B29",
"j  c #2C2A2A",
"k  c #322625",
"l  c #32252C",
"z  c #322A2C",
"x  c #342828",
"c  c #2D2A31",
"v  c #352432",
"b  c #3B2333",
"n  c #342A32",
"m  c #3A2B35",
"M  c #3C2439",
"N  c #3D2C3A",
"B  c #3C313B",
"V  c #393136",
"C  c #2E3328",
"Z  c #410535",
"A  c #420C35",
"S  c #44023D",
"D  c #430B3C",
"F  c #49073E",
"G  c #421235",
"H  c #42133B",
"J  c #45183A",
"K  c #54073D",
"L  c #422B35",
"P  c #42253B",
"I  c #422C3B",
"U  c #412437",
"Y  c #43323D",
"T  c #49333D",
"R  c #3F0E41",
"E  c #3E1440",
"W  c #3E3141",
"Q  c #3F2E40",
"!  c #420D40",
"~  c #4C0B42",
"^  c #440340",
"/  c #530647",
"(  c #421241",
")  c #4C1243",
"_  c #481447",
"`  c #56184C",
"'  c #5D0D53",
"]  c #5A1C54",
"[  c #551551",
"{  c #621757",
"}  c #640D59",
"|  c #452E41",
" . c #4B2E42",
".. c #463242",
"X. c #4A3142",
"o. c #4A3746",
"O. c #5D2154",
"+. c #533049",
"@. c #66255B",
"#. c #711C69",
"$. c #6A2963",
"%. c #742464",
"&. c #732B65",
"*. c #7C246B",
"=. c #752C6A",
"-. c #7A2B6B",
";. c #7C2A66",
":. c #763169",
">. c #7B326D",
",. c #7D2972",
"<. c #7F3D7B",
"1. c #6E3061",
"2. c #734176",
"3. c #81256D",
"4. c #802C6C",
"5. c #832373",
"6. c #882B77",
"7. c #912C7C",
"8. c #863579",
"9. c #93367F",
"0. c #9A2E87",
"q. c #8D3981",
"w. c #943482",
"e. c #9B3486",
"r. c #943D84",
"t. c #9C3986",
"y. c #9C358A",
"u. c #9C3A8B",
"i. c #97378A",
"p. c #A32C8D",
"a. c #A2358C",
"s. c #A33A8E",
"d. c #A03587",
"f. c #AA2C92",
"g. c #AA3493",
"h. c #A23A91",
"j. c #AD349B",
"k. c #AC3A9A",
"l. c #A93793",
"z. c #B53D9E",
"x. c #B93B9E",
"c. c #B13698",
"v. c #B63DA2",
"b. c #BB3DA3",
"n. c #B938A6",
"m. c #C13CA4",
"M. c #C43BAB",
"N. c #994288",
"B. c #924F91",
"V. c #AA4195",
"C. c #AE429A",
"Z. c #B4429D",
"A. c #B9429E",
"S. c #B54A9C",
"D. c #A75198",
"F. c #B541A1",
"G. c #B941A3",
"H. c #B848A5",
"J. c #B853A4",
"K. c #B971AD",
"L. c #986795",
"P. c #C342AC",
"I. c #CB45B3",
"U. c #CE49B8",
"Y. c #D549B7",
"T. c #C95AB7",
"R. c #CC57B5",
"E. c #C667B4",
"W. c #D761BE",
"Q. c #CA7EBF",
"!. c #DA4FC1",
"~. c #DD5CC5",
"^. c #DB54C6",
"/. c #EB55CD",
"(. c #E55ACC",
"). c #EB5ACE",
"_. c #E453C8",
"`. c #F254CF",
"'. c #F64ED7",
"]. c #E455D3",
"[. c #EC53D3",
"{. c #EC5BD4",
"}. c #ED5DDA",
"|. c #EA56D5",
" X c #F353D4",
".X c #F35BD5",
"XX c #F453DB",
"oX c #F953DB",
"OX c #F45CDA",
"+X c #FA5CDD",
"@X c #F954D7",
"#X c #EB4ED2",
"$X c #DB69C8",
"%X c #DA78C6",
"&X c #E36CCA",
"*X c #E665CA",
"=X c #EB63D4",
"-X c #EA6DD5",
";X c #ED62DB",
":X c #EA6CD9",
">X c #E468D4",
",X c #F363D5",
"<X c #F463DB",
"1X c #F768DB",
"2X c #E874D3",
"3X c #EC70CE",
"4X c #F95CE1",
"5X c #F666E1",
"6X c #F877E8",
"7X c #FF7FF0",
"8X c #B294B3",
"9X c #CC8EBF",
"0X c #DC89CE",
"qX c #D58BD4",
"wX c #E595DA",
"eX c #ED8CDD",
"rX c #DBB1D8",
"tX c #F88CE7",
"yX c #EA99E8",
"uX c #F993EF",
"iX c #F597EA",
"pX c #FC8DF4",
"aX c #FF88F7",
"sX c #FC93F4",
"dX c #FF94FB",
"fX c #FF9CFD",
"gX c #F797F3",
"hX c #ED8EE8",
"jX c #EAA5E9",
"kX c #F7A4ED",
"lX c #FFA2FC",
"zX c #FBA7F6",
"xX c #FFB5FF",
"cX c #FAB9F6",
"vX c #F0B5EA",
"bX c #E4B6DA",
"nX c #FEC3FF",
"mX c #FECDFE",
"MX c #FFD5FF",
"NX c #FAD8F8",
"BX c #FFE4FF",
"VX c #FFECFF",
"CX c #FFF0FF",
/* pixels */
"d d a d a k d d a a j a j a j d h d C k d % @ @ s s l l f g b o.+.m j j s d & k k 3 k j h s d d d d a j d a a d d d d d d d d d ",
"d d a d d d d k a j a j a j d d d d a k k $ @ @ C a l g c N I 4 4  .N g s # % k k k k j p s $ d d a z a C d d l d d d d d d s d ",
"a d k d a d d a d d d d d d d j j a d d $ d s h k l g , W ..* 2 1 < I V C s d s d d k d a d d d d d d d d d d d d d d d d d d d ",
"d a a a d k d d d d d d d d d d j d d d d d s d , x n B v > < 1 ; 2 * r ..c j d d d d d a d d d d d d d d d d d d d d d d d d d ",
"C a a d d d d d d d d d d d d s d d l k s s d l z b X.t * y y t e A e * r B n j j s s s d # O # d d d d d d d d s d d d d d d d ",
"k a a a d d d a % d s s d s d d s d k a s s j l I I 3 - G e q 5 6 A H H > u ..m j s s s $ o   O d d d d s s s d d d d d d d d d ",
"d C a a # o # % d d d s d d d d d d g j h j z M P 1 w y e 8 S ] ] Z D 0 y w = N m z h + + X X O d d d $ s % d d d d d s d d d d ",
"d a k d . X   $ s d d d $ s d d s s j d g l m P 1 e w w G 6 &.qXD.' S D 0 y ; 1 I m c s + +   o d s s d d d s d d s d s d d d d ",
"j a d p # . # d $ C d d a d d a h s s d z X.t - e 7 t y 6 <.kXeXR.s.{ F 0 y 7 2 ; t Y m f p p p d d d a d d C d d d d s d d d a ",
"a a d d % # $ d d % # d d d d k j j p k T 2 7 y - J 7 e B.cXxXT.*XP.i.%.S 8 H 8 ; e t P m g j d d d d j d p $ s $ d d d d d j a ",
"j a s d d a s d d d d a a j a j h g L L < G ; y ( 5 ( L.jXNXtX~.=X!.p.u.=.D D 0 D 7 7 w | Y , j a a j d d s d d d d s # s d a a ",
"j a a d d d d $ d d C k a l a g c V L 2 ; ; y E 5 @.K.vXMXmX*X|.[.[.P.y.N.8.) D ( y 0 7 w P T l g j j a a a d d d d $ # # d j a ",
"j j d d d % s d d d a l l g g m N r w 2 A 0 R 5 ,.qXjXmXBXiX). X[.+X!.f.a.u.8.] 9 ( y y 7 1 U P N l a g l d d d d d # + . p a a ",
"a a d d s s d d d a a l l l n N 3 w 2 e 0 9 R B.yXkXcXBXmX%X_.oX@X_.{.n.p.s.i.r.@.6 0 H w w w 3 N n l l g j d d d d d $ # a j j ",
"j a a d d d d d d a g a g m m r w ; t G 7 S D.yXyXxXmXxXzX(.|.XX@X X{.U.j.p.y.i.r.&.Z ; y w y 1 r m V l a j d d d d d d d j a a ",
"d d d a j d s d a a g l N N r < e 0 H 5 _ K.kXyXxXxXwXiX>X/.}.'.@X X X(.v.p.a.u.e.N.:.F q y 7 y > v N N z j d s s d d d d d d d ",
"$ d l k g c f d k k l I M > 1 u 7 H 5 $.qXjXyXxXfXiXsXtX_.XX#X4XXX X X.XI.f.s.i.u.w.i.q.` A A 2 1 1 w M N n g s j p j l a j s $ ",
"C $ a n c f h a k b T v > y e 8 A 6 8.qXyXyXxXgXuXpXaX5X[.XXXXXX'. XXX.X_.j.a.a.a.u.i.i.8.{ 6 A H - 7 w M B g j j j a g z p $ C ",
"s h C s d a d d x T U < 1 2 G A K N.kXkXjXnXzXuXpXpX7X}.|.XXXX X#X@X'. X{.M.p.s.e.s.h.i.u.q.$.F D 0 y e < 3 o.n g g h s d a d % ",
"s h s $ d d a V L < * < t ; Z K J.kXwXjXnXzXuXuXdXdX6X|.XXXX X`.'.+X'.XX}.^.f.g.g.0.a.h.i.N.r.%.~ D G ; - 1 3 I N f f j d a C k ",
"c d d k & x L L > w e 7 u q ] Q.kXwXvXMXxXhXsXsXsXpX,X[.XX@X X X X@X'.@X X).b.f.g.y.0.s.h.e.i.r.-./ Z A 2 2 2 1 P Y z d d % p l ",
"j a d a x L U 2 q q y y = 2.wXjXwXnXBXxXgXsXgXsXgX6X[.XXXX@X X X X`. X X.X`.Y.f.p.s.a.y.a.a.y.i.u.q.` 6 G e e 7 w P I x a d j a ",
"d d & z N r - y q i i = L.cXjXjXMXVXmXjXhXpXdXpXdX6X#XoXoX'.'.[. X X X[.@X`.`.x.a.e.e.s.e.a.h.y.h.t.9.] Z D A e e * 3 Y z a j a ",
"% a m I u w w y E i i 8XmXrXvXNXVXBXcXyXgXdXpXpXdX;X`.'.oX'.4X[. X@X[. X`..X`.I.g.d.e.t.y.a.s.e.a.i.N.N.@.F D 0 e e 1 3 I m g g ",
"$ d Y 3 i y 0 0 7 u 8XCXbXNXVXVXVXmXyXuXpXpXsXaXdX].{.'.oX'.oXXX XXXXXXX'.'. X/.g.y.u.d.e.s.e.y.y.y.u.u.9.&.~ A D 1 u > v N g l ",
"% z , r w y 0 7 ` bXCXVXVXVXVXCXVXvXiXuXpXpXsXfX7X]. X XXX'.XXXXXXXXXXXXXXoX X[.I.p.y.e.d.d.s.a.y.y.e.u.N.N.:.A 8 w w i , n x , ",
"d a N r e 7 0 A ` 9XcXMXBXVXVXVXMXyXeXuXfXgXhXlX6X].}.XX.X XXXXXoXXXXXXXoXoXoX X^.n.a.h.s.e.s.s.y.V.u.e.8.8.@.H 7 w w e r N a a ",
"k , B N > e ; y ; ` E.%X0XcXMXBXmXkXuXuXgXyXgXlX6X].].].|.[. X'.XXXXXXXXXX@XXXXX}.n.p.a.d.s.e.s.i.q.6.5.*.$.~ 0 y ; u = | N a d ",
"x k a B n r r 7 H S 6.$X&X$X&XtXlXfXsXdXgXhXfXlX6X>X;X>X}.]._._.[.#X/.).[./.#X#X}.!.g.y.u.d.7.7.6.*.*.*.=.] 8 G ; y w P N v p s ",
"k k d d W v > w q _ S V.-X*X,X(.*X2X6X6XpXfXfXfXfXfXfXdXaXaXaXaX6X6X6X1X1X1X<X<X}.=XH.0.r.4.;.3.*.*.-.:.O.A 0 7 7 w r ..g g s s ",
"a d d d l Y 1 G 7 0 ! / R.-X}.OX{.,X;X;X5X6X:X>X$X&X&X2X>X>X2X:X:X:X3X&X*X(.(.(.^.^.z.5.-.%.;.4.;.;.&.@.J 6 H 5 e 3 ..j j p C s ",
"d # d d a m T - e e 0 F } $X;X}.OXOX.XOXOX}.n.n.k.k.k.k.k.k.v.k.k.c.c.c.l.z.c.v.n.v.6.*.;.:.;.%.&.:.1.J A e e u i o.v d s d p s ",
"d d d d s j m I < e e D S ,.$X=X4XXX5X.X.X<X!.b.G.G.A.z.F.G.n.G.G.b.m.m.x.G.G.G.H.s.3.4.;.-.;.-.:.@.` 8 e e 1 > ..n g a d d d d ",
"d a s d s d l m U < ; G D S u.-X.X4X+X[.<X.X{.M.v.z.A.Z.Z.G.b.v.G.b.b.b.b.G.v.Z.Z.9.*.*.-.%.-.=.1.O.0 G e 1 < b N l a a j s d s ",
"d s d C j a j g N < G ; F F / H.1XOX;X;XOX{.<XY.n.z.A.x.b.b.z.F.z.A.b.b.b.v.F.F.k.5.;.-.-.&.-.=.@.F 6 e e 1 r I v g a j d d d d ",
"d d a a l a d j C Y 1 8 Z ~ ^ ' ~.,X{.<X}.;X.X_.m.b.G.G.b.b.v.F.z.G.z.v.G.v.G.F.e.*.,.,.;.-.:.&.H 8 H ; - 3 ..l a a s j d d s d ",
"d d d d k k d s s V v e G Z ( ^ 5.&X=X}.OXOX4X.XM.m.m.x.b.b.G.F.G.F.v.v.G.v.G.C.7.*.,.-.%.:.$.` 6 H y w < N N g d d d C d d a j ",
"d d a % a k d d h + B P ; 7 7 ( S u.2X;XOX4XOXOX!.M.n.b.v.G.F.z.G.G.k.F.v.G.G.a.5.*.%.=.&.:.] 0 0 H - w M N g j d d d s d d a j ",
"d d d d d a d d s j j ..t 1 e 7 0 / C.-X X+X+X+X/.M.n.m.v.v.v.G.v.G.z.G.z.G.Z.7.5.,.&.=.:.@.~ 8 e w w r ..l a d d $ s d d a a j ",
"& k d d d d a d d a j l B r w w y 9 ' T.<X@X+X4X,XI.n.b.v.G.z.v.b.b.z.H.z.Z.c.5.5.4.&.&.1.D 8 H w < t ..v l g d $ d d d d a j g ",
"d d d d d d d d k C % a B m 3 < 7 H 9 #.*X+X+X@X;X^.n.b.b.x.v.G.G.z.b.z.Z.H.7.5.5.4.-.1.F A J ; 1 3 M N g a d d d @ C @ d d a l ",
"& d d d d s d d % k k p f V L < e - ( S 0.,X X1X;X*XH.b.m.b.b.v.v.b.b.Z.Z.V.6.*.3.%.:.` H 7 7 e > N N g a z d $ d $ % d d d j a ",
"s d d d d s d d d & k d f z m J - e e 0 ^ J.=X.XOX;XU.x.x.m.b.v.v.b.m.A.Z.u.5.*.;.-.@.D 7 e e 1 b m n a a a s % d % s d d d d a ",
"s C d d d d d d k % % k l a l I 4 1 w H 9 ' T.=X).;X(.m.x.b.x.b.n.b.x.A.Z.6.-.=.-.&.F A e w 2 3 Y g a z a a d d d d s d d d a j ",
"s d j a d a d d # d d % a g g m I < 2 1 E 9 #.$X,X).).U.b.G.z.b.b.b.Z.Z.V.;.=.=.&.) 0 0 w 1 < I z a a a d a C % d d d d d d d d ",
"s d d j a a d d d s d C d a j g m P < e 7 E 5 q.3X.X,X!.n.G.x.b.m.x.F.S.w.%.=.=.` D 0 w w 1 M m a l a a d z a d d d d d d d d d ",
"d d d d j l d d C $ $ d d d f h g W J e 7 7 ! ^ z.=XOX[.n.n.x.A.x.x.F.V.6.;.=.@.0 y y 7 w b ..g d d d d d a a a a j a j d d d d ",
"d j j d a a d k d s s s a d s j g g X.2 y 7 0 ^ / T.,X<XU.n.x.x.m.x.Z.u.*.=.$.0 0 q y 1 r X.n a d d d d a d k a j a j j d d d d ",
"d d d d p a j d d d s d d d d s C % n ..7 y 7 0 6 { ~.=X_.m.m.b.x.A.z.6.=.$.D e e ; G < X.n p j d a d d p d d d d d s a d d d d ",
"d d d d d d a d d d d d d d d d % d h g  .- e y E 9 *.2X).I.c.b.b.z.g.,.:.` y 7 e 2 :  .l l j s d % d d d d j d d d d d d d d d ",
"d d d d d d d d d d d d d d d d d d s g W M ; A 0 R ^ N.3XY.n.v.x.A.w.=.] ( 8 e G - M I l a d s + . # a d d d s d d d d d s d d ",
"j d d d d d d d d d d d d d d d s d d C f Y 2 A y y ! / J.$Xv.b.x.A.,.$.R y 8 e < 3 ..f j d d d   X . p d d a d a d d d d a d d ",
"d d d d d d d d d a d d d d d d a d $ d p j | 1 0 0 0 D { E.R.k.A.t.&._ q e y ; e I j f j h d d #   # p d d d d d d d d d d d d ",
"d d d d d d d d d j s d d d d d d d k $ j d N N - G ; G 6 =.T.F.S.3.[ 0 w y - 1 P N f c s d d d d a d a d d d d d a s d d d d a ",
"p a j d p d d d d d d d d d d d C a d # s j f B I : G ; y 9 q.J.r.{ 9 y e e - M N f c h d d $ d d s d d d d d a d d d d a s d d ",
"d d s . . a d d d d d d a d d d d k # # + # s h T 4 < G 7 0 / q.=.F 9 0 e * b | l j s j d % C d d a d d p d d d d d d d d j d d ",
"d d p . . p d d d s a h d d d a k % o .     # d l Y 3 w 0 0 F ) _ D A G ; 3 T z j j j a d s d % p d d d d d j a d d d a s d d d ",
"d d d p p d d d d a d d d d d d d a o     . # d d z I i y 0 0 H 0 e 8 2 < I m j j d j s s d d d j d d d d d s d p j d d j d a d ",
"a d d d d d d d d d d d d d d d d a , . . + f d d d B m - 7 7 0 e w 2 1 b N g g k a d s s s a d d d d d d a d d d d d d d d d s ",
"d s d a s a d d d d d d d d a d s d a a , , p a k d g W r w 2 e 1 w 1 3 Y l g a k a d d s j d k a d d d d d d d d d d d d d d d ",
"a d d d d d d d d d d d d d d s s d l k l d d s d % a n W , w 1 1 w , V z s a a d k d s s d a a a d d d d a d d d a d d d d d d ",
"d d d d j d p d p d d d d d j d s d d k d d h s d d a a V m 3 1 1 1 N B d d d a k d d d h j a a d d d d d d d s d s d d a d d d ",
"p d d d d d d p j d d d d d d s s C d & d d s s s k k a k m l M P 3 B f s d d d d d s j d j s j d d d d d d d d d d d d d g d d ",
"d d d p p d d d d d d d a d d d d d % & C $ s s d C k & k l B ..X.I g h s % C d d d d s j d g h d d d d s j a d d d d d d s d d "
};
