/* XPM */
static char *_6b783b8b15c494d924bd9c80c5a05dewrffOIkfNVVVz9GF[] = {
/* columns rows colors chars-per-pixel */
"64 64 239 2 ",
"   c #BD7F6A",
".  c #B88867",
"X  c #BC8A73",
"o  c #B99678",
"O  c #C28F6A",
"+  c #C7946D",
"@  c #C28772",
"#  c #C99575",
"$  c #C99778",
"%  c #D29B7D",
"&  c #DCA76E",
"*  c #DCAB74",
"=  c #DDAC7C",
"-  c #D6A47B",
";  c #DAB37D",
":  c #CFA37E",
">  c #E4AA75",
",  c #E4A47A",
"<  c #E5AB7D",
"1  c #E6A878",
"2  c #E5B67E",
"3  c #E1AB6D",
"4  c #72CAB9",
"5  c #3ADEE7",
"6  c #31DFF8",
"7  c #2EE6ED",
"8  c #26EBEF",
"9  c #2CEAEE",
"0  c #3BE4E5",
"q  c #35E5ED",
"w  c #3BE3EC",
"e  c #33E9EC",
"r  c #36E5E6",
"t  c #2DE6F4",
"y  c #26EAF4",
"u  c #2DE8F6",
"i  c #2EE7FA",
"p  c #26E9FB",
"a  c #2CE9FA",
"s  c #27E7F2",
"d  c #32E6F5",
"f  c #3BE3F3",
"g  c #31E9F4",
"h  c #31E6FA",
"j  c #38E3FB",
"k  c #32E9FB",
"l  c #5DD4CD",
"z  c #4BDCDD",
"x  c #48DCDA",
"c  c #53DBDC",
"v  c #5AD8D9",
"b  c #6FCBCA",
"n  c #76CBC7",
"m  c #6CD4CE",
"M  c #64D8CE",
"N  c #73D5CD",
"B  c #7BD3CB",
"V  c #7ED5C5",
"C  c #65D4D5",
"Z  c #6DD6D2",
"A  c #6CD9D2",
"S  c #62DBDA",
"D  c #67D6D8",
"F  c #74D5D3",
"G  c #7BD6D1",
"H  c #74DBD5",
"J  c #77D9D9",
"K  c #48E1DE",
"L  c #55E2DA",
"P  c #6EE1D9",
"I  c #45DDE5",
"U  c #4BDCE3",
"Y  c #44DDEA",
"T  c #4ADDEA",
"R  c #51DBE3",
"E  c #5CDCE1",
"W  c #5CD9E4",
"Q  c #45DEF0",
"!  c #43E3E4",
"~  c #49E0E3",
"^  c #43E1ED",
"/  c #47E9E9",
"(  c #55E9ED",
")  c #44E6F2",
"_  c #4CE6F3",
"`  c #49E9F3",
"'  c #52E6F3",
"]  c #5DE9F3",
"[  c #54E8F8",
"{  c #6BEAF5",
"}  c #67EBF9",
"|  c #75EBF4",
" . c #77EAF7",
".. c #69EBEB",
"X. c #B69982",
"o. c #AB9B8B",
"O. c #8FB59F",
"+. c #A6A894",
"@. c #B4AB94",
"#. c #BBB899",
"$. c #ADA58C",
"%. c #94B7A6",
"&. c #AABCA7",
"*. c #B6BFA9",
"=. c #CC9D84",
"-. c #C19C81",
";. c #DC9F80",
":. c #CDA383",
">. c #C6AA8B",
",. c #D6A384",
"<. c #DDAD84",
"1. c #D3A58D",
"2. c #D8A58A",
"3. c #D9AA88",
"4. c #CFB28B",
"5. c #DCB38B",
"6. c #DCBD8C",
"7. c #D7B888",
"8. c #DBA993",
"9. c #CCB692",
"0. c #C4BC94",
"q. c #C8B798",
"w. c #DEB596",
"e. c #DDBC93",
"r. c #D5BC9C",
"t. c #D9B897",
"y. c #C9AF96",
"u. c #E4AD84",
"i. c #E9AB84",
"p. c #E5AE8E",
"a. c #EBAD8C",
"s. c #E8A681",
"d. c #E4B383",
"f. c #EBB283",
"g. c #E5B38C",
"h. c #E9B58C",
"j. c #E5BA8D",
"k. c #E6BB87",
"l. c #E4AC91",
"z. c #EBAE98",
"x. c #E5B593",
"c. c #EAB594",
"v. c #E5BA94",
"b. c #EAB994",
"n. c #E5B79D",
"m. c #EDB59A",
"M. c #E5BC9A",
"N. c #EABA9A",
"B. c #F1B097",
"V. c #C6BEA6",
"C. c #D4BAA3",
"Z. c #ECBAA0",
"A. c #E6BAA1",
"S. c #BAC29B",
"D. c #87C8B9",
"F. c #99CABB",
"G. c #92CEB6",
"H. c #A9C6A9",
"J. c #BAC5AA",
"K. c #A6C9B8",
"L. c #B9C9B4",
"P. c #A5D1BB",
"I. c #B8D5BA",
"U. c #DFC38E",
"Y. c #DEC294",
"T. c #DDC89C",
"R. c #E9C48A",
"E. c #E4C295",
"W. c #E6C39A",
"Q. c #EBC39B",
"!. c #E3CC99",
"~. c #ECCE9C",
"^. c #E8C793",
"/. c #F2C69A",
"(. c #E4D09A",
"). c #CCC2A5",
"_. c #CBC3A9",
"`. c #C3C9AB",
"'. c #C7CAA7",
"]. c #D9C6A6",
"[. c #D9D2AB",
"{. c #C6C8B4",
"}. c #C5D4B4",
"|. c #C5D4BC",
" X c #CBDAB8",
".X c #D6D6B5",
"XX c #D5CDAC",
"oX c #E3C4A3",
"OX c #EBC4A3",
"+X c #E5CAA3",
"@X c #EBCCA3",
"#X c #EACDAB",
"$X c #F4C6A3",
"%X c #F5CAA6",
"&X c #E5D3A5",
"*X c #ECD3A4",
"=X c #E5D3AC",
"-X c #ECD3AB",
";X c #ECD9AA",
":X c #EBDBA7",
">X c #F1D4AB",
",X c #F9D9AB",
"<X c #E5D7B2",
"1X c #E8D9B5",
"2X c #F1D5B1",
"3X c #CBE0B5",
"4X c #82CCC3",
"5X c #84CDC8",
"6X c #93CEC6",
"7X c #9ACEC1",
"8X c #89D4C8",
"9X c #9CD4C3",
"0X c #96D5C4",
"qX c #84DCD2",
"wX c #A5D5C6",
"eX c #B8D9C5",
"rX c #AAD5CC",
"tX c #9AE7D7",
"yX c #B3E8CF",
"uX c #8DEEF4",
"iX c #8DEFF8",
"pX c #8DF1F8",
"aX c #9CF0F7",
"sX c #9AF2FA",
"dX c #91ECED",
"fX c #A4EDF5",
"gX c #A7F3F9",
"hX c #BDF5FA",
"jX c #B9F8FD",
"kX c #C4DCC3",
"lX c #C4D5C2",
"zX c #C5E2C7",
"xX c #CCF4FA",
"cX c #C5F9FD",
"vX c #C5F4F8",
"bX c #DFF9FA",
"nX c #D6F7F9",
"mX c #E7F7F9",
"MX c #F1F6F9",
/* pixels */
"b.c.n.n.x.c.B.B.Z.w.M.x.M.C.rXD Y a u u u a u u a a d u g i u d d d u a g f j j g g g e ~ H  X:X,X2X(.U.: # X # =.l.m.m.m.b.m.m.",
"x.v.n.n.b.b.m.m.n.n.M.x.M.V.6XS ^ u u u u d u u d u a u u a u d g d u u g d j h k y g f ~ J  X-X>X>XT.7.,.# # # 2.l.m.m.c.v.b.c.",
"N.M.N.N.N.E.E.N.T.Y.E.W.A.V.5XR f d u a u u a i a u g i d u u d t u y a t t i a y y t q T J lXoX+XQ.E.7.- $ # % 3.p.c.c.c.g.h.c.",
"Q.N.$XOXQ.Q.Q.Q.!.E.Y.].lXeXF I d d u g a d u g d u u u u a u u t u y a y a a a y y u q T J eXC.t.e.<.; - % $ : <.k.c.c.g.d.g.g.",
"@X@X$XOX#X@X%X$X~.~.@X.XlXrXW Q d g u u a d a u u u a u u d a u y t a a u u a a y k u q Y W 6X&.#.>.:.,.1.3.3.u.g.h.c.h.d.u.<.<.",
"*X@X#X#X&X*X%X%X/.*X<X|.rXJ U j d u u i u u u d d a d u u a g a d a a t u u k a a k e r d U m 4 O.+.o =.3.8.x.c.h.h.h.h.d.< < = ",
"*X;X=X2X&X&X$X$X/.@X.XP.m U 5 d d u g u u d g a u g i u a u u d k d d u u u k h d f q q d q x l 4 O.X.=.8.z.z.m.b.b.g.g.u.u.u., ",
":X;X=X=X].!.W.Q.N.oXI.4Xz w g t u a i u u a a u u a u u g i u h k k h t u i i j h j 5 d d u r K l 4 @.=.l.B.m.Z.N.b.h.g.a.i.u.< ",
":X:X-X+XE.U.6.7.h.Y.F.M ^ t s t u u u a g i a d u a u u u u u d h h i p y y u k k g f f i a d w c 4X#.5.p.c.Z.n.b.b.b.h.c.f.g.u.",
"-X*X*XQ.v.d.; ; u.0.4Xc ^ u u u u d u u u u u u u g i u u a u h k i h i y y a a u g f d i i i f U B V.g.g.m.Z.m.b.b.B.m.c.c.g.k.",
"$X~./.R.k.u.* > <.#.n I w g u u u u u a u a u d d a u u g i i i i h i u y y t u y t g d i i k Q R n {.N.k.c.x.M.b.b.b.m.m.M.v.v.",
"N./.R.f.f.i.u.3.7.&.Z Y f g t t a d u g u d u a u u i g a u u u a p i u t u a u y t u u i i h f U B I.].e.M.x.v.j.v.b.m.m.N.M.v.",
"f.k.f.2 f.g.w.C.J.9XS w q k d k h u u a d u d a u u u h g i a u a t h d g d d d u a a a a a u d w v wX{.C.].n.x.U.Y.v.b.m.b.N.v.",
"< < < < f.w.V.&.F.F U r e u i k h u u u a a u g d a u u u u u u a a h h h g f d g y a a a a u t w K F 6XK._.A.m.6.e.v.b.h.c.b.m.",
"& * < f.g.).7Xb v I r 9 y a i i i u u u u u u a u a u u u u u u u d h a a u d q u y a i a u g e q 0 ~ S n K.C.B.c.g.x.x.g.k.x.c.",
"& & > d.v._.5Xc 0 g e u y a p a u i g a d u d a u d u u u u h u d a h d u u e d u u k a a u g d h d e ! v F.C.a.a.a.l.u.d.d.u.a.",
", , * 2 j.'.G T f g h i p u y y g u a g a a d u a d u d u a d a u u u u u u u d u u h i u u u g e d 9 r c D.q.= < < i.i.1 > 1 < ",
", , > 2 ^..XF Y g u k k u t u y u u u a d u u a u u u a a g u u d a d a g u u h u u u u u u u u d u t d c n ).* > 1 s.s.1 > 1 1 ",
"= = 2 j./. XZ w 9 y i h u t u a u a g g a u u g u u u u u a u a a u u g i u u u u g a u u g u h h k a f R V #.* 3 > 1 s.< 1 1 1 ",
"6.k.Y.T.[.yXS w 9 s a d d u d d a g a u d u u i i g a d u d u d u u i u u u u a a i d u a i a d h h i j ~ N H.7.; < i.i.g.i.2 < ",
"U.T.XX}.I.tXL r 9 t g d s u h k h i u u u i u u u u a a i g a d h u u u u d a d u a u u u d a h 6 h a u q S 9X`.t.w.g.g.g.g.d.< ",
"&X[.I.P.0XP ! e d d g u t u h k d g a d a g u u u i d u u a u u u u d u u a u u d u i g u a u h h h u t 9 K G 7XH.V.w.c.c.x.h.h.",
":X3X6Xm l z r i h d g g 9 y a h a a u a u u u h u g d a u u u u u u a u u g u u a u u u u d a u h d t 9 7 q U C 5XK.C.M.m.m.b.b.",
"1XzXqXc ~ w k i h k h g y 9 u a i g a d u u u u u a u u i g u u g i g a i u u i g u d a u a g d d d t g u d j T C 5X).N.N.m.Z.N.",
"1XzXA ~ / g i i i i i a t 9 u a u u u u u i g u d u u d u u u u i u i u g u d a h u u u u d u d g t u i i j j f z V `.W.v.n.Z.A.",
".XzXA ^ g u i i i i i p e t t u i u i g u u a u a u u a u i u h a u u u a u u u u u u u u a u d g t a p h h h f U N J.v.v.v.n.n.",
"[.eXA 0 e y a u a a i h g e u t u u a u u u u d u u u h a g u u d u g u u u u h a u a g u u u a u u p a h j j j U B `.j.g.h.c.x.",
"L.wXM 0 9 8 y u i i i u g g u u g a u d i g a a u u u u u d a u u a i u u u u u d u u u d a d a h i u u d h k h ^ Z J.r.5.g.g.g.",
"P.qXE r y 8 9 u k i h d i u u t i u a u u u u u d a g a u u d u i g a d h u u u i u u i u u u i i k d d d a p a d v F.0.9.4.u.< ",
"N A T f y y 9 u i k d d h i u u a u d u i g i g u u u i a d u u u u u u u u d u g a u u u u u i i i d e u i p p g I B F.&.y.<.> ",
"x 5 f 6 k u u 9 i i k j h i a t u u u u a u a a d a d u u h u u u a a u a u a u u u u i u i u i p a e e i i h k g w c A D.&.4.> ",
"9 7 j h j d u y p i h j h i u u d d d a d u d d d a k a u u u u u d d a g a d u d a u g u u u i a u d d i i j h g 7 r U C D.0.= ",
"t u i h k k k k i h u d 6 d t t d d d g d a d h k k h h h g t t u u g a u a u u g i u u u i u h a a d u i a i i s t d ^ v 4X_.5.",
"t u u d h k a k h u u g u d t t d d u g d d d h h h h a u g g t u u i u u d a d a u u u a g u a i u i a u u a a y u d ^ U B {.t.",
"u u i i i d k g u u t s u p s p a p t t u d d g i i a u u d d u u g i u u u u u a d i g u a u d u h a a u u a u 9 9 g f U G {.r.",
"d u a a a t y y t t t s s p p p p y s u t t d t u u t a u u d d d a u u g a d u u u u u u d u u i i i u u u i u y u g f U B |.+X",
"k i i i y y y 9 u u u y s u p p p s u u g g g u s u y u t a h h h u a u i u d a u a u u u u u u u u u u a u a u u s d d I G |.#X",
"k k h p a 9 y g y e g e d j d f d d f d g g e s s y y y a i h h h u d u a u u u d a d a u h u a u u u u u u i u y t g f I F lX=X",
"h h i a y y u y s e g / Y _ ' ' ' _ ) ^ f q e u g y y y a i h h g a i u u u g i a g u u u u u d u t u u t d i u u y u f I H kX<X",
"i i i u u u y u t k f _ ] {  . . .| ..} ' ) g g y y y g u i h h d u g u a d a u u a d a d u u a u u u u g g h u t s u d I H zX1X",
"i u g a u u u u t f ) ]  .uXfXfXfXfXiX .] Q f t t u p u i d d d a u d a a d u g i u u a i g a d u t u u g a d u s u u f I H eX1X",
"t u a i h h u t t f _ { iXgXvXxXxXvXgXiX{ ' j 6 t i i d i d u u u u u u u d u a u u u d u u u u u u s u u d d u y u u d ~ H kX1X",
"t a u g h i i i t f ' | aXvXnXmXmXnXhXaX| ' 5 t i i d h d u u u u u h u u a g u g a u a u u a u u u u u u u a u t y g f I J lX<X",
"y y u g d i i 6 d w '  .gXcXmXMXMXmXxXaX .' f d i i a i i u u u d u u u u u i u i u u d u i g d e u u u u g a a s u g f ~ N L.C.",
"t u u h d h i t d f ' | sXcXbXMXmXbXcXgX .' Q 6 a a a d d u u a a u u u d a u a u u u u u g u a u u u u u u u u s t d f U n &.>.",
"a i u d h t t t 9 f ' { sXjXnXbXmXxXjXsX| ' f 7 t t u u a i i i a u a u u u d a u u i g u i u u t u u u u u a t s u h f U b +.o ",
"a a u u u u u u u e ` { pXgXvXvXcXcXgXiX{ ' f t s u t u u i i i h g u d d u u u d u d a a a u i u a u u u a a u u t d f z b +.X ",
"d d i u t s u s u e ` ] ..dXfXfXgXaXiX| } ) f t s y y t u h k i i u u a a u g i a u a u u d u g a u u u u a a y t u 6 Y c b +.. ",
"q q g k k y t 7 u u g ` ( ..|  .{ } } [ _ ) d d t u u s i a h u a u a u i g u u i g u u u a u i a d d d a a a a a s w I S D.o.X ",
"x x 5 h y t g g s u u f / / ' [ [ ' _ ) j j d d u u i p u a i i g u d u a u u u a u u u u g u i d a d d d a u g k q z M 4 %.o.@ ",
"V F U 6 g t d d d d d d e e k f f 5 f w f d d g u u u i i i h i i u g i u u u h u u u h h u u u i i k h a u g g q c N D.%.+.X   ",
"H.0XS ^ d i u i d d d d 7 7 t d d 5 q q d d g u u u a a u i i d u u u u a d u u a d u u u u u u u i k k d u e e 5 S 9X*.@.X.    ",
"r.J.B ~ ) i a a t u h d s s j d d 7 d d t u u u u u i i d i h h u g a u u u h u u i u u i u u u y s a i a a t r U J L.y.=.X . . ",
"= #.4 l f i a a y a a d t 7 6 h u u t s t s u u u u i u d d i i i u d u u a u u u g d a g u u u y y a a a a y q z G *.1.=.@ . O ",
"* #.4 L f p i p u y a y 9 u t u y y p y u u u u u d h h a d u u u a a u u d u i u u u u a u u u u u g d a a p d U B {.8.=.# O O ",
"* ).G.L I u u u u g y a y u s t a t t u u u u h h u i h h u u u u d u u u a g u u i g a d u a u a y g g i p a h R 5X{.w.1.,.+ + ",
"* U.G.M K r e e r e i a a a t t u u a u u d i d h d h d u u i u h u a g a a u d a u u u u h u i i i d d k d f ^ v 8X{.OXw.8.,.- ",
"- 7.%.4 M L K r e r i i p a u u a a a i g h d d d d u i u u u u u u u a d u u a d u d a u u u i i k d d f Y R S B wXXXOXA.w.z.a.",
"& 3.S.G.P.qXE ~ ^ f j h u u a a i i a h h d d h h d h g u i i a u d a d a u u g u u u u u u g u u a p a f R G F.K.}.&X@X+XW.m.m.",
", <.U.'.}.yXJ R ) f j k g y t a i d h h d h i d h u d u u u a i u u u u d u u i a g i u u u i u y y u k Q Z P.J.XX[.*X*X@XOXQ.Q.",
"= = ; U.].|.qXc ) j g t 9 9 d d a g h d u g g g d u u u a a d i u u u u u i u u u a g u g u u t 9 9 7 ^ D 5XV.6.^.~.>X-X#X&X@X@X",
"E.d.2 7.W..X6XA E ~ q t g d a d g g g a d u g u u t g u d a a k u u h a a g u u d a i u a u u d e r K v n F.9.d.R.^.>X#X&X=X:X&X",
"*X~./.j.E.&XI.0XqXP ^ k d h g u u y u u u u u 9 t t u u a d d d u u u d u u u i u u u u a g u d j I H 0XF.*.7.R.R.(.-X2X-X;X=X=X",
"*X,X,XN.!.[.3XyXtXdX' f h h u p u u u u t t u u u u t u d d a h a d u a d u a g u i g a d a h d f R tXeXL._.; ; U.(.-X2X2X;X;X<X"
};
