/* XPM */
static char *def418121d924d04bfb9f3f411aa249ebQldK3IAr8B9IOKl[] = {
/* columns rows colors chars-per-pixel */
"64 64 39 1 ",
"  c None",
". c #26E7F7",
"X c #27E7F7",
"o c #28E7F7",
"O c #29E7F7",
"+ c #2AE7F7",
"@ c #2BE7F7",
"# c #2CE7F7",
"$ c #2DE7F7",
"% c #2DE8F7",
"& c #2EE8F6",
"* c #2FE8F6",
"= c #2EE8F7",
"- c #31E8F6",
"; c #37E8F6",
": c #3DE8F6",
"> c #3EE8F6",
", c #44E8F6",
"< c #46E9F6",
"1 c #47E9F6",
"2 c #49E9F6",
"3 c #59E9F5",
"4 c #5AE9F5",
"5 c #69EAF5",
"6 c #6AEAF5",
"7 c #73EAF4",
"8 c #77EBF4",
"9 c #79EBF4",
"0 c #7AEBF4",
"q c #95ECF3",
"w c #96ECF3",
"e c #A6EDF3",
"r c #ADEDF2",
"t c #BCEDF2",
"y c #D2EEF1",
"u c #DCEFF1",
"i c #EBEFF1",
"p c #F7F0F0",
"a c #FFF1F0",
/* pixels */
"                    ====================                        ",
"                    ====================                        ",
"                    ====================                        ",
"                    ====================                        ",
"                    ====================                        ",
"                    ====================                        ",
"                    ====================                        ",
"                   ======================                       ",
"                 ==========================                     ",
"                ============================                    ",
"                ============================                    ",
"                ============================                    ",
"                ============================                    ",
"                ============================                    ",
"                ============================                    ",
"               ==============================                   ",
"             ==================================                 ",
"            ====================================                ",
"            ====================================                ",
"            ====================================                ",
"            ====================================                ",
"            ====================================                ",
"            ====================================                ",
"           ======================================               ",
"         ==========================================             ",
"        ============================================            ",
"        ============================================            ",
"        ============================================            ",
"        ============================================            ",
"        ============================================            ",
"        ============================================            ",
"       ==============================================           ",
"     ==================================================         ",
"    ====================================================        ",
"    =======#=@@=####=@==================================        ",
"    ===**=@@@@@X+++++=@**===============================        ",
"    ===**@=@XXXXXXX+@==**===============================        ",
"    ====@=***********-=@=@==============================        ",
"    ==#==**;,,111,,>;-*###==============================        ",
"    ==#@@*;,46788764,;*+#===============================        ",
"    ==#+@*;48werrew84,*X+#==============================        ",
"    ==#+X*,6wtyuuytw6,*X+#==============================        ",
"    ==#+X*17eyippiye7,*X+#==============================        ",
"    ==#+@-18rupaapur81*X+#==============================        ",
"    ==#+X*,8rupaapur81-XX#==============================        ",
"    ==#+X*17eyippiye71*@+#==============================        ",
"    ==#+X*,6wtyuuytw6,*X+#==============================        ",
"     =#+@*>48werrew84;*@++=============================         ",
"       ++=;,467897641;*++#-==========================           ",
"        #=-;>,1111,>;-*###==========================            ",
"        #===**--====**==============================            ",
"        ==##XXXXXXX++#=*============================            ",
"        *=##@+X+++++##==*===========================            ",
"        ==##=+########==============================            ",
"        ============================================            ",
"         ==========================================             ",
"           ======================================               ",
"            ====================================                ",
"            ====================================                ",
"             ==================================                 ",
"               ==============================                   ",
"                ============================                    ",
"                ============================                    ",
"                ============================                    "
};
