/* XPM */
static char *_269bed73018436fe3d565f1b7cddce4BziY5jBoPJyCjTG3[] = {
/* columns rows colors chars-per-pixel */
"64 64 175 2 ",
"   c #3E2333",
".  c #562E2F",
"X  c #5A302F",
"o  c #432633",
"O  c #492734",
"+  c #472833",
"@  c #4B2A34",
"#  c #522D35",
"$  c #592E37",
"%  c #563135",
"&  c #5D3236",
"*  c #5B3832",
"=  c #5D3238",
"-  c #613437",
";  c #613B33",
":  c #6A3D34",
">  c #653638",
",  c #693739",
"<  c #6D3A3A",
"1  c #793F35",
"2  c #733D3B",
"3  c #754437",
"4  c #7D4333",
"5  c #714832",
"6  c #7A4B36",
"7  c #75403B",
"8  c #7B443B",
"9  c #7F493A",
"0  c #803F2A",
"q  c #BB3D2C",
"w  c #82412B",
"e  c #9E4F2E",
"r  c #90462C",
"t  c #854437",
"y  c #8C4733",
"u  c #854738",
"i  c #854C3A",
"p  c #884D3A",
"a  c #894934",
"s  c #9D4F32",
"d  c #835632",
"f  c #8A5833",
"g  c #84513F",
"h  c #915C34",
"j  c #995F35",
"k  c #BD452F",
"l  c #A9532B",
"z  c #B35626",
"x  c #BB5A29",
"c  c #BF4830",
"v  c #A75331",
"b  c #A95330",
"n  c #A75934",
"m  c #A85D3A",
"M  c #BF5F31",
"N  c #956232",
"B  c #996036",
"V  c #A26437",
"C  c #A66638",
"Z  c #A9653A",
"A  c #AC6E37",
"S  c #B27634",
"D  c #B67B33",
"F  c #BC7C33",
"G  c #C85E28",
"H  c #C75530",
"J  c #C75B35",
"K  c #C85E37",
"L  c #CF6427",
"P  c #CD6229",
"I  c #DE6B24",
"U  c #D66629",
"Y  c #CC6D30",
"T  c #CA6C3C",
"R  c #D56E32",
"E  c #C37F34",
"W  c #C7713E",
"Q  c #CF713C",
"!  c #CD7C3D",
"~  c #D67134",
"^  c #D67738",
"/  c #DC763E",
"(  c #D67D3D",
")  c #DF783E",
"_  c #E46E25",
"`  c #E96D23",
"'  c #E26C2B",
"]  c #ED7326",
"[  c #EA702C",
"{  c #E57B2C",
"}  c #F27626",
"|  c #F77D24",
" . c #E27135",
".. c #885741",
"X. c #966945",
"o. c #A27647",
"O. c #A97241",
"+. c #A87946",
"@. c #A07648",
"#. c #DC7D40",
"$. c #E07F41",
"%. c #C58235",
"&. c #CA8437",
"*. c #CF823A",
"=. c #D08C32",
"-. c #D68939",
";. c #DE9536",
":. c #F78026",
">. c #FF8F27",
",. c #F7852A",
"<. c #FF8F28",
"1. c #F8852A",
"2. c #FF9028",
"3. c #FF9F2D",
"4. c #E68A33",
"5. c #E38A3F",
"6. c #E98E3F",
"7. c #E59C34",
"8. c #EA9E35",
"9. c #E7973D",
"0. c #E9953A",
"q. c #E6983E",
"w. c #EE993A",
"e. c #F49F34",
"r. c #FC9F36",
"t. c #F39D3B",
"y. c #ECA134",
"u. c #F5A335",
"i. c #FCA632",
"p. c #FDAD34",
"a. c #F4A639",
"s. c #FCA339",
"d. c #FFAD38",
"f. c #FFB135",
"g. c #FDB53A",
"h. c #FFBC3D",
"j. c #FFC03F",
"k. c #AF884C",
"l. c #D68342",
"z. c #D09745",
"x. c #DC9347",
"c. c #C29F51",
"v. c #E18041",
"b. c #CEA44E",
"n. c #DABB57",
"m. c #E7A246",
"M. c #E7AD4E",
"N. c #EBB148",
"B. c #F4B242",
"V. c #FFB740",
"C. c #FEBC40",
"Z. c #F5BF4C",
"A. c #FCBE49",
"S. c #E7AF50",
"D. c #E7B151",
"F. c #EAB853",
"G. c #FEC344",
"H. c #FFC946",
"J. c #FEC44A",
"K. c #FECD4C",
"L. c #FFD14D",
"P. c #E9C254",
"I. c #F0C757",
"U. c #F0C758",
"Y. c #F5CB55",
"T. c #FDD452",
"R. c #FED954",
"E. c #F5D35A",
"W. c #FCD758",
"Q. c #FCDB5A",
"!. c #FDE15C",
"~. c #FFE85D",
"^. c #FDE760",
"/. c #FEEB63",
"(. c #FFF164",
/* pixels */
"f.p.u.4.R H c k k c c c c c c c c c c c c c c c c c c c c c c c c c c c c c c c c c c c c c c c c c c c c c c c c c c c c c c c ",
"f.p.e.4.R H c k k c c c c c c c c c c c c c c c c c c c c c c c c c c c c c c c c c c c c c c c c c c c c c c c c c c c c c c c ",
"f.p.e.4.R H c k k k c c c c c c c c c c c c c c c c c c c c c c c c c c c c c c c c c c c c c c c c c c c c c c c c c c c c c c ",
"f.i.e.4.R H c k k c c c c c c c c c c c c c c c c c c c c c c c c c c c c c c c c c c c c c c c c c c c c c c c c c c c c c c c ",
"f.p.u.4.R H c k k k c c c c c c c c c c c c c c c c c c c c c c c c c c c c c c c c c c c c c c c c c c c c c c c c c c c c c c ",
"f.p.u.4.R H c q k c c c c c c c c c c c c c c c c c c c c c c c c c c c c c c c c c c c c c c c c c c c c c c c c c c c c c c c ",
"h.g.u.4.~ H c k k c c c c c c c c c c c c c c c c c c c c c c c c c c c c c c c c c c c c c c c c c c c c c c c c c c c c c c c ",
"H.G.B.q.^ G c k k k c c c c c c c c c c c c c c c c c c c c c c c c c c c c c c c c c c c c c c c c c c c c c c c c c c c c c c ",
"W.T.Z.x.#.M k k k c c c c c c c c c c c c c c c c c c c c c c c c c c c c c c c c c c c c c c c c c c c c c c c c c c c c c c c ",
"^.!.Y.M.#.K c q k k c c c c c c c c c c c c c c c c c c c c c c c c c c c c c c c c c c c c c c c c c c c c c c c c c c c c c c ",
"/.^.E.D.l.K k k q c k k k k k k k c c k k c k c k k k k c k k k c k c k k c k k k c c k k c k k c c c k k c k c k c k c k c k c ",
"(.^.E.D.l.M k q q k k k k k k k k k k k k k k k c k k k k k k k k k k k k k k k k k k k k k k k k k k k k k k k k k k k k k k k ",
"(./.E.D.#.M q q q k q k k q k k k k k k k k k k k k k k k k k k k k k k k k k k k k k k k k k k k k k k k k k k k k k k k k k k ",
"(.^.E.D.#.M k k k c c c H k c c c k k c k c k c c c c c c c c c c c c c k k c c c c c c c k c c k c c k c c k k k c k c c c c k ",
"(.^.E.F.x.#.K J H K J J J H H H H H H H H H H H H H H H H H H H H H H H H H H H H H H H H H H H H H H H H H H H H H H H H H H H ",
"(./.Q.I.M.x.l.l.l.l.l.( ^ R R R R R R R R R R R R R R R R R R R R R R R R R R R Y R R R R R R R R R R R R R R R R R R R R R R R ",
"/./.^.E.U.F.D.D.D.D.M.m.9.0.4.4.4.4.4.4.4.4.4.4.4.4.4.4.4.4.4.4.4.4.4.4.4.4.4.4.4.4.4.4.4.4.4.4.4.4.4.4.4.4.4.4.4.4.4.4.4.4.4.4.",
"^.^.^.Q.Q.E.E.E.E.E.Y.Z.B.u.e.e.e.e.e.e.e.e.e.e.e.u.e.e.e.e.e.e.e.e.e.u.e.e.e.u.e.e.e.e.e.e.u.e.8.u.e.e.e.u.e.e.e.e.e.e.e.e.e.e.",
"Q.W.W.W.W.E.Q.Q.W.W.T.J.V.p.i.i.3.i.i.i.i.i.i.i.i.i.i.i.i.i.i.i.i.i.i.i.i.i.i.i.i.i.i.i.i.i.i.i.i.i.i.i.i.i.i.i.i.i.i.i.i.i.i.i.",
"A.A.J.A.J.J.J.J.J.J.A.h.d.i.3.3.3.3.3.3.3.3.3.3.3.3.3.3.3.3.3.3.3.3.3.3.3.3.3.3.3.3.3.3.3.3.3.3.3.3.3.3.3.3.3.3.3.3.3.3.3.3.3.3.",
"r.r.s.s.s.s.s.s.s.s.s.r.3.2.>.>.<.<.2.2.>.<.<.2.2.2.2.2.2.2.2.2.>.>.>.2.>.>.2.2.>.>.2.2.>.>.2.2.<.2.2.2.2.2.2.2.2.2.2.2.2.2.2.2.",
",.,.,.,.,.1.,.,.,.,.,.:.| | | | | | | | | | | | | | | | | | | | | | | | | | | | | | | | | | | | | | | | | | | | | | | | | | | | ",
"] } } } } } ] ] _ _ I I I I I I I I I I I I I I I I I I I I I I I I I I I I I I I I I I I I I I I I I I I I I I I I I I I I I I ",
"[ [ [ [ [ [ ' U G x z z z z z z z z z z z z z z z z z z z z z z z z z z z z z z z z z z z z z z z z z z z z z z z z z z z z z z ",
" .R  . . . .Q J b r 0 0 0 w w w 4 w 0 w w w w w w w w w w w w w 4 w w w w w w w w w w w w w w w w w w w w w w w w w w w w w w w ",
"#.#./ $. .#.T m a : X . . % X X X X X X X % X X X X X X X X X X X X X X X X X X X % X X X X X * X X X % X X X X X % X X X X X X ",
" .$.$.$.v.v.#.m 3 % o o + + @ @ @ @ + + @ @ + + + o @ + + @ @ @ + + + @ @ @ + + @ + @ O @ @ @ @ @ @ @ @ @ + + + + o + o + @ @ @ ",
"v.5.5.v.v.l.F C 6 .     o @ @ @ @ @ @ # @ @ @ @       o @ @ @ @ @ # @ # @ # @ @ O O O O @ @ @ @ @ @ @ # @ @ @ + o     o + @ @ @ ",
"t.w.w.t.t.w.-.A 6 % o o @ % = = - & & & = = % @ + o o + # % & = = & = & & & & $ % % $ $ & & & & & & = = = = & @ + o o @ # % = = ",
"a.a.a.d.d.u.;.S d * @ @ $ > < < < < < 2 < , > & @ + + @ & > < < < < , , < < , , , , < < , , , < < < < , < < > & @ + + @ & - < < ",
"f.p.p.f.f.p.7.D d X @ @ = , 2 2 2 2 2 2 2 2 < - # @ + # & , 2 2 7 2 2 2 < 7 7 8 9 g g g 8 7 2 2 2 2 2 2 2 2 < & # @ + # - < 2 2 ",
"f.p.f.f.f.f.7.D d * + @ = , 2 7 2 2 2 2 2 2 < - # @ @ # & < 2 7 7 2 2 2 2 7 8 ..X.@.@.X...8 2 2 2 2 2 7 7 2 < & # + @ # - < 2 7 ",
"p.f.f.f.f.p.7.D d * @ O = < 2 2 8 2 2 2 1 2 < - # @ + # - 2 2 2 2 2 2 < < 2 i X.k.c.c.k.X...2 2 < 2 2 2 2 2 < - # O + # & < 2 2 ",
"p.p.p.f.g.p.7.D d & @ @ = < 2 2 2 2 2 2 2 2 , - # + + # & < 2 2 2 2 2 < < 2 ..o.c.n.n.c.@.i 2 < < 2 2 2 2 2 < - # O + # - < 2 2 ",
"p.f.p.f.f.p.7.F f * @ # = < 2 2 2 2 2 2 2 2 < $ . @ + # - , 2 2 2 7 2 2 < < ..O.b.P.P.b.o...2 < 2 2 2 2 2 2 < > $ @ # $ - < 2 7 ",
"p.p.p.f.f.p.7.F f 5 = $ > < 2 2 2 2 2 2 2 2 < - # + O # - , 2 2 2 2 2 < < < ..O.z.N.N.z.O.i 2 < 2 2 2 2 2 2 < , & $ & & , 2 2 2 ",
"p.f.p.f.f.p.7.%.B 3 > > , < 2 2 2 2 2 2 2 2 < - # + + # & < 2 2 2 2 2 < < 2 u Z *.0.0.*.Z i 2 < < 2 2 2 2 2 2 , < > - < < 2 2 2 ",
"p.p.p.f.f.p.8.%.V 9 < , , 2 2 2 2 2 7 2 2 2 < * # + + # & < 2 2 2 2 2 < < 2 t n Y { { Y n u 2 < < 2 2 2 2 2 2 < < < < < < 2 2 2 ",
"f.p.p.f.f.p.8.&.C i 2 < < 2 2 2 2 2 2 7 2 2 < & # + + % - < 2 2 7 7 2 < 2 2 t b G ` _ U b u 2 < < 2 2 2 2 2 2 2 < < < < < 2 2 2 ",
"p.p.p.p.f.d.8.&.C p 2 2 < 2 2 2 2 2 2 2 2 2 < - @ + + . & < 2 2 7 2 2 2 < 2 t b P _ ` G b t 2 2 2 2 2 2 2 < < < < - > : < 2 < 2 ",
"p.p.p.f.f.p.8.&.C p 2 2 2 2 2 2 2 2 2 7 2 2 < > # o + . & < 2 2 2 2 2 2 < 2 u v U ` ` U b t 2 < 2 2 2 2 2 2 < , & % % - , < 2 2 ",
"p.p.p.p.f.p.8.&.C i 2 < < 2 2 2 2 2 2 2 7 2 , = # O + # & < 2 2 2 2 2 2 < 2 t v J _ _ P v t 2 < < 2 2 2 2 2 < > $ @ # % - < 2 2 ",
"f.d.p.f.f.p.8.%.V 9 < > , 2 2 2 2 2 2 2 2 2 < - # # # # - < 2 2 2 2 2 < 2 2 t s x L P x s t 2 < 2 2 2 2 2 2 , - # + + # - < 2 2 ",
"p.p.f.f.f.p.7.%.B 7 > > , < 2 2 2 2 2 2 2 2 < , - $ $ * : < 2 2 2 2 2 2 2 2 1 y e l l e y 1 2 2 < 2 2 2 2 2 , - # + + # - < 2 7 ",
"p.p.p.f.f.p.7.F f 5 $ $ > < 2 2 2 2 2 2 2 2 2 , < - > < < < 2 2 2 2 2 2 2 2 2 2 4 w w t 1 1 2 2 2 2 2 2 2 2 < & # + + # * , 2 1 ",
"d.p.p.f.f.p.7.F f ; @ # = < 2 2 2 2 2 2 2 2 2 2 < < < < 2 2 2 2 2 2 2 2 2 2 2 , - * X - > < 2 2 2 2 2 2 2 2 < * # + + # - , 2 2 ",
"f.p.f.f.f.p.7.D d * @ @ = , 2 2 7 2 2 2 2 2 2 < < < : < < 2 2 2 2 2 2 2 2 2 < = # @ O # - , 2 2 2 2 2 2 2 2 < & # + @ # - < 2 2 ",
"p.p.p.f.f.p.7.D d * @ @ = , 2 2 2 2 2 2 2 2 2 , , > > < < < 2 2 2 2 2 2 2 2 < = @ o + @ * < 2 2 2 2 2 2 2 2 < & # @ + $ - < 2 2 ",
"p.p.p.f.f.p.7.D 6 * + @ % < 2 2 2 2 2 2 2 2 < > = = = = , < 2 2 2 2 2 2 7 2 < & @ + + @ = , 2 2 2 2 2 2 2 2 < & $ + @ $ & < 2 2 ",
"d.f.p.f.f.p.7.D d * @ @ * , 2 2 2 2 2 2 2 2 , > $ @ @ $ - < 2 2 2 2 2 2 2 2 , = # + + # - < 2 2 7 2 2 2 2 2 < & # + O # & < 2 2 ",
"p.p.d.f.f.p.;.D d * + @ $ , 2 2 2 2 2 2 2 2 , > # + + # & < 2 2 2 2 2 2 2 , > & @ @ O # = < 2 2 2 2 2 2 2 2 , & # + + # - , 2 2 ",
"g.p.p.f.f.p.7.D d * o + $ , < 2 2 < < 2 2 < , $ @ o o @ $ , < 2 2 < < , > = $ @ O o O @ $ , < 2 2 < 2 2 2 < , = @ + o @ $ > 2 2 ",
"p.p.p.f.f.p.7.D 6 % o O $ > < < < < < 2 < < > & O o o O $ > < 2 2 < , > $ @ @ O       @ = > < 2 < < < < < < > & @ o o O $ > < 2 ",
"p.p.p.f.f.p.7.D f * O @ $ < 2 2 7 2 2 2 2 2 , & # @ @ # & < 2 2 2 2 < > = # @ o o o + $ - < 2 2 2 2 2 2 2 2 , > # O O # > < 2 2 ",
"p.p.p.p.f.p.7.F N 5 : > 5 9 p p p i p p p i 9 3 : ; ; : 3 9 u p p i 8 3 5 * * * * & * 5 8 9 i i ..i i i p i i 7 : ; ; 5 3 u i p ",
"p.p.p.p.p.p.y.=.D N f f h n V Z C C V C Z C V B f f f h B V C C Z C V B f d d d d f f f B B C C m C C C Z Z B j f f f f B V C C ",
"i.p.p.p.p.p.y.7.=.F D F E F &.&.&.&.&.&.&.&.%.%.F F F F E %.&.&.&.&.%.%.F F D D D D D F %.&.&.&.&.&.&.&.&.&.%.%.E F F F %.%.&.&.",
"f.p.p.f.p.f.p.a.y.y.7.7.y.y.y.y.8.8.8.8.8.8.8.7.7.7.7.7.7.8.8.8.y.8.y.7.7.7.7.7.7.7.7.7.7.y.y.7.8.8.8.7.y.7.y.7.7.7.7.7.7.8.8.y.",
"g.g.g.g.g.g.g.g.g.g.g.g.g.g.g.g.f.f.p.p.p.p.p.g.f.g.g.g.g.g.g.g.g.p.p.p.p.p.p.p.p.p.p.p.d.p.p.p.p.p.p.p.p.d.f.f.g.g.g.f.g.f.d.p.",
"G.G.G.G.G.G.G.G.H.j.H.H.H.H.G.C.g.f.f.f.f.f.f.g.j.G.H.H.H.H.G.C.g.f.f.f.f.f.f.f.f.f.f.f.f.f.f.f.f.f.f.f.f.f.g.g.h.G.G.j.g.f.f.p.",
"T.T.T.T.T.T.T.T.T.T.R.R.T.T.L.H.j.g.f.f.p.f.g.C.H.L.T.R.R.T.L.H.h.g.f.p.f.f.f.f.f.f.f.f.f.f.f.f.f.f.p.f.p.f.g.h.H.L.L.H.j.f.f.f.",
"!.!.!.Q.!.!.!.Q.!.!.!.!.!.!.R.L.G.g.p.i.i.f.g.C.K.R.Q.~.!.!.R.L.G.g.p.p.p.p.p.p.f.p.d.p.p.p.p.p.p.p.p.p.p.p.g.G.L.R.R.K.G.g.f.i.",
"^.^.^.^.^.^.^.^.~.^./.^.^.^.!.L.G.g.p.p.p.p.f.J.T.Q.^././.^.Q.T.G.g.p.p.p.p.p.p.p.p.p.p.p.p.f.p.p.p.p.i.p.p.g.G.W.Q.!.T.G.g.p.i.",
"/././././././././.^././././.!.T.G.f.p.p.i.p.h.G.T.^./.(.(./.!.T.G.g.f.i.p.p.p.p.p.p.f.p.p.p.p.p.p.f.p.p.p.f.g.G.R.!.!.W.G.g.f.p."
};
