/* XPM */
static char *_696132f70884e0fa8736495fe34ad8cYeKxiYTXoNWKxjIk[] = {
/* columns rows colors chars-per-pixel */
"64 64 197 2 ",
"   c #130E08",
".  c #1E1007",
"X  c #17120E",
"o  c #1E140B",
"O  c #1B1712",
"+  c #1E1914",
"@  c #171719",
"#  c #1D1C1B",
"$  c #231206",
"%  c #23150C",
"&  c #29160D",
"*  c #25180F",
"=  c #2A190E",
"-  c #301A0F",
";  c #3C1F0F",
":  c #241710",
">  c #2A1710",
",  c #261A12",
"<  c #2B1C14",
"1  c #241E1A",
"2  c #2B1F19",
"3  c #321E14",
"4  c #391F12",
"5  c #301F18",
"6  c #2D2017",
"7  c #26231E",
"8  c #2C231B",
"9  c #352215",
"0  c #3A2214",
"q  c #33241B",
"w  c #3A261B",
"e  c #35281E",
"r  c #3C291D",
"t  c #1E1E20",
"y  c #211F20",
"u  c #262420",
"i  c #2D2620",
"p  c #2C2721",
"a  c #2D2522",
"s  c #2C2421",
"d  c #2A2521",
"f  c #2B2821",
"g  c #2B2823",
"h  c #2F2820",
"j  c #2F2A23",
"k  c #2B2A25",
"l  c #2C2924",
"z  c #2F2A24",
"x  c #2F2A26",
"c  c #2D2925",
"v  c #2E2929",
"b  c #312620",
"n  c #332720",
"m  c #382720",
"M  c #332920",
"N  c #302923",
"B  c #322922",
"V  c #322921",
"C  c #352820",
"Z  c #372A22",
"A  c #352B22",
"S  c #302825",
"D  c #312A24",
"F  c #332B25",
"G  c #312C26",
"H  c #352A23",
"J  c #382F26",
"K  c #3C2C23",
"L  c #342E2A",
"P  c #382F28",
"I  c #3A2F28",
"U  c #3D3027",
"Y  c #36312C",
"T  c #3C3229",
"R  c #38342B",
"E  c #3E342B",
"W  c #3B342C",
"Q  c #3E352E",
"!  c #3D322B",
"~  c #3B3531",
"^  c #3F3932",
"/  c #3E3833",
"(  c #41271A",
")  c #422A1E",
"_  c #432E23",
"`  c #482D22",
"'  c #433126",
"]  c #4A3326",
"[  c #40352F",
"{  c #45342A",
"}  c #4A352A",
"|  c #46382F",
" . c #4C392D",
".. c #523527",
"X. c #52362A",
"o. c #533A2B",
"O. c #5A3D2E",
"+. c #403731",
"@. c #413731",
"#. c #413832",
"$. c #423A34",
"%. c #443D37",
"&. c #443B34",
"*. c #483E35",
"=. c #4B3C33",
"-. c #453E39",
";. c #483F38",
":. c #483F3A",
">. c #543E32",
",. c #5A3E31",
"<. c #494037",
"1. c #4D4136",
"2. c #45403A",
"3. c #46413C",
"4. c #4B433B",
"5. c #4B4239",
"6. c #4C433C",
"7. c #4B443C",
"8. c #4C453D",
"9. c #4C423B",
"0. c #554135",
"q. c #5B4235",
"w. c #50463D",
"e. c #54433A",
"r. c #5A433A",
"t. c #5C4A3E",
"y. c #644536",
"u. c #684435",
"i. c #634639",
"p. c #694439",
"a. c #63483B",
"s. c #4C4441",
"d. c #4B4541",
"f. c #4F4942",
"g. c #504644",
"h. c #524B43",
"j. c #514942",
"k. c #544B42",
"l. c #544B44",
"z. c #534C44",
"x. c #554C45",
"c. c #564E46",
"v. c #544B44",
"b. c #5C4D42",
"n. c #534F4B",
"m. c #584E4C",
"M. c #595047",
"N. c #5D5147",
"B. c #57524E",
"V. c #595049",
"C. c #585149",
"Z. c #5C534C",
"A. c #5D5552",
"S. c #5E5955",
"D. c #614F43",
"F. c #645444",
"G. c #6F5846",
"H. c #63564B",
"J. c #695749",
"K. c #65584C",
"L. c #6B5A4D",
"P. c #735D4D",
"I. c #615650",
"U. c #645A53",
"Y. c #695C53",
"T. c #645D59",
"R. c #735F51",
"E. c #66615D",
"W. c #6B635B",
"Q. c #756354",
"!. c #796555",
"~. c #74655B",
"^. c #796758",
"/. c #74685E",
"(. c #7C6A5C",
"). c #6C6661",
"_. c #6E6964",
"`. c #746962",
"'. c #7B6E64",
"]. c #746D69",
"[. c #7C7066",
"{. c #76706B",
"}. c #7D726A",
"|. c #7F7774",
" X c #816E5E",
".X c #836F61",
"XX c #857264",
"oX c #897465",
"OX c #84756A",
"+X c #8B7668",
"@X c #86786D",
"#X c #8A796B",
"$X c #817770",
"%X c #837973",
"&X c #8C7B71",
"*X c #8E7F78",
"=X c #8E8075",
/* pixels */
"8 7 7 8 f 7 7 7 f f 7 7 7 7 # k 7 7 u u u u u u u u u u u u u u u u d d 7 f u d 7 d 7 7 f u 7 7 7 7 7 u 7 u u 7 u u u u u u 7 7 ",
"8 7 8 8 7 7 7 7 7 7 k 7 u f f 7 u 7 u 7 7 7 7 7 u 7 7 7 u 7 7 7 7 7 u 7 7 7 7 7 7 f u 7 f d 7 u 7 f d 7 7 u u y u u u u u u 7 7 ",
"8 u d u 7 7 7 7 k 7 7 u 7 f f 7 u 7 7 7 u 7 f 7 f 7 7 7 8 7 u 8 7 8 7 7 7 7 7 8 8 7 7 7 7 7 8 8 8 7 1 7 f d u u u t u u f 7 7 f ",
"u d u u 7 7 7 7 7 # 7 u 7 7 f + 8 7 8 8 f 8 f 8 8 8 f 8 f 8 f 8 8 f d 8 8 d f 8 S f 8 d 8 7 7 8 7 7 8 7 7 # 7 u u u u u 7 7 u 7 ",
"u 7 7 7 7 u 7 7 7 f f f # f j 7 8 A Q <.w.c.c.c.C.C.C.M.C.M.C.C.C.C.C.C.C.C.C.C.c.C.c.h.4.W 8 , 8 8 8 7 7 f f 7 d 7 u u u u u u ",
"7 u 7 7 7 t 7 7 7 + 7 k G R 7.w.e.*.T e 6 , 6 N 8 e 8 e e e 8 e 8 e 8 e b 8 8 e 8 8 , 6 b J / 2.c.Q A 8 8 7 7 7 7 u d d u u u 7 ",
"u u u y + O # 7 f f ^ 8.t.R f 8 8 q q 8 < * , < 8 8 q q 8 6 q q q 8 8 6 8 6 q 8 6 , , < 8 q q e 6 8 T 5.Q 8 f d 7 7 7 7 u u f u ",
"u u u 7 O   O 7 7.8.R 6 6 8 h 8 q 8 6 6 , o * < < , * * * , * , , * , , = < , , , % % * 6 8 6 q e 8 8 6 , R #.8 8 7 d 7 u 8 7 u ",
"d u 7 d O , %.5.j 6 6 8 e 8 6 , > , , > < < > < < 8 2 > : > 2 2 6 < 6 6 < < < < < < > , > < > , < < q C 8 < 8 8 @.b 8 8 u 7 f 7 ",
"1 d d a / 8.8 6 , 6 8 6 = * * * 2 2 2 2 8 8 8 q 8 8 2 < < 2 q q q q q q q q q q q q q q q < 6 6 < & , < q q 2 8 2 8 $.S 1 v 1 d ",
"a a S -.%.8 8 8 j e 6 = > > 6 6 2 2 q 5 q q 2 5 q 2 < < < 2 q 2 6 6 6 6 8 q q 5 q < 8 q < 5 2 2 8 < , , < 6 q A 8 , 8 Q G 8 7 7 ",
"1 a d./ 8 o A e 6 * $ 6 q q 6 q q q 5 5 q 8 q 8 q q q 2 2 8 5 5 q q q q 5 q q 5 < q q 8 q q q 5 * * 6 < , % * < Z q 7 , F #.N 7 ",
"L :.Y 1 6 8 A , * % * < < < < 2 2 5 < 2 < 2 < < < < 3 < 5 < 5 < < < < 2 2 2 2 2 < 6 2 2 2 5 2 5 < < < q q > * % , e A , , ! 4.8 ",
"s.f.O 1 e 8 6 o o * > < , > < > > > > > > > > > & > < > > > > & & , > > > > , > > > > > , > , > < , % > , = * % * < 8 J , O 4.#.",
"7 8 / +.e Q 6 6 = < < < 2 2 2 < 5 5 5 5 w w w w m w r m m 5 3 5 < 2 < 2 > < < 2 < < < < < > 2 2 > < 2 2 3 < < = % , e 6 e 6 , k.",
"1 N _.].{.[.`.~.N.1.K q < < n I _ _ ] { { } } } } { } } } } { K e q 5 w 5 5 5 5 q q 5 q q m m m m q 5 5 q q 9 q < . , J e , * &.",
"# k T.`.N.H.K.'.@X+X@X.XX.> 8 @.}  .} } ] } X.} ] } ] ] } } { } [ _ Z w q q 9 6 q q w e U { ' r K _ m 5 5 5 q 3 < % * 8 6 6 % * ",
"t c U.Y.=.{ { r.R.R.R.+XOXb., q { } } } } ` } } } } } } } ] ] ] } } } { { ' ' U ' ' ' ' ] ' U r m _ { _ m 3 q q 2 % % < 6 < $ $ ",
"# v U.~.D.b.b.L.R. X XR.+X&X=.1 r } } }  .` } } } } } } } } } } { { { ] } } } } { { } }  .{ ' r w _ } } I K K K e > % 8 9 6 % % ",
"# g U./.Q.Q.!.^.R. XP.P.!.*Xm., w { ' { } ] } } } } ` } ] } { { { } { { ] { { ' { ] } { } { ] <._ ` @.} } } | { Z > , q e e * % ",
"# d H.Q.R.!.!.R.R.R.P. XR.OXm.: 6 r w w w 9 w 9 3 3 w 9 9 w 9 9 9 9 9 e 9 9 9 9 9 9 9 6 9 9 9 9 3 3 4 3 q w q 3 e * * q e q % $ ",
"+ d Z.!.!.!. X!.R.!.G.R.R.`.g.: 6 ' r K _ ) ) ) _ ( ) ) ) ) ) r _ ) ` ` ' ` ` ` ' ` ) ) ( 0 0 0 w r w w w w w q 9 * * e e q % o ",
"# 7 x.'. XR.R.R.!.R.R.^.`.Y.$.y ' q.i.,.i.i.i.i.p.y.i.p.i.p.y.p.y.y.i.u.i.y.i.u.p.p.y.y.y.q...] ..] ] } } { { | r = * e e e % $ ",
"# 1 e.XX.X.XR.!.!.R.(.^.R.I.~ , ` y.p.i.p.p.p.p.p.p.p.p.p.p.p.u.p.a.u.y.u.u.a.a.u.a.u.u.u.u.u.y.,.>.} } } } } } ' 6 * e e 9 = % ",
"# u W c.!.+X+XXX(.(.!.Q.I.:.L 1 ' q.i.i.y.i.y.y.i.y.y.i.y.y.a.i.y.u.y.y.y.y.y.y.y.y.y.y.y.y.y.y.i.i.q.o.} ] { } ' = * w e q $ $ ",
"# g #.*.=.b.U.W.U.K.e.{ =.-.L 1 } q.a.y.a.i.y.a.i.i.y.i.y.y.i.i.i.y.y.y.y.y.y.y.y.y.y.y.y.y.y.y.i.t.y.q.o.} } { { = % q e q * % ",
"# u 2.*.I ' ! +.1.1.| ' { H y 1 o.u.a.y.i.y.y.y.i.p.i.i.u.u.u.u.y.u.u.y.u.u.y.y.u.u.y.y.y.y.y.y.i.q.y.q.0.] { { ' < % 6 w e * $ ",
"t 7 $.#.I &.! @.8.=.=.=._ 3 m =.o.0.0.0.O.O.O.q.O.O.O.O.O.O.0.0.O.O.O.O.O.O.q.0.O.O.o.q.O.O.O.O.O.q.q.o.X.] ` ` e = = w e e * o ",
"# y $.! I *.$.-.$.@.K w 4 & > w 9 0 0 0 0 0 ; 0 0 0 0 0 4 0 0 0 ; ; ; ; ; ; - ; 9 9 ; ; 0 0 9 0 ; ; ; ( 0 3 - = q $ & q e e * % ",
"# 1 I I Z I b S 2 q q ( } o.=. .o.0.o.o...0.o.o.o.o.o.o.o.o.o. .1.] 1.0...0...1.o.o.0.] o.o.o.o...o.O...o.o.` _ r & & e e q * % ",
"# : 1 2 2 , 1 g I { _ } q.i.q.a.y.y.y.i.y.y.y.y.u.i.p.i.y.y.y.y.y.y.y.y.y.y.y.y.y.a.y.y.q.y.y.y.y.y.y.y.a.r.>.{ ` < = e e q % % ",
": 1 2 Z q : : ~ ~ @.} } ,.i.a.a.y.t.i.i.y.a.a.a.i.i.i.i.t.y.a.a.y.y.a.a.t.a.y.y.a.a.a.a.a.a.a.y.y.y.t.y.a.t.>. .` > % e C q * % ",
"o * 8 e 8 o , J E ! ' ] o.>.0.,.q.0.0.0.>.e.e.e.e.e.0.q.q.0.q.0.0.q.q.0.q.q.q.0.>.b.r.>.r.r.o.q.0.r.0.0.r.0.0.U U * * 8 e q < $ ",
"$ o 9 e J , , A K K C I ' ' { ` r _ ' ' _ _ _ { _ ' ' ' _ ' _ _ ' ' _ ` ` ' ' ' I _ 5 I _ _ } Z ' U U U U U J U G , 8 J N 6 = % ",
"% = e e 6 o A W.}.[.'.[..X'..X.X XoXXXXX#X+X.X.XXXXXoXXXoXXXXXoX X X X XoX.X XXX[.l., v.$X`.[.OX[.`.OX}.[.}.[.|.E.G , 8 e e % $ ",
"o = e e 6 * e `.}.OXOXOXXXXXOX.XoX(.!.(.#X+X.XXXoXoX+X+X+XoXoXoXoXoXoXoXXX(.(.`.}.8.d n.$X%X$X{.{./.~.~.[.}.%X}.W.8 7 8 N w & $ ",
"o % 8 e 8 , 8 U./.~.~.~.^.~.^.^.Q.P.F.F.J.F.F.^.Q.!.!.!.!.!.!.!.!.Q.Q.Q.Q.L.J.K.Z.$.1 :.].$X].T.8.E.S.Z.C.U.|.}.T.d 2 F A q % & ",
"o = e e 8 : 8 K.U.U.Y.Y.K.J.L.K.L.K.F.t.D.e.e.J.Y.L.R.Y.L.J.L.K.K.J.K.J.L.K.H.Z.j.R 1 n.].T.A.+.7.E.E.{.8.&.A.E.T.g 1 a F e & $ ",
"* * 8 A Z > 2 =.e.e.e.1.>.e.e.e.<.<.<.w.:.>.:.e.g.>.e.e.0.e.e.=.<.<.<.1.e.8.1.w.j.b 1 -.3.Z.`.w.z n.B.n.%.z.E.n.3.u 1 S S q , % ",
"o * 8 e Z , 2 I { [ ! { { { { { r J J U { @.{ { } @.{ { [ { { [ <.E | E { { E { ! Y , d Z.`.c.%.2.Y / R %.^ )._.~ 1 1 S F 8 & % ",
"O * e A 8 , , 6 q q e q q e K w e K J e e J I K K r K K m K K K e K r K K r K K F 2 : a A.I.J c.S.n.T.)._.$.d.E.~ u 1 a F q > & ",
"o O 8 j e * * U ! { U { { _ | =.0.e.r.r.e.r.r.q.r.r.r.r.r.,.r.e.0.q.r.r.q.r.r.e.e.[ 1 1 ~ n.-.-.s.A.].W.Z.%.s.3.g @ 1 S F q % . ",
"O * e e q * % U {  .{ { @.} [ { 1.0.q.y.D.i.i.i.a.a.a.y.D.i.p.p.a.p.i.y.i.i.a.a.r.@.2 L Y ~ :.$.$.$.4.%.-.%.<.R ~ y < g N q & % ",
"* + j 7 8 < 6 e ' I ' { =.! I _ ] ] 0.q.y.i.y.i.u.y.y.y.p.y.i.i.i.u.u.u.u.y.r.r.b.{ 1 I 3.~ Y L Y $.+.' I F J 2.#.2 : 1 q 8 % $ ",
", f U.U.K.N.b.=.Z w r Z K E { K ] ] ..O.y.i.y.u.u.u.u.y.y.y.y.u.p.u.u.u.u.u.y.i.,.:.1 y I I a n , 8 , & q J e A e + + e C q * % ",
"1 8 W.[.`./.OX+X+X(.H.>.q 6 K [ } ] ] X.,.i.y.y.y.y.y.y.y.y.y.i.i.i.i.u.y.y.i.i.r.b.>.=.[ | @.=.=.} =.=.' | <.' j 6 + 6 q 8 = % ",
", f T.W.w.<.8.F./.(.+X&XW.r * U ' K _ ] X.O.q.O.O.O.O.q.0.o.,.q.0.o.o.O.o.o.O.o.>...} >.X.>.>.} o.}  .>.o.} 1.<.J * o O < = $ $ ",
"# G U.Y.1. .{ F.Q./.!.(.&XW.U * < 3 < - 9 w 0 4 0 0 ; ; 0 ; 0 0 0 w w 0 ; ; 0 0 4 ( 4 w 4 4 4 w w w w - r w 9 q 6 * * 9 q 6 % $ ",
"# f E.~.Q.L.L.Q.Q.!.!.!.(.=XZ.7 5 _ _ _ _ ` o.>.o.o.O.O.o.O.o.o.O.o.O.O.O.O.O.O.O.,.O.,.,.O.O.O.O.q.q.O.>.q.0.o._ = % e e < o $ ",
"y 7 S./.!.Q.Q.!.!.^.P.!.^.#XC., m @.| }  .X.q.p.y.y.y.u.u.y.u.i.u.y.u.y.u.y.y.y.y.y.y.y.y.i.p.i.y.i.i.i.i.a.q. ._ = * w e 6 * o ",
"# 7 Z.^.Q.(.!.Q.Q.P.G.P.Q.'.d.1 q { { } } ] O.,.q.y.y.y.i.i.q.i.u.y.u.y.u.u.y.i.i.y.q.i.y.i.y.y.y.q.i.i.i.q.o.} _ = % e e e o o ",
"# 7 M.~.P.Q.^.!.!.P.P.!.!.~.-.1 Z { } } } ` X.,.y.y.i.y.i.y.i.i.y.y.i.y.i.i.i.i.i.i.i.y.i.i.i.i.y.i.a.q.q. .] ] ' = % w e 8 * * ",
"7 + c.XXXX!.P.Q.!.Q.!.!.!.Y.$.1 e { } { ] ] ....o.q.y.q.y.a.i.i.q.y.y.t.i.i.r.a.i.a.i.r.i.D.i.i.a.a.y.q.o.] ' ] ' - % 9 r e o o ",
"7 7 1.Y.XXXX.X(.(.(.!.Q.Y.b.I 1 e | { { ] ] ] ` ] ....q.q.q.i.i.y.a.a.y.i.i.i.r.i.q.q.q.,.,.>.>.o. .] ] _ ) r r r - = e 9 e = o ",
"@ 7 Q =.a.Q.[.'./.Q.L.t.b.1.g @ < Z w w w w w w 4 0 ( w ) _ ` _ ` ) ) ' ` ` _ _ ` _ r w r w w 0 w w 0 w w w q w e % = w e 8 * % ",
"# u %.*.1.{ 1.k.k.e.} K ! Q c 2 8 w 6 9 9 = = 9 0 9 ; 9 0 0 0 0 0 9 0 0 4 q 4 4 9 9 4 3 4 3 w 4 4 9 0 9 0 9 9 9 - $ % e e e = o ",
"# k %.&.I | Y / 3.=.=.=.! 8 7 u [ { { { ' K r K ' ] } } } ' ' ] ] } ] { ] { { { { { { { { { { ' ] ] } ' K ' ' K q % = e w 6 , * ",
"@ u ^ ^ U &.#./ d.:.| I q 6 u v Q { { } { { ] ] } { } } } } } ] { ] } ] } }  .} { ` _ w K K _ _ { { } { ' { { U 9 $ * q e e * . ",
"t v &.T U E ~ R L G 8 8 < , 7 d 8 q e r K r _ I ' U r K K K r K r r K I _ _ { { Z q < > 3 q q q r J I _ I _ ' K q % * e A q * o ",
"# O 8 8 8 , , 7 1 , 8 < 8 2 7 1 < < 6 6 9 q q w q w q q 9 3 < q q q 9 w Z q m 5 q q > & < 3 5 5 q q w w q e q q 6 % = e K 6 % % ",
"# + 8 q 6 % : : , , 6 = < < 1 : * * = * * < < , < = , , > , = < < = < < > < < < < , * * > < < < & = < < < < < * < o * 6 e q * * ",
"X + 6 8 < * , 7 7 6 6 = < 3 2 1 < < 6 6 < < < 6 < * % * 6 q 6 6 3 = < > > < < 2 < < < 6 < < < < < < 3 3 < < 6 < < , , , 6 8 o . ",
"7 , % % = < q f a q 9 0 w w q q e q q q e q q q q , * < 8 q q 8 q q < 6 < < q q q q b q b q a q m 8 q m q e e e e 6 6 * * + o 6 ",
"c.Y $ & * * , , : , = & & & > > * = , , * * * * , % % * * * * > & % , , > & , > & , * > , > : > > > > > * * * * * * * * o * A C."
};
