/* XPM */
static char *_1e1f2dcf43f4a68d040d2cbcf5f8b01fCmK6Y1ibIs5ONTB[] = {
/* columns rows colors chars-per-pixel */
"64 64 158 2 ",
"   c #C0CCDC",
".  c #C2CEDE",
"X  c #C4D0E0",
"o  c #C5D1E1",
"O  c #C6D2E2",
"+  c #C2CFDE",
"@  c #C1CDDD",
"#  c #BFCBDB",
"$  c #BCC8D8",
"%  c #B8C4D4",
"&  c #B5C0D1",
"*  c #B3BFCF",
"=  c #B4C0D0",
"-  c #B7C3D3",
";  c #BBC7D7",
":  c #BECADA",
">  c #BCC7D8",
",  c #AFBACB",
"<  c #9EA9BA",
"1  c #8F99AB",
"2  c #8790A3",
"3  c #8B95A8",
"4  c #98A3B5",
"5  c #A9B5C6",
"6  c #C3CFDF",
"7  c #C4D1E0",
"8  c #B7C3D4",
"9  c #9FAABB",
"0  c #7E889B",
"q  c #60697E",
"w  c #51596F",
"e  c #596177",
"r  c #737C90",
"t  c #949FB1",
"y  c #B1BCCD",
"u  c #C4D0DF",
"i  c #C5D2E1",
"p  c #B5C1D1",
"a  c #97A1B3",
"s  c #6E768B",
"d  c #485066",
"f  c #353C53",
"g  c #3F465D",
"h  c #60687D",
"j  c #8993A6",
"k  c #ADB8C9",
"l  c #96A0B2",
"z  c #6C7589",
"x  c #464D64",
"c  c #323950",
"v  c #3D445A",
"b  c #5E667B",
"n  c #8892A5",
"m  c #C5D1E0",
"M  c #C3CFDE",
"N  c #B5C1D2",
"B  c #97A1B4",
"V  c #6E778B",
"C  c #4A5167",
"Z  c #373D54",
"A  c #41485E",
"S  c #61697E",
"D  c #8A94A7",
"F  c #ADB9CA",
"G  c #C6D2E1",
"H  c #96A1B3",
"J  c #6D768A",
"K  c #474F65",
"L  c #343A52",
"P  c #3E455C",
"I  c #5F677C",
"U  c #B6C2D3",
"Y  c #9BA5B7",
"T  c #767F93",
"R  c #545C72",
"E  c #434A61",
"W  c #4C546A",
"Q  c #6A7287",
"!  c #8F99AC",
"~  c #BAC6D6",
"^  c #A9B4C5",
"/  c #929CAE",
"(  c #7D869A",
")  c #727B8F",
"_  c #788195",
"`  c #A1ACBE",
"'  c #B8C4D5",
"]  c #AAB5C6",
"[  c #A7B2C3",
"{  c #A8B4C5",
"}  c #AEBACB",
"|  c #B6C2D2",
" . c #BDC8D9",
".. c #C1CDDC",
"X. c #C2CEDD",
"o. c #C3CEDE",
"O. c #AEBBCF",
"+. c #98A7BF",
"@. c #95A4BC",
"#. c #B4BFCE",
"$. c #DAE0E6",
"%. c #E5EAEE",
"&. c #D6DEE7",
"*. c #C4CFDE",
"=. c #BFCBDC",
"-. c #BFCCDC",
";. c #C0CDDD",
":. c #C1CDDE",
">. c #C1CEDE",
",. c #C3D0E0",
"<. c #C0CDDC",
"1. c #B9C4D5",
"2. c #B3BFD0",
"3. c #B4C0D1",
"4. c #9DA7B9",
"5. c #8D97A9",
"6. c #858EA1",
"7. c #9FA9BB",
"8. c #7E879A",
"9. c #50586E",
"0. c #586076",
"q. c #949EB1",
"w. c #6E778C",
"e. c #495066",
"r. c #40475D",
"t. c #60697D",
"y. c #6C7489",
"u. c #454D63",
"i. c #323850",
"p. c #3C435A",
"a. c #B6C1D2",
"s. c #717A8E",
"d. c #4D546A",
"f. c #3A4158",
"g. c #444B62",
"h. c #646C81",
"j. c #AEB9CA",
"k. c #A3AEC0",
"l. c #8791A4",
"z. c #677084",
"x. c #7E879B",
"c. c #9AA5B7",
"v. c #B3BECF",
"b. c #BDC9D9",
"n. c #B4BFD0",
"m. c #A7B2C4",
"M. c #9CA7B9",
"N. c #9AA4B6",
"B. c #B0BBCC",
"V. c #BFCADB",
"C. c #C1CEDD",
"Z. c #C3D0DF",
"A. c #B2BDCE",
"S. c #42495F",
"D. c #232941",
"F. c #20263E",
"G. c #252B43",
"H. c white",
/* pixels */
"              . X o O O X + @                                                                                                   ",
"        @   # $ % & * = - ; :   @                                                                                               ",
"      @ . @ > , < 1 2 3 4 5 %   . .                                                                                             ",
"      6 7 . 8 9 0 q w e r t y   7 u @                                                                                           ",
"      6 i 6 p a s d f g h j k   i 7 @                                                                                           ",
"      6 O 6 p l z x c v b n k   O m @                                                                                           ",
"      6 i M N B V C Z A S D F   i 7 @                                                                                           ",
"      6 G 6 p H J K L P I j k   G 7 @                                                                                           ",
"      6 O 6 p l z x c v b n k   O m @                                                                                           ",
"      6 o . U Y T R E W Q ! ,   o X @                                                                                           ",
"      . 6 @ ~ ^ / ( ) _ D ` N   6 + @                                                                                           ",
"      @ @   : ' y ] [ { } |  .  @ @                                                                                             ",
"            ..@ @ . . . X.@ @                                                                                                   ",
"X.X.X.X.X.X.. 6 X G O G m u o.X.X.X.X.X.X.X.X.X.X.X.X.X.X.X.X.X.X.X.X.X.X.X.X.X.X.X.X.X.X.X.X.X.X.X.X.X.X.X.X.X.X.X.X.X.X.X.X.X.",
"# # # # # # # # # # # # # # # # # # # # # # # # # # # # # # # # # # # # # # # # # # # # # # # # # # # # # # # # # # # # # # # # ",
"O.O.O.O.O.O.O.O.O.O.O.O.O.O.O.O.O.O.O.O.O.O.O.O.O.O.O.O.O.O.O.O.O.O.O.O.O.O.O.O.O.O.O.O.O.O.O.O.O.O.O.O.O.O.O.O.O.O.O.O.O.O.O.O.",
"+.+.+.+.+.+.+.+.+.+.+.+.+.+.+.+.+.+.+.+.+.+.+.+.+.+.+.+.+.+.+.+.+.+.+.+.+.+.+.+.+.+.+.+.+.+.+.+.+.+.+.+.+.+.+.+.+.+.+.+.+.+.+.+.",
"@.@.@.@.@.@.@.@.@.@.@.@.@.@.@.@.@.@.@.@.@.@.@.@.@.@.@.@.@.@.@.@.@.@.@.@.@.@.@.@.@.@.@.@.@.@.@.@.@.@.@.@.@.@.@.@.@.@.@.@.@.@.@.@.",
"#.#.#.#.#.#.#.#.#.#.#.#.#.#.#.#.#.#.#.#.#.#.#.#.#.#.#.#.#.#.#.#.#.#.#.#.#.#.#.#.#.#.#.#.#.#.#.#.#.#.#.#.#.#.#.#.#.#.#.#.#.#.#.#.",
"$.$.$.$.$.$.$.$.$.$.$.$.$.$.$.$.$.$.$.$.$.$.$.$.$.$.$.$.$.$.$.$.$.$.$.$.$.$.$.$.$.$.$.$.$.$.$.$.$.$.$.$.$.$.$.$.$.$.$.$.$.$.$.$.",
"%.%.%.%.%.%.%.%.%.%.%.%.%.%.%.%.%.%.%.%.%.%.%.%.%.%.%.%.%.%.%.%.%.%.%.%.%.%.%.%.%.%.%.%.%.%.%.%.%.%.%.%.%.%.%.%.%.%.%.%.%.%.%.%.",
"&.&.&.&.&.&.&.&.&.&.&.&.&.&.&.&.&.&.&.&.&.&.&.&.&.&.&.&.&.&.&.&.&.&.&.&.&.&.&.&.&.&.&.&.&.&.&.&.&.&.&.&.&.&.&.&.&.&.&.&.&.&.&.&.",
"*.*.*.*.*.*.*.*.*.*.*.*.*.*.*.*.*.*.*.*.*.*.*.*.*.*.*.*.*.*.*.*.*.*.*.*.*.*.*.*.*.*.*.*.*.*.*.*.*.*.*.*.*.*.*.*.*.*.*.*.*.*.*.*.",
"# # # # # # =.-.;.:.>.>.@   =.# # # # # # # # # # # # # # # # # # # # # # # # # # # # # # # # # # # # # # # # # # # # # # # # # ",
"=.=.=.# # # -.;.. 6 ,.6 . @   =.# # =.=.=.=.=.=.=.=.=.=.=.=.=.=.=.=.=.=.=.=.=.=.=.=.=.=.=.=.=.=.=.=.=.=.=.=.=.=.=.=.=.=.=.=.=.=.",
"        <.  # $ 1.p 2.3.- ; :   <.                                                                                              ",
"      @ . @ ; } 4.5.6.j a ^ %   . . <.                                                                                          ",
"      6 7 . 8 7.8.h 9.0.r q.y   7 X @                                                                                           ",
"      6 i 6 p a s d f g h j k   i 7 @                                                                                           ",
"      6 O 6 p l z x c v b n k   O m @                                                                                           ",
"      6 i M N B V C Z A S D F   i 7 @                                                                                           ",
"      6 i M N B w.C Z A S D F   i 7 @                                                                                           ",
"      6 i M N B w.C Z A S D F   i 7 @                                                                                           ",
"      6 i M N B w.C Z A S D F   i 7 @                                                                                           ",
"      6 i M N B w.C Z A S D F   i 7 @                                                                                           ",
"      6 i M N B w.C Z A S D F   i 7 @                                                                                           ",
"      6 i 6 p a V e.f r.t.j k   i 7 @                                                                                           ",
"      6 O 6 p l y.u.i.p.b n k   O m @                                                                                           ",
"      6 o + a.4 s.d.f.g.h.3 j.  o X @                                                                                           ",
"      . X . 1.k.l.J h z.x.c.v.  X 6 @                                                                                           ",
"      @ . @ b.n.m.M.a N.k.B.~   . @                                                                                             ",
"              # : b.$  .b.V.#                                                                                                   ",
"              C.6 X o o Z.. @                                                                                                   ",
"                @ @ @ @ @ <.                                                                                                    ",
"                                                                                                                                ",
"                                                                                                                                ",
"                                                                                                                                ",
"                                                                                                                                ",
"                                                                                                                                ",
"                                                                                                                                ",
"                                                                                                                                ",
"                                                                                                                                ",
"                                                                                                                                ",
"                                                                                                                                ",
"                                                                                                                                ",
"6 6 6 6 6 6 6 6 6 6 6 6 6 6 6 6 6 6 6 6 6 6 6 6 6 6 6 6 6 6 6 6 6 6 6 6 6 6 6 6 6 6 6 6 6 6 6 6 6 6 6 6 6 6 6 6 6 6 6 6 6 6 6 6 ",
"o o o o o o o o o o o o o o o o o o o o o o o o o o o o o o o o o o o o o o o o o o o o o o o o o o o o o o o o o o o o o o o o ",
"A.A.A.A.A.A.A.A.A.A.A.A.A.A.A.A.A.A.A.A.A.A.A.A.A.A.A.A.A.A.A.A.A.A.A.A.A.A.A.A.A.A.A.A.A.A.A.A.A.A.A.A.A.A.A.A.A.A.A.A.A.A.A.A.",
"( ( ( ( ( ( ( ( ( ( ( ( ( ( ( ( ( ( ( ( ( ( ( ( ( ( ( ( ( ( ( ( ( ( ( ( ( ( ( ( ( ( ( ( ( ( ( ( ( ( ( ( ( ( ( ( ( ( ( ( ( ( ( ( ",
"S.S.S.S.S.S.S.S.S.S.S.S.S.S.S.S.S.S.S.S.S.S.S.S.S.S.S.S.S.S.S.S.S.S.S.S.S.S.S.S.S.S.S.S.S.S.S.S.S.S.S.S.S.S.S.S.S.S.S.S.S.S.S.S.",
"D.D.D.D.D.D.D.D.D.D.D.D.D.D.D.D.D.D.D.D.D.D.D.D.D.D.D.D.D.D.D.D.D.D.D.D.D.D.D.D.D.D.D.D.D.D.D.D.D.D.D.D.D.D.D.D.D.D.D.D.D.D.D.D.",
"F.F.F.F.F.F.F.F.F.F.F.F.F.F.F.F.F.F.F.F.F.F.F.F.F.F.F.F.F.F.F.F.F.F.F.F.F.F.F.F.F.F.F.F.F.F.F.F.F.F.F.F.F.F.F.F.F.F.F.F.F.F.F.F.",
"G.G.G.G.G.G.G.G.G.G.G.G.G.G.G.G.G.G.G.G.G.G.G.G.G.G.G.G.G.G.G.G.G.G.G.G.G.G.G.G.G.G.G.G.G.G.G.G.G.G.G.G.G.G.G.G.G.G.G.G.G.G.G.G.",
"G.G.G.G.G.G.G.G.G.G.G.G.G.G.G.G.G.G.G.G.G.G.G.G.G.G.G.G.G.G.G.G.G.G.G.G.G.G.G.G.G.G.G.G.G.G.G.G.G.G.G.G.G.G.G.G.G.G.G.G.G.G.G.G."
};
