/* XPM */
static char *Door_04_removebg_preview__1__removebg_preview__1__removebg_preview__1_1660167086[] = {
/* columns rows colors chars-per-pixel */
"64 64 113 2 ",
"   c #010001",
".  c #0A0402",
"X  c #0C0905",
"o  c #020609",
"O  c #090708",
"+  c #0C0909",
"@  c #130C05",
"#  c #1C0E01",
"$  c #130D09",
"%  c #1D1106",
"&  c #15120E",
"*  c #1E140B",
"=  c #1C1613",
"-  c #1E1914",
";  c #1D1C1B",
":  c #231407",
">  c #23150C",
",  c #29170C",
"<  c #24190E",
"1  c #2A190E",
"2  c #231611",
"3  c #291711",
"4  c #251A13",
"5  c #2B1C13",
"6  c #241D1A",
"7  c #2B1F19",
"8  c #301F16",
"9  c #301F18",
"0  c #2C2116",
"q  c #26211C",
"w  c #2D221B",
"e  c #322217",
"r  c #33241B",
"t  c #38271C",
"y  c #35281E",
"u  c #38281C",
"i  c #272421",
"p  c #2B2521",
"a  c #2E2925",
"s  c #2D2B29",
"d  c #312721",
"f  c #342A23",
"g  c #3B2C23",
"h  c #332D2A",
"j  c #392F29",
"k  c #3D3026",
"l  c #36322D",
"z  c #3C322C",
"x  c #373632",
"c  c #3B3531",
"v  c #3D3935",
"b  c #3D3E39",
"n  c #422F25",
"m  c #423127",
"M  c #42342C",
"N  c #49372D",
"B  c #45392E",
"V  c #4B3A2D",
"C  c #413731",
"Z  c #433A33",
"A  c #4B3D34",
"S  c #443D3A",
"D  c #483F39",
"F  c #4D4036",
"G  c #45413C",
"H  c #4B423C",
"J  c #504237",
"K  c #52443C",
"L  c #594739",
"P  c #544A3F",
"I  c #5D4A3D",
"U  c #4D4541",
"Y  c #4C4945",
"T  c #4F4E4A",
"R  c #504641",
"E  c #554B43",
"W  c #594D44",
"Q  c #524D49",
"!  c #5F5145",
"~  c #5D534C",
"^  c #5E5751",
"/  c #5F5852",
"(  c #5E5F5A",
")  c #625245",
"_  c #64564B",
"`  c #65584D",
"'  c #69594A",
"]  c #645B53",
"[  c #6C5C51",
"{  c #655F5A",
"}  c #685D59",
"|  c #715F52",
" . c #6F6257",
".. c #65625D",
"X. c #6C625B",
"o. c #746254",
"O. c #7A6455",
"+. c #73655B",
"@. c #796759",
"#. c #76695E",
"$. c #7C6A5C",
"%. c #6B6462",
"&. c #746A62",
"*. c #7A6C63",
"=. c #746C6A",
"-. c #796F68",
";. c #7E7167",
":. c #7E726A",
">. c #7E7674",
",. c #816F63",
"<. c #847366",
"1. c #82766A",
"2. c #817670",
/* pixels */
"                      o               o                                             o         o                         o       ",
"                              o                 .             .                                       o   o o   o       .       ",
"                      o .           .       o                                   .             .                                 ",
"            o     o                               . o . . . .     .   .   .   . .       .                             o         ",
"                  O                     .   .   . = h x c x l h l l l l c x c l l q .       .                                   ",
"    o   o                 + . .   . 2 h l l a p 6 a h h a f f h h y f a f f f h a p 4 ; w l h q o     X X X   o X   +           ",
"o o             .   . . O 6 6 6 q q q w w q q 0 w w w 0 0 w w 0 0 0 0 0 0 0 0 0 4 4 4 4 w f f p 4 q p h s s q q ; ; a           ",
"                . O h p 4 f d p w w w 0 4 * < < 7 4 4 5 4 < 5 7 4 4 5 4 4 4 4 4 7 < * 4 w w 6 w y w q q w s l a q a x       X   ",
"        . @ X . 2 6 w p d 7 w 6 < 4 4 4 5 7 0 5 5 e 5 1 3 , 9 8 0 8 8 1 5 5 8 5 5 5 5 5 5 5 4 5 6 7 p d d w w p v y y q ; = q s ",
"  . - i x S 4 4 6 5 7 r 2 5 3 5 0 7 0 0 e 0 0 0 e r 8 5 , 8 9 9 e e e t t 9 8 9 r r 8 8 8 5 5 5 5 2 2 7 7 r 7 5 q y l a w p q i ",
"$ h h S c f f r g 7 r > 5 3 4 7 0 0 0 0 w r y y 0 r 5 5 5 r r 9 r r 8 8 9 9 9 d r r r r r 8 e 7 9 7 5 3 5 7 y g w 0 r z f h 6 i ",
"; l U z w 4 y r , 5 3 4 w d p p f a y 0 0 w w 4 r w 8 7 7 9 r 7 5 r r e r r r 7 9 8 8 8 9 r 9 9 2 3 5 5 5 3 1 0 w u 0 4 f v f q ",
"l x l 6 w w r 4 5 * * w w d S Z S z l a p w w w 7 6 6 7 7 3 7 5 5 5 7 7 7 3 5 5 7 5 7 7 r 7 9 w 7 6 7 9 w 0 < : 1 y y 0 4 h F w ",
"U U 6 4 y w 4 < # 5 4 6 l .   O   . & h S S S S D c 7 6 6 6 q 7 6 6 6 7 6 2 2 6 4 3 4 4 4 3 < < 5 3 > 2 1 1 1 > 5 : y k 4 > S Z ",
"q a c c z M 5 y 7 4 w w @   .   o     . O   . O . . O 6 v S U S D S S S h w i 6 w 6 7 7 6 7 5 7 6 w r r 0 5 1 1 : 0 0 0 y 0 0 H ",
"6 h } -.%.+.*.] W H Z .                               . .   . X O . + . . q D D D S D D H H H H D S S j y 0 w r < % 0 y w 0 < c ",
"; s ] &.~ _ ` #.:./ &                                                       . . O O . . O . . . O . O . x h 3 7 5 , 1 e e 0 < < ",
"; s ] ] A V V W +.~   O                                                                           O   . . a h p 7 > : 1 0 5 * * ",
"6 s ] X.W L I ' +.] X         .                                                                           @ S j r 1 , e 0 w < * ",
"6 s ] #.@.O.O.O.+.+.r         .                                                                         .   q M f 5 > u u y 1 : ",
"= a !  .O.O.O.| | | K .                                                                           .   .     . r y 1 , u y r < * ",
"6 h ~ +.O.O.O.O.,.| ' @ .                                                                                   . w w : , u u r < % ",
"i c ! #.,.O.| O.| | +.M .                                                                       .         . . j y 0 1 u u u < < ",
"; a K O.,.,.| ,.@.o.#.] .     o                                                                   O         . z k 0 < r u r < : ",
"- i x W +.<.<.$.$.$.+.Q O     o                                                                             X z k 5 , u u e < * ",
"- i v U H W [ o.' ' W C     o                                                                               . z m 1 , e u u < : ",
"6 i S S l M M V J J Z j .     o                                                                             . z k 0 , e u u < > ",
"6 q v v l Z M z A H A z     o o                                                                           .   f y 5 , u r u < * ",
"6 6 Z c h S Z A M M g a                                                                                     X w 0 , , t r e < : ",
"2 7 l h a h d f r r w w .                                                                                 X q g y 1 , t u u 4 , ",
"2 2 6 w i 6 4 f g z M z .                                                                       o         X Z S z 0 1 t r r , > ",
"> 4 0 f d = 4 l M M B M .                                                                                 . Z M z 1 , t u r 2 > ",
"< < y y 0 < 0 g m z z h .                                                                           o     . l z j 7 2 9 f r 3 : ",
"< : 0 y y < < g k g z z .                                                                               . . l C h 3 7 j g 8 < > ",
"% 1 y y 0 < y  .-.-.;...+                                                                                   Y =.} f 5 9 y f 4 * ",
": 4 y y 0 1 y #.;.<.>.-..                                                                                 o Y >.%.f 5 9 y d , : ",
"* < r y 0 0 0 ` *.&.&.} .                                                                                 . Y =.] p 7 f f y > > ",
"* 4 y y 0 < r _ ` _ ] ~ .                                                                         o       . Y %.{ h 4 d g d > > ",
"- < y y y 0 e Z A K U D .                                                                               o O b T S i 6 d f 9 2 3 ",
"* - w y y < 0 n M M C c .                                                                                 . Y %.c i 7 d f 7 3 3 ",
"= > y y w q 1 0 d d g S .   o                                                                             . b ( c i 6 w f d 3 3 ",
"* < w y f < < k n n C D X                                                                       .           b G i = 6 d g 9 > > ",
"= 2 w y y < * k M C C r                                                                                     c v c q 6 w f r 2 > ",
"= q h w w 0 0 u M n f .     .                                                                         .   + s x Z 7 3 6 r 9 > > ",
"X 0 ^ ] ] ~ P F n f d . .                                                                                 X p j y 4 0 r d r < : ",
"X l ..&.#.X.;.1.*.&.~ .       o                                                                           . c C a 4 < 0 r r < , ",
"X H (  .P F P ) &.*.+..                                                                           o       @ Z Z h 4 * < 1 5 : % ",
"o T ^ ( P F F I +.*.| . .                                                                             o   6 j f 7 , 5 0 0 0 > * ",
"o Y ] +.o.' ' o.+.*.] . X       o                                                                     . . C R V n 8 1 t t 8 : * ",
". G ] o.O.O.O.+. .#.[ *     O o               o                                                 o o     . ~ D A n , , t t r > > ",
"& b [ +.o.O.@.| o.o.) k .             o                   o                                 o   o   o   . R A N n , , t y w 2 = ",
"q l ~ o.o.o.o.@.+.| o.' @   O   o       O   o                 o                       o                 . N N M n 8 , 9 y y < * ",
"a q P *.<.@.| @.+.O.@.#.N .               o     o         o                     o     o                 z M n n n 1 , r y y > > ",
"6 ; J [ $.<.<.@.$.#.o.O.[ p +       o                               o                           .     % H n n g n 8 1 t y y 4 * ",
"; a B F I | ;.*.#.[ ' ) P H Z O X                                                         . .     . @ z y g 8 t 8 , 3 t y r 4 > ",
"; q x F F V F P E E N g M l s x l $ . O     .                                   O . . . . . . . . @ C f y 5 t 8 1 : , t y r 4 > ",
"; s v Z M z h Z D A A A n w q a x G H l & . X   . X X   X . .   .   . . . . . . D U U U U U U R R A B j g m m n e , , t d r 5 , ",
"; s Z B k B Z Z H S B z y 6 i h c v F Z c F E H H H H Y G H H U H H H H H U R K z z j j j n M M Z Z B B m m m m 8 , 1 e t y 5 @ ",
"; i l l h m c l j f r 0 5 6 6 p w w y y y k c z Z M z z z z C j z z z z M C C M g r 9 5 7 9 r r t g M g g g g u 8 : 1 r f r , * ",
"; = w y w 4 4 6 6 6 7 7 7 7 q 6 4 0 w y w 0 r w 7 5 w 0 Z z z r 0 w r r r d r 9 r 7 3 2 5 9 9 9 5 r y u r r r r e , 5 y g w > > ",
"; 6 w y 5 2 4 6 6 5 8 , 5 5 5 6 < : > 1 4 5 5 5 7 2 5 5 z % . . 3 , 3 5 5 3 5 3 5 3 , , 3 3 8 3 5 5 5 3 5 5 5 5 5 > < 0 y w > , ",
"+ q q 0 5 5 6 q 7 5 8 8 5 8 7 6 0 0 0 1 5 5 5 5 5 5 * 4 w *   X 5 8 8 , 5 8 9 9 8 7 5 9 8 8 5 8 8 5 8 8 5 5 5 5 4 < 4 0 5 r > % ",
"X z < < 1 5 w w w r e e 9 t 9 d 0 0 r r r r r y r 7 2 7 w y 7 4 7 8 8 5 5 8 9 9 r r r r r 9 9 r t 9 9 t y r r w r w 0 < = < < 0 ",
"X B < : : 5 4 6 4 4 8 , , 3 3 3 5 4 4 > 1 5 < 5 4 * < < 2 = 4 < 5 1 5 3 3 3 3 8 3 2 2 5 3 3 3 5 3 , 5 3 < 4 4 < 0 4 < < * * y P "
};
