/* XPM */
static char *_a57d07a0ab94b9b9e6f514e07eab48cD071NVMni9W8Okma[] = {
/* columns rows colors chars-per-pixel */
"64 64 190 2 ",
"   c #2E3B4E",
".  c #303D4A",
"X  c #353D54",
"o  c #383E58",
"O  c #3A3C51",
"+  c #274344",
"@  c #30424C",
"#  c #295544",
"$  c #3C504F",
"%  c #344050",
"&  c #3C4355",
"*  c #384857",
"=  c #3D4A5A",
"-  c #384A57",
";  c #3A5657",
":  c #3E5C5C",
">  c #3A6453",
",  c #3F675C",
"<  c #3B7253",
"1  c #414956",
"2  c #434B5E",
"3  c #43555F",
"4  c #455A5D",
"5  c #485C5B",
"6  c #406055",
"7  c #44625B",
"8  c #48615E",
"9  c #496F5A",
"0  c #485F65",
"q  c #496263",
"w  c #506C6D",
"e  c #4F7B64",
"r  c #59756C",
"t  c #56786D",
"y  c #557572",
"u  c #5A7671",
"i  c #5D7C73",
"p  c #3F8457",
"a  c #478C5D",
"s  c #49925B",
"d  c #4CAE47",
"f  c #4DAF4E",
"g  c #51AE4E",
"h  c #4EB147",
"j  c #47B34C",
"k  c #4BB14E",
"l  c #50B04F",
"z  c #47AE53",
"x  c #4DAF52",
"c  c #4EAD5A",
"v  c #52A756",
"b  c #51AD55",
"n  c #53A759",
"m  c #5AA75F",
"M  c #54AC5B",
"N  c #59AC5D",
"B  c #47B255",
"V  c #4CB050",
"C  c #4CB059",
"Z  c #51B153",
"A  c #52B159",
"S  c #5AB15E",
"D  c #558B66",
"F  c #56836A",
"G  c #58826E",
"H  c #568D6C",
"J  c #5C8D6D",
"K  c #549F66",
"L  c #59926A",
"P  c #5C9D6C",
"I  c #5D8673",
"U  c #5D8C72",
"Y  c #609E6F",
"T  c #628675",
"R  c #618B70",
"E  c #618D7A",
"W  c #699177",
"Q  c #659C74",
"!  c #69977D",
"~  c #699C7C",
"^  c #639C7C",
"/  c #57A763",
"(  c #54A962",
")  c #5BAE63",
"_  c #55AB69",
"`  c #5DAB6B",
"'  c #5CA567",
"]  c #5DB265",
"[  c #5FB864",
"{  c #5FB169",
"}  c #54B063",
"|  c #5FAB71",
" . c #62AF67",
".. c #64A66D",
"X. c #62AB6B",
"o. c #60B067",
"O. c #62B965",
"+. c #61B26C",
"@. c #6CB46F",
"#. c #65BD6A",
"$. c #64A673",
"%. c #6BA076",
"&. c #65AC72",
"*. c #69A977",
"=. c #66A27D",
"-. c #6AA67D",
";. c #66A97A",
":. c #6AA97D",
">. c #72AE7A",
",. c #62B270",
"<. c #67B573",
"1. c #6CB472",
"2. c #6EBA73",
"3. c #6CB47A",
"4. c #6DB97B",
"5. c #70BC75",
"6. c #72BC7B",
"7. c #75B879",
"8. c #74C179",
"9. c #6D9E81",
"0. c #6DA684",
"q. c #6AA881",
"w. c #72A687",
"e. c #73AB86",
"r. c #74A58A",
"t. c #7AAC8F",
"y. c #74BB84",
"u. c #7BBC84",
"i. c #7AB28C",
"p. c #7CBC8B",
"a. c #75A690",
"s. c #7BA793",
"d. c #7DAD94",
"f. c #76AA93",
"g. c #7DB193",
"h. c #7EBB92",
"j. c #7AC086",
"k. c #82BD8F",
"l. c #81AC96",
"z. c #82AE9A",
"x. c #81B295",
"c. c #82BE92",
"v. c #84B19A",
"b. c #86BB9A",
"n. c #8CBA9E",
"m. c #89ABA3",
"M. c #89A9A5",
"N. c #99BFA6",
"B. c #A4B8B7",
"V. c #A6BFBC",
"C. c #83C28B",
"Z. c #88C38E",
"A. c #86C392",
"S. c #8CC49B",
"D. c #8AC994",
"F. c #91C49E",
"G. c #94CB9B",
"H. c #98CE9C",
"J. c #8FC0A0",
"K. c #92C3A3",
"L. c #9AC6A6",
"P. c #9ACBA7",
"I. c #95C3A9",
"U. c #9BC3AD",
"Y. c #9DCCA9",
"T. c #95C9A2",
"R. c #9AD2A2",
"E. c #9EC4B2",
"W. c #A4C7AF",
"Q. c #A3CCAF",
"!. c #A2D2A7",
"~. c #A8D1AF",
"^. c #A5D3AF",
"/. c #A2C3B3",
"(. c #A5CDB2",
"). c #A9CCB4",
"_. c #A6C3BA",
"`. c #ABC6BC",
"'. c #A4D2B4",
"]. c #AAD2B3",
"[. c #ACD3BA",
"{. c #B2D5BB",
"}. c #B3DCBA",
"|. c #AEC9C0",
" X c #B4C9C0",
".X c #B5D5C3",
"XX c #B9D7C5",
"oX c #BAD8C6",
"OX c #B9D4CA",
"+X c #BED9C8",
/* pixels */
"k k k k b k b x V V f k V k g f k k k V k k V V V V V V V V V k k k k k k k k k k k k k k V k k k k k k k k k k k k k V k k k V ",
"k k k k g k x b b b C x x f l Z k V k k V V k x V V V V V V k z k k k k V k V k k k k k k k k k k V k k k k k V k k k k k k k k ",
"f k k k k g x b M ( ( ( M c x k V V V B z V x x k x V V V V k f V V V V V V V V V V V k V V V V V V V V V V V V V V V V V V V V ",
"x Z f d l d g b / s p a K ( x f x x x x V x x B V V V V k b k k V V V V V V V V V V V k V V V V V V V V V V k V V V V V V V V V ",
"c c x b g f b m P < # > D ' M V x c B x x x V z x f g V g k g k V V x x V x V b b V C b V V V x V Z V x x Z x x b V V V V x x b ",
"c c x x V g b / L > + ; G Y M x x B x x C V x z f x k b k g k g b b x x Z x x V V x b k b b x x V x x x x x Z x V V b b V Z V V ",
"B B B j k k V / L > @ 3 i Q m f x x x z V V V V V V V k b f Z x V V B x x V V x V x V x V V x V x x C x x x z x x V z V x x x C ",
"j j j k j k x / H , . 2 u ~ ) V V V V V V k V k V V V V k x f V x V x V x V x V x V z V x V x z x V x k x k V V x V x k x V x k ",
"h k l f k C c X.D 5 . & r ~ X.A x k k k k k k k j k V V V x x V V k V k V k V V V k z k V k V k V j V j V V V k V V f k V j V V ",
"h d g f x b b X.L 9 1 5 T e.,.c V x f k k k k k k k V V V V C z V k k k k k k k j k k k k k k k V V V V V j V V V k k k V V V k ",
"g g b x b b b { X.Q R W -.<.} z f d f f k V k k B k V V V B x c B V V V V f f z V f f V V V V B V V V V V V V V V k z V V V V k ",
"g b b c M c c ( ) ..>.>.&./ z B x b b b V V k k k f z B x x x x x V V V x V V V z z z j z V x V B V V V V V x x z k x k V V z k ",
"k V C V V C V x b M N / N b k k b b b b b x V C z x V x k x b x x C c x x C x C b x c x x z x x Z C b V b C x x b z b x x x x x ",
"z Z x C C V A A M M M n n N b b ( ( M M M b b b x x x x b g x x x x x x c x x c b x b x x b b x x x x x x x x x x c x x x x x c ",
"} ] M S o.o.#.<.3.4.y.y.p.p.h.p.y.4.<.+.) M M b b Z Z b g b l b b b b A b Z A b b c b x b x M c b c b b A c b b M x c x b c M A ",
"3.6.,.&.3.:.y.i.h.h.h.h.b.b.n.n.j.j.y.4.3.<.,.,.o.o.] } ] } N } ` ] ` { X.{ +.+.+.+.+.,.+.+.` { +.{ ,.+.{ +.{ o.` ) ) ) ) ] ] { ",
"d.f.w.0.w.r.z.s.f.f.w.0.w.w.r.r.0.q.-.~ =.0.q.q.q.-.-.=.;.;.$.;.;.:.-.-.-.-.-.-.-.:.0.-.=.:.;.;.q.q.-.-.-.=.;.*.:.$.$.*.$.' $.$.",
"M.m.z.z.z.z.m.M.M.M.d.d.f.d.l.d.d.s.z.z.v.v.m.z.z.l.d.d.d.g.g.g.g.g.d.d.z.z.v.z.n.v.v.v.v.v.l.v.d.v.v.l.g.g.x.x.x.g.g.t.i.i.e.0.",
"B.`./.N.L.U.`.`.V.V.E.E.E./.E.E.B././._.`.|.`.`._.`._././././.E.E.U.U.E.W.U.W.E.B.U.E.U.U.U.U.U.I.I.I.I.N.N.K.K.F.K.K.S.S.T.S.g.",
"`.+X{.~.~.].{.oXOXOX.X.X[.'.(.(.W.).).{..X.XoXoXoXoX{.{.].].(.^.Y.Y.P.P.P.L.L.L.P.P.L.T.T.F.F.F.S.S.S.c.c.k.c.k.Z.A.A.A.A.G.D.p.",
"].}.!.G.G.H.!.^.[.[.'.'.R.P.T.G.D.G.H.R.R.R.G.G.G.S.D.Z.C.k.u.u.8.5.2.5.2.5.2.5.1.@.@.@.+.+. .o.} S N M m M M N M b S M S [ O.S ",
"Z.Z.7.1.@.7.7.k.C.A.D.D.D.C.C.j.8.8.8.8.5.2.1.,.+.o. . .N ) N M b Z A Z b b M v M M b g b b b g Z V V V V V l k V f f k k k V k ",
"M N b v M M N m o.O.[ 8.8.S N N b c x x c b b M c C V C V C B x V b x b x b b b x b b b b x x V g x x V V f f f Z V f Z k f Z k ",
"V V f f b x Z b Z V k k l l g f V V V k C V B V V V V V V k k V V k z x x x x x x x x k x V B V f V g V Z x b k Z k l Z b x g Z ",
"j j j k k f x b b b b b b g Z f V V b V x x b V V V x V V V V k V j V B k f V V x V k V V j V k k k k k k k k k V V V V x b k g ",
"V j j k k k b b M X.&.X./ b f g x x b b x g x g b g b b k g b k k k k k k k k k k k k k j V k k f f k k x k V V V V x V x V b V ",
"b f k k j k b m *.~ ~ ! -.$.( x b k k k Z f f f f l k f k f k g V V V V V V k k k k V V z V V k b k x b b k x b x x x V x x x V ",
"b b l k j V b ` ~ t q w E =._ x k b f g f x l b x f x l b V g k V x x k x f f f f f f x x f b k b k x k b k V z V x x x x x V x ",
"M b V k j j M $.I 4 X = y ^ _ C x V x x V x x B x V V b V V x b V k f k k k f k k f k k k f k k k k k k V k V V V V k z V V V V ",
"c b k k j B M $.I 0 X & y 9._ C x x C V x x V z x x z V x x C V V V V k k f f k f k k f k k x V k k f k k k k k k k k j V j k B ",
"x k k k j f M &.I 5 O 1 r ~ m f V V V V k V V V V V V V V V V V x x z V V V k k V V V V x V x V k k b k k V V V V V V V V V k z ",
"z f k k k d M $.I 5 & 1 r Q N k V k k k k k k k k k k k V k k V x x B V V V V x V V V x B V x k b b V f z V V V V V V V V V V k ",
"B V x k l v M ..J 8 & 1 u Q A V V V k V Z V V V k V k x V V V k V V V V V V V V V V V V V V V V V V V V V x k V k x V V V V V V ",
"V V b g l g M ..R 7 % = y ~ M k x V V V f V V V b V V V V V V x V V V V V V V k V V V V V V V V x k V V V V V V V V V V V V x V ",
"V V k h k l M X.R 8 & 2 i Q b k k V k x V V V V k k V V V V V V V V V V V V V V x k V V k k V V V V V V V V V V k V k V V V k V ",
"k k k h k k M ` U q & 2 u Q b h k k V V V V V k V V V V V V V V V V V V V V V V V V V V b k V V V V V V V V V V x V V V V V V V ",
"V k k k j V c | E q o 2 u Q M k f V V V x V V V V V V V V V V V V V V V V V V V V V V V V V V V V V V V V V V V V V V V V V V k ",
"V C k k V V ( | U :   * t Q M k k V x V k V k x V V V V k V V V V V V V x k V V V V V V x V V V f V V V V V V V V V V V V V k b ",
"x C x k B B c | H , - : F P c k V V V V V V k x V V V V x V x k V V V f V V V V V k V x k V V V V V V V V k f V V V x k V V k V ",
"f V x k V x c _ | D e F Q ' b V k V V V V V V V V V V V k V V V V V V V V V V V x k V k V V V V V V V V V Z V V V V V V V V V V ",
"f k k g k f b M m X..... .v x k k x V V V k V V V V V l V V V V V V V V V V V V V V k b V V V V V V V V x k V V V V V V V V V V ",
"k k k k g l g g v b N N v v k k V V V V V x V V V V V V V V V V V V k Z V V V V V V k k V f V V V V V V V V V V f V V V V V k Z ",
"V V V x f l g h d f g f d x k V V k x k V V V V x k V V V V x V V V f V x k V V V V V V Z k V V V V V V V k V V V V V V V V f V ",
"V V x x b b g d h k k k k V V B V V V V V V V V V V V V V V k V V V V V V V V V V V V V V V V V x V k V V x V V V V V V V V V V ",
"B c x x x b x V k k k k B V C V x V V V V V x k V V V V k V k V V V V V k x V V V x V V V V V V k V V V V V V V V V V V V V V V ",
"x x x B V B B V C V k k k f x z V V V k V V V V V V V V x V x V V V V k k V V V V k V V f V V V V V V V V V Z f V V V V V V V V ",
"x f k j k B V C x x k f f f f k V V V V V x V V V V V V V V V V V V V x x k V V V V V V V V V V x k V V V k V V V V V V V V V V ",
"g l k k j j k V z x z f f k k l V V x k V k V V k x V V V k V V V V V V V V V V V V V V V V V V V V V V V x k V V V V V V f V V ",
"k k f k k V V V x x V V V k x k b k k V V V k V V V V V k V V V V V V k V x V V V V V V V V V x V V V k V V k k x V V V V V V V ",
"V V V V k k V V V k V V V V x V k V V V V V x V V V V V x V V V V V V x V k V V V V V V V k V k k x V V V V x V k V V V V V V V ",
"V V V V V b V V V V V V V V k V V V x V V V V V V x k x V V V V V V V V k x V V V x V V x k V V V V V V V V V V V k V V V V x k ",
"V V V V V V V V V V V V V V V V V V k V V V V V V k V V V V V V f Z V V k V V V V k V V V V x k V V k x V V V V V x V V V V V V ",
"V V V V k V V V V V V V V V V V V V V V V k x k k V V Z f V V V V V V k k V V V V V V V V V V V V V V V V V V V V V V V V V k b ",
"V V x k V V V V V V V k V V V V V V V V V V V V V V V V V V V V V V V x x V V V V V V V V V V V V V k x Z V V k V V V k V V k k ",
"V V k V V V V V V V V x V V k x V V V k V V x V V V x V V x V V V V V k V V V V V V V k V V k x V V V V f V V x V V V x V V V V ",
"V V x V x k V V V V V V k x k V V V V x V V k V V V k V V k k V V V V V V V V V V k k b V V V V V V V V k V V V V V V V V V V V ",
"V V V V V V k V V V V V k V k x V V V V V V V V V k x k V V V k V V V V V V V V V V V V Z f V V V V V V V x V V V V x k V V V V ",
"V V V V V V V V V V V V x V V V V V V l V V V V V V V V V V V x V V V V V V V f V V V V x k V V V V V V V k V V k V V V V V V V ",
"V V V V x k k x x V V V V V k V V V x V V V V V V V V V V V V V V V V V V V V V V V V k k V V V V V V V k V V V x k x k V f V V ",
"k x V V V V V V k V V V V V V V V V k V x k V V V V V V f Z V k x k V V V V V V V V V x V V V V x k f Z V V V V V V V V V Z V V ",
"V V V V V V V x V V V V x V V V V V V V k V k V V V V x V V k V V V V V V V V V k V V V V V V k V x V k V V V V V V V V k V k V ",
"V V k V V V V k V V V V k V V V V V V V x V x V V V V k x k x V V V V V V V V V V V V V V V V x k V V V V V V V V V V V x V V V ",
"V V b k V V k x V V V V V k Z f V V k V V V V V V V V V V V V V V V V V b k V V k x k V V V V V V V V V V V V f V V V V V V V V ",
"V V V k V V V V V V k V x V V V V V V x V k V V V V V V V V V V V V V k k V V V V V x V V V V V V V V V V V V V V V V k x V V V "
};
