/* XPM */
static char *result[] = {
/* columns rows colors chars-per-pixel */
"64 64 135 2 ",
"   c #362E3F",
".  c #3E2F3F",
"X  c #36313F",
"o  c #3D313F",
"O  c #402F3E",
"+  c #44323E",
"@  c #4C333D",
"#  c #4C393B",
"$  c #54333C",
"%  c #5B343B",
"&  c #5C3A3A",
"*  c #62353B",
"=  c #6B3739",
"-  c #6B3839",
";  c #7E3B37",
":  c #713739",
">  c #733938",
",  c #5E4038",
"<  c #664237",
"1  c #6C4436",
"2  c #634138",
"3  c #754735",
"4  c #1F2943",
"5  c #242B43",
"6  c #2B2B41",
"7  c #332D40",
"8  c #3B2C40",
"9  c #7E646A",
"0  c #7B6B6F",
"q  c #6C6979",
"w  c #746571",
"e  c #7F7270",
"r  c #843C36",
"t  c #8B3D36",
"y  c #933F35",
"u  c #844635",
"i  c #864E33",
"p  c #884E32",
"a  c #954134",
"s  c #9C4133",
"d  c #8D5131",
"f  c #935230",
"g  c #BD462F",
"h  c #BF482F",
"j  c #A0572E",
"k  c #AD552E",
"l  c #A5592E",
"z  c #AA5A2D",
"x  c #B45E2B",
"c  c #A34232",
"v  c #AC4431",
"b  c #AC4E3F",
"n  c #B44530",
"m  c #BA4630",
"M  c #B74A35",
"N  c #B94933",
"B  c #B24C3A",
"V  c #F36C1F",
"C  c #F7731F",
"Z  c #FB741D",
"A  c #FF791F",
"S  c #C64327",
"D  c #C3452B",
"F  c #C4492E",
"G  c #CA4D2A",
"H  c #CA512C",
"J  c #D65626",
"K  c #D85525",
"L  c #DA5D27",
"P  c #D1562A",
"I  c #D55929",
"U  c #DA5D28",
"Y  c #C05033",
"T  c #CA5A31",
"R  c #CE6627",
"E  c #C66428",
"W  c #C96528",
"Q  c #D06727",
"!  c #DF6327",
"~  c #D36927",
"^  c #DB6C25",
"/  c #D9662D",
"(  c #E36425",
")  c #E46D24",
"_  c #EC6D23",
"`  c #E46F2A",
"'  c #F16E22",
"]  c #EE7223",
"[  c #EF7827",
"{  c #ED7728",
"}  c #F57421",
"|  c #FA7620",
" . c #FC7820",
".. c #9D544C",
"X. c #8F5B5A",
"o. c #985751",
"O. c #A74F44",
"+. c #A35449",
"@. c #A55B4B",
"#. c #AD644A",
"$. c #B96E47",
"%. c #885D60",
"&. c #89796D",
"*. c #917F6B",
"=. c #C37544",
"-. c #CB7C42",
";. c #978369",
":. c #988369",
">. c #3C7DA4",
",. c #5F6F86",
"<. c #57728C",
"1. c #427B9F",
"2. c #4A7998",
"3. c #3382AB",
"4. c #2B85B4",
"5. c #2788B7",
"6. c #2B8CB7",
"7. c #258BBB",
"8. c #298BB8",
"9. c #2F90B7",
"0. c #2C92BA",
"q. c #4C879E",
"w. c #558D9B",
"e. c #588B98",
"r. c #4683A0",
"t. c #1D8AC2",
"y. c #1394CE",
"u. c #1991C8",
"i. c #0E92D3",
"p. c #0E98D6",
"a. c #1096D3",
"s. c #208DC0",
"d. c #0499E1",
"f. c #009CE9",
"g. c None",
/* pixels */
"g.g.g.g.g.g.g.g.g.g.g.g.g.g.g.g.g.g.g.g.5 5 5 5 5 5 5 5 5 5 5 5 5 5 5 5 5 5 5 5 5 5 5 5 g.g.g.g.g.g.g.g.g.g.g.g.g.g.g.g.g.g.g.g.",
"g.g.g.g.g.g.g.g.g.g.g.g.g.g.g.g.g.g.g.g.6 5 5 5 5 5 5 5 6 5 5 5 6 5 5 5 5 5 5 5 5 5 5 5 g.g.g.g.g.g.g.g.g.g.g.g.g.g.g.g.g.g.g.g.",
"g.g.g.g.g.g.g.g.g.g.g.g.g.g.g.g.g.g.g.g.6 5 5 5 5 5 5 6 5 5 5 5 5 5 5 5 5 5 7 5 5 5 5 5 g.g.g.g.g.g.g.g.g.g.g.g.g.g.g.g.g.g.g.g.",
"g.g.g.g.g.g.g.g.g.g.g.g.g.g.g.g.g.g.g.5 5 5 5 5 5 5 5 5 5 5 5 6 5 5 5 5 5 5 5 5 5 5 5 5 5 g.g.g.g.g.g.g.g.g.g.g.g.g.g.g.g.g.g.g.",
"g.g.g.g.g.g.g.g.g.g.g.g.g.g.g.g.g.5 5 5 5 6 5 5 5 5 5 5 5 5 5 5 5 5 5 5 5 5 5 6 5 5 5 5 5 5 7 g.g.g.g.g.g.g.g.g.g.g.g.g.g.g.g.g.",
"g.g.g.g.g.g.g.g.g.g.g.g.g.g.g.g.5 5 5 6 5 5 5 5 6 5 6 5 5 5 5 5 5 5 5 5 5 5 5 5 5 5 5 5 5 5 5 5 g.g.g.g.g.g.g.g.g.g.g.g.g.g.g.g.",
"g.g.g.g.g.g.g.g.g.g.g.g.g.g.g.g.5 5 5 5 5 6 5 5 5 5 5 5 5 5 5 5 5 5 5 5 5 5 5 5 5 5 5 5 5 5 5 5 g.g.g.g.g.g.g.g.g.g.g.g.g.g.g.g.",
"g.g.g.g.g.g.g.g.g.g.g.g.g.g.g.g.5 5 5 5 5 5 5 6 5 5 5 5 5 6 5 5 X 5 5 5 5 6 5 5 5 5 7 5 5 5 5 5 g.g.g.g.g.g.g.g.g.g.g.g.g.g.g.g.",
"g.g.g.g.g.g.g.g.g.g.g.g.g.g.g.g.5 5 5 5 5 5 5 5 5 5 5 5 5 5 5 5 5 5 5 5 5 5 5 5 5 5 5 5 5 5 5 5 g.g.g.g.g.g.g.g.g.g.g.g.g.g.g.g.",
"g.g.g.g.g.g.g.g.g.g.g.g.g.g.g.g.5 5 5 5 5 5 5 5 5 5 5 5 5 5 5 5 5 5 5 5 5 5 5 5 5 5 5 5 5 5 5 5 g.g.g.g.g.g.g.g.g.g.g.g.g.g.g.g.",
"g.g.g.g.g.g.g.g.g.g.g.g.g.g.g.g.5 5 5 5 5 5 5 5 5 5 5 5 5 6 5 5 5 5 5 5 5 5 5 5 5 5 5 5 5 5 5 5 g.g.g.g.g.g.g.g.g.g.g.g.g.g.g.g.",
"g.g.g.g.g.g.g.g.g.g.g.g.g.g.g.g.5 5 5 5 5 6 5 5 5 5 5 5 5 5 5 5 5 5 5 5 5 5 5 5 5 5 5 5 5 5 5 5 g.g.g.g.g.g.g.g.g.g.g.g.g.g.g.g.",
"g.g.g.g.g.g.g.g.g.g.g.g.g.g.g.g.5 5 5 5 5 5 5 5 5 5 5 6 5 5 5 5 5 5 5 5 5 5 5 5 5 5 5 5 5 5 5 5 g.g.g.g.g.g.g.g.g.g.g.g.g.g.g.g.",
"g.g.g.g.g.g.g.g.g.g.g.g.g.g.g.g.6 5 5 5 5 5 5 5 5 5 5 5 5 5 5 5 5 5 5 5 5 5 5 5 5 5 5 5 5 5 5 5 g.g.g.g.g.g.g.g.g.g.g.g.g.g.g.g.",
"g.g.g.g.g.g.g.g.g.g.g.g.g.g.g.g.8 6 5 5 4 5 5 5 4 5 5 5 4 5 5 5 5 5 5 5 5 5 5 4 5 5 5 5 5 5 5 7 g.g.g.g.g.g.g.g.g.g.g.g.g.g.g.g.",
"g.g.g.g.g.g.g.g.g.g.g.g.g.g.g.* 8 6 5 4 4 4 4 4 5 4 5 5 5 4 4 4 5 5 5 5 4 4 4 4 5 5 5 5 4 5 7 o 2 g.g.g.g.g.g.g.g.g.g.g.g.g.g.g.",
"g.g.g.g.g.g.g.g.g.g.g.g.g.n y ; $   5 4 4 4 4 5 5 4 4 5 4 4 5 4 4 4 4 5 4 4 4 5 4 4 4 4 5 5 7 $ ; y m g.g.g.g.g.g.g.g.g.g.g.g.g.",
"g.g.g.g.g.g.g.g.g.g.g.g.F m y r $ .   5 4 5 5   6 6 6 5 5 6 6 6 6 6 6 6 6 6 6 6 6 6 5 5 5 6 8 % X.y m F g.g.g.g.g.g.g.g.g.g.g.g.",
"g.g.g.g.g.g.g.g.g.g.g.g.F n c r % . 6 5       . O O O . . . . O . . O 8 . . O O . .     5 6 8 % r c N F g.g.g.g.g.g.g.g.g.g.g.g.",
"g.g.g.g.g.g.g.g.g.g.g.g.F m c r % O 7 7 . $ % % % * * % % * % % % % % * % % % % % % @ + 7 7 8 % r c m F g.g.g.g.g.g.g.g.g.g.g.g.",
"g.g.g.g.g.g.g.g.g.g.g.g.F m c r % O   . % : r t t t r r t r r t r t r t r t t t t r : % 8 8 8 % r c n F g.g.g.g.g.g.g.g.g.g.g.g.",
"g.g.g.g.g.g.g.g.g.g.g.g.F n c r % + O $ : t c c c c c c c c c c c c c c c c c c c c t > $ O + * r c m F g.g.g.g.g.g.g.g.g.g.g.g.",
"g.g.g.g.g.g.g.g.g.g.g.g.F m v t = % % = t c v n v v v v v n m m m g n v v c c v n n c t = % $ = t v m F g.g.g.g.g.g.g.g.g.g.g.g.",
"g.g.g.g.g.g.g.g.g.g.g.g.F m v a r : : t y v n v c y y y v m F F F g g v s s y s v n v s r : > r y v m D g.g.g.g.g.g.g.g.g.g.g.g.",
"g.g.g.g.g.g.g.g.g.g.g.g.F m n v y y y y v n v y t > > r y n F F F g n y r > > r y n n v y y y y v n m F g.g.g.g.g.g.g.g.g.g.g.g.",
"g.g.g.g.g.g.g.g.g.g.g.g.m F m n n v v n N n v t = % % = t v m F F g v t = % $ = y c m m n n v v n m m m g.g.g.g.g.g.g.g.g.g.g.g.",
"g.g.g.g.g.g.g.g.g.g.g.g.m m m m g g g F D n c r % O O % r c m F F m v r % + O % r c n F m D N m m m m F g.g.g.g.g.g.g.g.g.g.g.g.",
"g.g.g.g.g.g.g.g.g.g.g.g.g.m D D D F F F F N c ; $ . . $ r c m F F m c ; $ . . $ ; c N F F F F F D D m g.g.g.g.g.g.g.g.g.g.g.g.g.",
"g.g.g.g.g.g.g.g.g.g.g.g.g.g.g.F D F F F F m c r $ . 8 $ ; c m F F m c r $ O . $ ; s m F F F F F F g.g.g.g.g.g.g.g.g.g.g.g.g.g.g.",
"g.g.g.g.g.g.g.g.g.g.g.g.g.g.g.g.m m D m D m c r % O + % r c m F F m c r % O + % r c m D F m m N g.g.g.g.g.g.g.g.g.g.g.g.g.g.g.g.",
"g.g.g.g.g.g.g.g.g.g.g.g.g.g.g.g.v v v n N n v y = % % = t v g F F g c t = $ % = y v n m n v v v g.g.g.g.g.g.g.g.g.g.g.g.g.g.g.g.",
"g.g.g.g.g.g.g.g.g.g.g.g.g.g.g.k a a a a v n v y r > > r a v m F F g n y r > > r s v n v s y a a k g.g.g.g.g.g.g.g.g.g.g.g.g.g.g.",
"g.g.g.g.g.g.g.g.g.g.g.g.g.] Q k u > : r y n n v c a y a v n g F F m n v a y y c n n v y r : > u z R ] g.g.g.g.g.g.g.g.g.g.g.g.g.",
"g.g.g.g.g.g.g.g.g.g.g.g. .] Q z 3 % % * y y n n v c v v n n g g g g m n v v c v n n c t = % % 3 z R ] A g.g.g.g.g.g.g.g.g.g.g.g.",
"g.g.g.g.g.g.g.g.g.g.g.g.A ] Q l 3 # O $ : t y v c c c v n g g F F g g n v c c c c y t : @ O @ 3 l Q ] A g.g.g.g.g.g.g.g.g.g.g.g.",
"g.g.g.g.g.g.g.g.g.g.g. .A ] Q l 1 + 7   % : ; t r t y c v n F F F g n v c y t r r r = $     + 1 l Q ] A  .g.g.g.g.g.g.g.g.g.g.g.",
"g.g.g.g.g.g.g.g.g.|  . . .} R l 1 o 6 6 X @ $ % % * : r c n D F F F n c r = * % % $ @ . 4 X o 1 l Q ] Z  . .| g.g.g.g.g.g.g.g.g.",
"g.g.g.g.g.g.g.g.} } | |  .] ~ z 3 # X 6 X o O O . O $ = t c n g m n c t = $ + . + o     X X , 3 z ~ ] | | | } } g.g.g.g.g.g.g.g.",
"g.g.g.g.g.g.g.g._ _ ' } } _ ~ x i < # + + # + o 7 7 . $ : t c v v c t > $ 8 7 7 o + + # X # < p x ^ ] } } ' ' _ g.g.g.g.g.g.g.g.",
"g.g.g.g.g.g.g.g.( ( ( _ } } ^ E l i 3 3 1 1 , # X 6 7 . % = ; r r ; = % + 7 6 X # , < 1 1 3 p j W ) ] } _ ( ( ( g.g.g.g.g.g.g.g.",
"g.g.g.g.g.g.g.g.P U U ( _ _ ] ^ E x z z z j d 1 # X X 4   @ $ $ $ $ $ O 6 6 X # 3 d j z z z x W ^ _ ] _ ( ! I P g.g.g.g.g.g.g.g.",
"g.g.g.g.g.g.g.g.F H H U ) _ ] ] ) ^ ~ ^ ^ W x f < + X X   . + + + O 8 8 6 7 + < f x R ~ ~ ^ ^ ) { ] _ ( U H H F g.g.g.g.g.g.g.g.",
"g.g.g.g.g.g.g.g.g F H I ( _ } } } ] ] } [ ] ~ x i , # + + @ @ # # # @ + + # * i x ~ ] [ ] ] [ } } } _ ( P H F m g.g.g.g.g.g.g.g.",
"g.g.g.g.g.g.g.g.m F Y P ! _ } | A | A A Z | ) W z p 3 1 1 1 1 1 1 1 1 1 1 3 d l W ) C A A A A | | } ] ( P F F m g.g.g.g.g.g.g.g.",
"g.g.g.g.g.g.g.g.m m G P ( _ } A A A  . .A | ] ^ E x z l l l l l l l l l l z x E ^ ]  . . .C  . .| } ] ( P F F m g.g.g.g.g.g.g.g.",
"g.g.g.g.g.g.g.g.m F F P ! ) } } C [ | | C C } ] ) ^ ~ ~ ~ Q Q Q Q Q Q Q ~ ~ ^ ^ ] C C C |  .| C | ] _ ! P H m m g.g.g.g.g.g.g.g.",
"g.g.g.g.g.g.g.g.m F G H U ( _ } } } | C C } } } [ ] ] ] ] [ ] ] ] ] ] ] } } ] } [ C C A [ | [ } } _ ( U H F D m g.g.g.g.g.g.g.g.",
"g.g.g.g.g.g.g.g.m m F H P ! ( _ ] [ C C [ | } | C A A C A A | A  . .Z  . . .| | C C C [ C C C ] ) ( ! P H F Y m g.g.g.g.g.g.g.g.",
"g.g.g.g.g.g.g.g.m F F F H P I ( ( ' C } | } | | | A | | C A | | C  .C A C | A C | | | | } } V _ ( I P G F m F F g.g.g.g.g.g.g.g.",
"g.g.g.g.g.g.g.g.m m m Y F G H / ( ' C Z | } | } } } A } A C | |  . .C C | | | C } } } | C C ' ( U P G F F F m m g.g.g.g.g.g.g.g.",
"g.g.g.g.g.g.g.g.D m m D g F G J ( V | Z A Z } Z C Z C C C C C C C C C A C A C C C A Z Z Z C V ( J G F m D N m D g.g.g.g.g.g.g.g.",
"g.g.g.g.g.g.g.g.N F D m g F G K ( ' Z Z Z Z Z Z A Z Z Z Z Z A C Z A Z C A C A C Z C Z Z Z C V ( J G F g m m D m g.g.g.g.g.g.g.g.",
"g.g.g.g.g.g.g.g.m F g g g F G K ( ' Z Z Z Z Z Z Z Z Z Z Z Z | A A Z Z Z  . . .A Z Z Z Z Z Z V ( K G F g D m F m g.g.g.g.g.g.g.g.",
"g.g.g.g.g.g.g.g.g m m N m m Y H / ` ] [ } [ [ { { [ { { [ [ { { { { { { { { { { { { [ [ { { ` / T Y N N m m m m g.g.g.g.g.g.g.g.",
"g.g.g.g.g.g.g.g.F m N B O.+.@.#.$.=.-.-.-.-.-.-.-.-.-.-./ -.-.-.-.~ -.-.-.-.-.-.-.-./ -.-.-.=.$.#.@.+.O.B N m F g.g.g.g.g.g.g.g.",
"g.g.g.g.g.g.g.g.g.N O...%.9 0 e &.;.;.;.;.;.:.:.;.;.;.;.;.;.;.;.;.:.:.;.;.;.;.;.;.;.;.;.;.;.*.&.e 0 9 %...O.N g.g.g.g.g.g.g.g.g.",
"g.g.g.g.g.g.g.g.g.g.g.w <.2.r.r.q.w.w.w.w.w.w.w.w.w.w.w.e.e.e.e.w.w.e.e.w.e.w.w.w.w.w.w.w.w.w.q.r.1.2.<.q g.g.g.g.g.g.g.g.g.g.g.",
"g.g.g.g.g.g.g.g.g.g.g.g.3.4.8.8.8.6.6.6.9.9.9.6.9.9.9.6.0.0.0.0.0.0.0.0.0.0.9.9.9.6.9.9.9.9.6.8.8.6.4.3.g.g.g.g.g.g.g.g.g.g.g.g.",
"g.g.g.g.g.g.g.g.g.g.g.g.4.5.5.5.5.5.5.5.8.8.8.5.6.8.7.s.u.a.a.p.p.p.y.u.s.7.0.6.5.5.6.5.6.5.5.5.5.5.6.4.g.g.g.g.g.g.g.g.g.g.g.g.",
"g.g.g.g.g.g.g.g.g.g.g.g.1.1.1.1.1.1.1.1.1.1.1.1.1.1.>.4.s.a.d.f.f.f.a.t.4.>.1.1.1.1.1.1.1.1.1.1.1.1.1.1.g.g.g.g.g.g.g.g.g.g.g.g.",
"g.g.g.g.g.g.g.g.g.g.g.g.w w w w w w w w w w w w w w q ,.1.g.g.g.g.g.g.1.,.q w w w w w w w w w w w w w w g.g.g.g.g.g.g.g.g.g.g.g.",
"g.g.g.g.g.g.g.g.g.g.g.g.............................o.X.g.g.g.g.g.g.g.g.X.o...........................@.g.g.g.g.g.g.g.g.g.g.g.g.",
"g.g.g.g.g.g.g.g.g.g.g.g.M M N N M N N M n N M N N M M B g.g.g.g.g.g.g.g.B M M n M M M M N M M M M M N M g.g.g.g.g.g.g.g.g.g.g.g.",
"g.g.g.g.g.g.g.g.g.g.g.g.S S S S F S S S S S D S S S S S g.g.g.g.g.g.g.g.S S D S S S S S S S S S S S S S g.g.g.g.g.g.g.g.g.g.g.g."
};
