/* XPM */
static char *_1395406042b4da9c7f9b1b316b329ffMkCoacy3XqmoJz03[] = {
/* columns rows colors chars-per-pixel */
"64 64 256 2 ",
"   c #1E1C1A",
".  c #1C1A15",
"X  c #241D1B",
"o  c #1D271C",
"O  c #23221C",
"+  c #252A1D",
"@  c #2A2A1E",
"#  c #2B241A",
"$  c #342A1B",
"%  c #32321D",
"&  c #1D2B29",
"*  c #1A332A",
"=  c #1B2C37",
"-  c #1D3737",
";  c #262523",
":  c #2B2624",
">  c #252B24",
",  c #2A2925",
"<  c #2C262A",
"1  c #262A2B",
"2  c #2A292A",
"3  c #26262A",
"4  c #312624",
"5  c #312A24",
"6  c #31262A",
"7  c #332B2A",
"8  c #3A2B26",
"9  c #2A3229",
"0  c #37352B",
"q  c #272A34",
"w  c #322E32",
"e  c #283537",
"r  c #333334",
"t  c #393839",
"y  c #221E22",
"u  c #4A3928",
"i  c #443937",
"p  c #52382D",
"a  c #58331B",
"s  c #6F4116",
"d  c #46433A",
"f  c #594937",
"g  c #5D462C",
"h  c #68472B",
"j  c #674A38",
"k  c #725233",
"l  c #7E613F",
"z  c #1A3849",
"x  c #103553",
"c  c #393846",
"v  c #293857",
"b  c #2F3550",
"n  c #0F3B64",
"m  c #30366D",
"M  c #2E1D64",
"N  c #483B46",
"B  c #473959",
"V  c #4E1774",
"C  c #512D6E",
"Z  c #632E76",
"A  c #1A4C4C",
"S  c #284549",
"D  c #364449",
"F  c #374957",
"G  c #2E515A",
"H  c #144C73",
"J  c #374967",
"K  c #2A546B",
"L  c #385A67",
"P  c #274876",
"I  c #2B5579",
"U  c #314C72",
"Y  c #1C6771",
"T  c #26667A",
"R  c #396679",
"E  c #336A6C",
"W  c #474748",
"Q  c #564948",
"!  c #5A544B",
"~  c #4B4955",
"^  c #554955",
"/  c #485759",
"(  c #595656",
")  c #4B544F",
"_  c #675549",
"`  c #755A47",
"'  c #645958",
"]  c #6A4E4D",
"[  c #726556",
"{  c #485767",
"}  c #595966",
"|  c #4D4C6F",
" . c #675965",
".. c #705763",
"X. c #486469",
"o. c #586867",
"O. c #486777",
"+. c #546576",
"@. c #537574",
"#. c #666569",
"$. c #7A666A",
"%. c #686973",
"&. c #766977",
"*. c #767473",
"=. c #51645E",
"-. c #895833",
";. c #98663A",
":. c #966532",
">. c #AB7037",
",. c #895D48",
"<. c #8D6E4F",
"1. c #AC7546",
"2. c #867272",
"3. c #4E827B",
"4. c #60807D",
"5. c #B18755",
"6. c #B4956E",
"7. c #988672",
"8. c #CB9152",
"9. c #DAA45D",
"0. c #C79A6F",
"q. c #D5A76D",
"w. c #E6AF6D",
"e. c #E0A058",
"r. c #1C3F88",
"t. c #5A0A82",
"y. c #691F92",
"u. c #5B2485",
"i. c #463885",
"p. c #4F3086",
"a. c #692D91",
"s. c #791DA4",
"d. c #7433A8",
"f. c #194889",
"g. c #1A5896",
"h. c #164F92",
"j. c #274A88",
"k. c #275888",
"l. c #375986",
"z. c #335794",
"x. c #176B97",
"c. c #3A658A",
"v. c #2B6695",
"b. c #3E789A",
"n. c #306F8F",
"m. c #1557A9",
"M. c #285CAF",
"N. c #176AA8",
"B. c #1A73AA",
"V. c #096AB9",
"C. c #1767B7",
"Z. c #1776B6",
"A. c #0D73B6",
"S. c #2569A8",
"D. c #3778A6",
"F. c #2676B7",
"G. c #3372B0",
"H. c #55548A",
"J. c #4E4E8C",
"K. c #6E5191",
"L. c #45758A",
"P. c #5D7786",
"I. c #496D95",
"U. c #467798",
"Y. c #506B8C",
"T. c #706F8E",
"R. c #7C43AB",
"E. c #4879A8",
"W. c #5171B1",
"Q. c #7472AA",
"!. c #4A59A8",
"~. c #116DC4",
"^. c #2576C4",
"/. c #527DC6",
"(. c #607BC8",
"). c #877982",
"_. c #907A86",
"`. c #8B57AC",
"'. c #8C6DAF",
"]. c #9C7BC5",
"[. c #853DA9",
"{. c #32859C",
"}. c #3685B9",
"|. c #3089B1",
" X c #2494B7",
".X c #518893",
"XX c #6C8D94",
"oX c #4788B7",
"OX c #5090B0",
"+X c #6F8AB1",
"@X c #71AEB6",
"#X c #46A1B3",
"$X c #1E8CC6",
"%X c #268DC7",
"&X c #3889C4",
"*X c #2896CA",
"=X c #3696C8",
"-X c #2797D2",
";X c #3799D6",
":X c #2E87D7",
">X c #2AA7DC",
",X c #36A8D7",
"<X c #38AACE",
"1X c #2BABE1",
"2X c #33AAE2",
"3X c #4495C9",
"4X c #4A8AD5",
"5X c #5888D8",
"6X c #4996D8",
"7X c #4F8DCA",
"8X c #638ADC",
"9X c #6A92D0",
"0X c #46A4DB",
"qX c #51AACF",
"wX c #77AACB",
"eX c #4D92E5",
"rX c #64A2E5",
"tX c #50CAD4",
"yX c #71C6CD",
"uX c #7AD1F4",
"iX c #57DEE9",
"pX c #36C2E5",
"aX c #96868A",
"sX c #8D8C93",
"dX c #A79395",
"fX c #AEA495",
"gX c #8C91A7",
"hX c #8DACB3",
"jX c #ACAFB4",
"kX c #A795A5",
"lX c #CEA789",
"zX c #C5B9B1",
"xX c #D19187",
"cX c #BBC2BF",
"vX c #C4C3BE",
"bX c #D0C8B3",
"nX c #86B6D6",
"mX c #B7B9C3",
"MX c #A385CB",
"NX c #C7B9C7",
"BX c #8BD0E8",
"VX c #91EAF3",
"CX c #AFF5FD",
"ZX c #A2CCDB",
"AX c #C9C8C9",
"SX c #D2C8CA",
"DX c #D9D6D7",
"FX c #D6D3CD",
"GX c #E2DBD8",
"HX c #E1E1D9",
"JX c #E5DCE2",
"KX c #C8FAFF",
"LX c #E9E6E7",
"PX c #F9F6F9",
"IX c #F2EEF0",
"UX c #DDDEE0",
/* pixels */
", , , , , , , , , , , 3 , , , , , > , @ $ 4 2 2 < , : , 4 # 9 > q & 2 : 4 2 < > > @ , @ > > , , , 2 , , 3 , , , , , , , , , , , ",
", , , , , , , , , , , , , , , , 2 > , , $ : > , < 2 , , 5 , 1 & - & , , : 5 3 2 , , @ @ , , , , , , , , , , , , , , , , , , , , ",
", , 2 , , , , , , , < , , , , < 2 2 , , : , , , : , @ , , 1 = z z 1 > , , , 3 2 > , @ , , , , , , 2 , , , < , , , , , , , , 3 , ",
", , , , 2 , , , , , , , , , , > < 2 < , : , > > , , @ , , = x E z 1 3 , 5 , 3 2 , @ @ , , > , ; , , , , , , , , , , 3 , , , , , ",
"2 , , , , , , , , , , , , > , < < 2 < , , > > > , , + , 1 = H b.z = 1 , , , , 2 , , @ , > ; O X , , , , , , , , , , , , , , , , ",
", , , , ; ; ; , , , , , , < , , , , 2 2 > > 3 2 , , @ + q z H D.A = 2 , , 7 3 3 , , , @ ;   X . 3 , , , 2 , , , , , , , , , , 3 ",
", , 2 , O   o ; 3 , , , 3 , , , , , , 1 1 1 1 2 < : 5 > = z x.x.x = 1 , , , , 1 , , , , X . . X O , , , , , , , , , 3 , , , , , ",
", , 2 ; X .   ; ; , , , , , , , $ @ , , 1 > 2 < 6 : $ 2 = x x.x.x = 1 , , , > , , , , >   . . O ; , , , , , , 2 3 , < , , , , , ",
", , , ; O X O ; , , , , , , , , 5 @ : , , 3 < 4 6 4 5 3 = x x.B.x z & > , , , > , , : , ; ; ; # , , , , 3 , , , ; , , , , , , , ",
", , , , ; ; ; 2 , , , 2 , , , , 5 , : , > , 2 , 6 : : 1 x n x.B.x = 1 2 : , + , , : , , , 3 : , , 3 , , , , < , , , , , 2 , , , ",
", , , , , , , , , , , , , , , , : : : 5 , , , 5 : : 3 = x H N.|.x = q > @ , , , , , : , , 2 5 , , , , , , , , , , , , ; O , , , ",
", , ; , , , , ; , , , , , , , 3 < 6 , @ , > , 5 , w = x n h.B.F.n z 1 2 , , > , , , : , 2 , , , , , , , , , , , , , ; X O 3 , , ",
", 2 , , , , , 3 , , < , , , < 3 < < , , , , 3 3 2 3 = n f.A.A.}.H z q 3 @ : > , , , , , < , , > , , , , , , < , , , ;     ; , , ",
", , 2 , , , , , , , > , , , , , 2 < , @ , , 1 q q z M r.V.A.A.}.P b 1 3 , , > , , 5 : , 3 2 , > , , 3 , , , , > , , , ; O , , , ",
"3 , , , , , , , , , , , , , , , , > @ @ , < q q q n f.g.V.V.V.3XI v q > 5 5 , , , , , , 2 > , , , , , , , , , , , , , , , , , , ",
": 2 , , , 2 , ; : , , , , , , 2 ; , + @ 3 q q z m m r.m.~.~.^.G.J.D q > , @ + , : : : 2 3 , , , , > , , , > , , 2 , 2 , 2 2 , , ",
"< 2 2 < 2 3 , , @ $ , @ 5 2 3 ; . . + > 3 = v j.r.h.m.m.V.V.F.E.H.| < % @ @ , > 7 < , 2 2 2 : 5 3 , > > 1 ; > @ , 2 & > 2 , ; 4 ",
", : 2 , 2 , , , , , @ : , : O   . O o & = G I.z.h.m.m.~.m.V.B.S.U | r > @ 9 > , < < , , 2 , : : ; , 2 1 * 9 * > 2 3 > > > 3 4 5 ",
", @ @ 5 , , > , < < 2 3 , ; o .     & - G U.I.f.m.V.~.~.V.$X-X|.T R L 9 + # > + 3 , @ > > 2 2 , 5 O : e L XXo.9 > + 9 + < 6 4 6 ",
"@ @ @ @ @ , , 2 3 2 1 2 , > o . X y = G b.D.f.h.m.C.~.~.~.:X2X;XqX.XR X./ r , + > > , + , < 2 , , 9 c @.@XZXZX4.e & % + 2 w : 6 ",
"$ $ , , , , : 2 , > 2 , 2 2 3 , < 2 = O.OXv.f.m.C.^.~.^.^.eXeXeX>X0XqX#XO.{ & > < , > @ 5 : 2 2 e @.OXwXuXVXKXZX4.* o > 3 3 , > ",
": , , , < 2 6 : 9 , , , , : < 7 6 w F O.E.j.h.M.C.C.M.^.eXeX4X4X6X0XqXwX+X/ ) 1 w 2 ; @ ; , , q X.wXBXVXiXCXKXKXZXR e > , > > + ",
"> > > 1 2 2 6 6 2 > > > > @ , 5 : q X.+.m m j.M.M.C.M./.eX(.(.(.(.W.W.T.T.B } / W D t t 0 0 > = .XnXBXuXVXKXKXCXVX@XX.; , , + + ",
"> > > > , : 6 : > > > > > > , , e e O.+XC M M j.j.f.z.M.!.!.!.z.i.J.H.K.'.K.B } O.O.X.o.o.W r e F @XrXBXVXCXKXCXuXtX@.9 , + % + ",
"+ @ , > , , : , > o 9 + , 9 * S / { L.+XV M p.i.M M B C a.K.a.d.d.R.[.`.].'.m W.oXoXoXOXXX@.o.=.D T.nXrXBXCXCXVXyX.XS > , 7 @ : ",
"@ @ 5 ; 2 q : , 9 o > e S L K T L.R U.+XV t.y.y.Z V C Z Z a.K.R.R.d.[.`.].].H.z.;X%X%X}.#XnXhX'.o.+.+XnXnXCXVXyX.XA - o , 5 X w ",
"> , 7 : 6 6 , * * * - S K {.#X<X#Xn.7XQ.u.t.s.s.y.y.V Z u.V V p.a.a.K.K.R.MX'.l.&X-X-X-X|.#XnXZXgXF Y.9XnXVXBXXXX.c ) 0 ; 2 7 < ",
"> , 6 6 < 3 1 S A Y T T k. X1X<X Xx.oXW.V t.s.s.s.s.s.y.y.u.C C C C V C H.Q.K.m &X-X$X$X%X|.qXZXmXB B !.Q.nXE.J D W ' ! , 2 2 < ",
"1 > 6 6 < 1 - Y tXiX<X<X X>X>X>X*XB.v.P M V u.y.a.y.u.u.u.u.u.V m C C C b v P k. X>X*X-X*X}.7XnXT.B Z K.K.J.U U ^ ^ W W 7 , , , ",
"1 1 4 4 > * A E iXiX>X>X>X1X>X>X<X XD.b.c.J.J.i.i.C p.p.p.i.M i.i.C m l.z.c.b.oX*X*X$X*X$X}.OX+X| C `.`.K.T.'.gX&.( t e , 7 : ; ",
"2 5 : @ > * - Y tXpXpXpX1X>X>X1X>X2X;X;X;X&X&X&X^.W.W./.!././././.^.7XoX;X=X=X=X<X*X*X X|.b.P.} ^ } Z ..K.'.gXXX#.N r 2 , @ ; 7 ",
": 7 5 + > > e A Y #XtXpX<XpX>X>X1X2X>X>X1X1X2X;X6X6X6X4X/.eX/.4X6X6X3X;X<X;X;X=X=X}.|.n.n.R ~ i N  .C Z | H.Y.O.c 2 , , @ , 2 3 ",
", , @ + > 3 > > - E L.{.#XqX#X3X,X,X,X,X2X,X0X6X5X8X8X(.5X5X7X5X7X3X}.}.#XoX.XD.n.T K L J e 9 , 2 ^ Z T.Q.P.{ D > , , , $ @ : 2 ",
", , + > 1 2 5 $ 9 * - G E T Y x.D.{.|.{.{..XU.I.W.W.!.W.E.W.I.I.L.c.U.L.L.P.T.R P I E / c < , , 2 ^ C K.+XY.c 1 2 , , , @ @ 2 2 ",
"7 2 > 3 w < , @ o > q e S G G x A 3.L F W ] ,.` j ! _.sXgXgX).Q ` f sXjXAXmXjX{ P l.U.L e , , , 4 } | Q.gXH.e 3 , , , , , , 2 < ",
"< < 3 < q < > 9 9 & c b F v G G E 3.( ' N -.1.>.<.-.fXzXSXGXfX,.1.:.<.zXaX2.Q c U k.L.E r , , ; 7  .| '.+X+.e 2 , ; , , @ , 2 1 ",
", , , > 1 > + + o D L J m j.l.P 3.3.D 0 ! h :.>.>.-.s ,.*.2.` ;.1.>.h f ' *.' ~ J I O.{ 9 # , 7 8  .J.'.Q.o.w , , , 2 , , > 2 3 ",
", , , , 1 > > + * S +.E.j.r.j.P OX3.=.0 d k k >.>.8.;.[ [ ' k k ;.,.-.l ' ! $.).m R O.X.% @ , , 6 ^ J.Q.T./ < : , , : : , , 2 2 ",
"@ @ , , 1 > > > 1 e X.+XG.f.P P @X.X=.9 % _ g k >.8.6.<.` ` <.;.xXxX,.<.<.<...aX} | / W , 5 , ; w  .J.Q.P.N ; 6 , , 2 2 , , 3 2 ",
", @ @ , , , 1 3 2 1 S L.OXg.m l.@X3.=.t 0 ' [ f ;.5.q.6.<.,.,.h 2.,.[ 2.<.` 2.dXT.~ ( e < : 2 , i B H.'.+.t < : , , < 2 , > , 2 ",
", 5 6 4 : , > , , @ 9 / .XU.S R @X3.o.o.#.[ #.( h -.<.[ <.7.fXzXNXDXGXSXFXbXjXkX2.N ^ r O 9 > 9 i B H.Q.#.9 > , , , 2 6 , , , 2 ",
"< : 4 : 6 2 > > > + e =.L O.U K .X@X4.#.#.#.@.XX_ ` 7.fXbXHXHXHXDXSXSXGXLXPXIXNX&.c { +.+.X.) 0 N B T.T.} 7 ; > , 2 < 6 , , , , ",
"< 2 < < , , , 1 D L E n.n.b.c.l.Y L.XX@.=.@.@.XXXXfXSXHXHXDXAXjX). ...zXUXUXLXAXO.O.E.oXE.I.o.( ..B T.T.( 5 + 9 2 2 < : , , , , ",
"< 2 1 2 2 3 t / +.OX.Xn.v.g.g.M.f.I O..X4.@.XXhXhXjXGXFXvXvXcXjXsX_._.NXJXUXLXmXL .X3X6X4X7X+.[ $.N &. .f 8 o 9 > < < , : , , , ",
"2 2 3 q 1 q / P.+XG.j.f.g.m.Z.F.^.D.E / o.o.XX@XhXcXcXvXcXAXAXcXmXFXDXJXIXIXJXsXL T =X,X;X3XO.*.2.p ..2.<.f % + , < 6 : , , , 2 ",
", , > 1 < q D { I r.m.M.F.F.:X-X=X3XL.z D 3.3.XXhXcXjXcXDXUXUXUXLXLXPXPXPXIXSX%..Xn.x.%X:X3XX.sX..p ,.xXfX<.0 + 2 2 , , $ : > 3 ",
", , , 2 @ , d t P j.m.^.^.%X$X%X-X;XD.n K G =.3.XXhXcXcXUXLXIXIXIXPXPXPXPXLXkXY.#X#Xx.{.}.E.' 6.] p ,.lXlX<.% + , 2 , 5 , , 3 1 ",
"$ 5 # $ $ u k f c | M.Z.Z.$X*X-X-X=X}.k.k.T G ) @.gXhXcXAXUXUXIXIXPXPXPXIXFXT.P.6X0X{.n..XL <.;.a s ;.1.1.k % + , < , , , , 2 > ",
"4 4 4 $ a s >.>.l ) c.B. X%X-X-X-X;X|.f.x.S.v.U { #.sXcXAXAXUXIXPXPXPXPXIXjXH.OXeX0XqXE / j >.:.s -.e.0.<.a % , , , 2 2 2 2 , , ",
"6 : $ p k >.8.8.8.` / R b. X-X:X;X6X{.k.B.B.S.v.J ~ #.jXAXAXUXIXIXPXPXLXGXT.W.5XeX0XqXOX) <.>.:.s >.8.0.` u # @ , , , 2 2 2 , , ",
"+ , 8 j ;.5.e.9.9.6.<.) X.{.=X&XeX:Xn.H x.B.B.G.c.J ) XXcXFXDXIXIXPXIXLXkXY.+X8XeXeX2XqX/ _ >.:.5.1.<.,.p u : , , , , > < 2 : , ",
"+ @ 8 j 1.e.w.9.9.9.9.5.*./ c.E.&X/.v.k.x.B.B.B.G.c.J ( dXFXFXLXPXPXLXSXT.W.5X8X8X/.0XqX.Xd h -.xXlX6.k 8 X < w , , + , , 2 4 < ",
"* > 8 j -.1.w.w.w.q.w.w.q.6.=.v m j.f.g.N.Z.Z.Z.F.G.l.m #.jXHXLXPXIXUXgXH.W.8X5X8XeXeXrX@XX.Q j ` 2.<.i 7 2 2 1 , @ @ @ : : < , ",
"* > 4 p g h ;.9.w.w.w.w.9.q._ c J j.x.N.B.B.C.Z.Z.F.G.!.| *.SXJXIXLXNXY.W./.8X8X8X8XeXeXqXb./ ! d _ f 4 < < 3 2 > @ , , , 7 : , ",
"+ @ ; 4 u h s -.5.q.w.q.6.6.Q v j.m.m.x.N.V.A.Z.$XA.Z.W.J.| sXGXLXAXQ.I./.4X5X8X8X8X8XrXqXOXo.' Q ^ t : 2 2 2 , , , , , 2 , , @ ",
"+ + 7   X a h a h 1.5.;.k _ N m j.h.v.g.N.B.N.Z.A.$X^.G.W.J.T.GXLXjXc.E.7X7XW.(.W.W./.eXrXOXo.' ^  .w 6 2 , 2 > , , : 2 2 , , @ ",
"4 4 ; y X # u u p h h a _ N b b v J K I v.N.N.Z.Z.Z.^.F.E.J.sXHXjXO.I.oXE.b.J F B | | O.XXXX} ( B  .6 : , , , , @ , 5 < 2 2 > @ ",
"4 4 < , : 3 , 5 $ $ 8 8 N c b c F ~ ~ J K k.S.F.F.F.Z.}.z.J.hXsXO.c.oXE.I z D W ~  .*.&./ / ' ^ ^ } w < : , , , @ @ , , < 2 > > ",
"3 3 , , , < < ; $ # 5 0 i t t N ) / &.T.%.J I v.S.F.B.G.I.J P.O.b.oXU.U z r d W '  .&.aX4.' _ Q N N 7 2 , < < , @ @ 5 , 2 1 , 1 ",
"2 , # @ > 2 , 5 5 5 2 t w t d W ( (  ._.dX&.J K I n.v.c.O.v F X.L.I.J c r i Q ( ^  .$.aXdX2.Q p N i 4 7 : 2 , , @ @ @ , 2 3 2 > ",
"5 5 , , , , @ @ : $ 7 t w t W ~ W ( #.2.kXaX#./ X.X.X.X.} } ) o.+.{ ~ 7 t W W N ) ( $.aXdXaX] i ^ w 4 7 , , > , , , , , 2 2 , > ",
"$ : , , ; ; $ , @ 7 0 i r t W ~ =.(  .).aXaX$.! 0 9 + + w w 2 , 3 r Q 0 0 c ^ Q ( ! *.7.2...N ] Q w : , > , 3 , , , 4 < 2 < , , ",
", , 2 > , : , 5 : 7 0 t t t i d f Q  .2.2.#._ Q > > + > 7 < ; , , + 9 d W W d D W Q ! ' ( ) r 6 t 2 : @ + , , 2 , , < < < < , + ",
"> 2 2 < 7 2 6 : , 3 e t Q f u u u i Q _ ' _ i 8 , > > , : 5 4 , + > & 9 w 0 t t d d i 0 9 , e 3 q 2 , @ @ > , , 2 < q 6 2 5 @ + "
};
