/* XPM */
static char *b751479e35824732cced77fe4fc887f6lMdeg6tz6vB52hay[] = {
/* columns rows colors chars-per-pixel */
"64 64 256 2 ",
"   c #1B1819",
".  c #160D16",
"X  c #231A17",
"o  c #371119",
"O  c #372D1A",
"+  c #0C0C2C",
"@  c #080829",
"#  c #170929",
"$  c #191628",
"%  c #090D35",
"&  c #160B34",
"*  c #091337",
"=  c #151636",
"-  c #0B102E",
";  c #250929",
":  c #38052D",
">  c #221928",
",  c #3A0935",
"<  c #2A1232",
"1  c #1B2339",
"2  c #122E30",
"3  c #392629",
"4  c #282338",
"5  c #382B36",
"6  c #35302B",
"7  c #5B1716",
"8  c #551410",
"9  c #631711",
"0  c #4C2A18",
"q  c #702818",
"w  c #47052C",
"e  c #560328",
"r  c #511131",
"t  c #66012D",
"y  c #6A0B38",
"u  c #750B37",
"i  c #721537",
"p  c #4D2D32",
"a  c #72302D",
"s  c #14573B",
"d  c #37492B",
"f  c #255637",
"g  c #324F32",
"h  c #0A6639",
"j  c #156839",
"k  c #18763C",
"l  c #0D703A",
"z  c #26673C",
"x  c #376637",
"c  c #27763D",
"v  c #3B7634",
"b  c #544C2D",
"n  c #6E4A34",
"m  c #4D6C38",
"M  c #4A451D",
"N  c #161A44",
"B  c #0B1E4E",
"V  c #192349",
"C  c #132651",
"Z  c #252847",
"A  c #36344B",
"S  c #2B3559",
"D  c #353658",
"F  c #2D2D4E",
"G  c #383964",
"H  c #2D3963",
"J  c #251A4D",
"K  c #761444",
"L  c #47394A",
"P  c #4C3C51",
"I  c #413D6D",
"U  c #165842",
"Y  c #2E4949",
"T  c #1C7D45",
"R  c #156842",
"E  c #257A45",
"W  c #326F48",
"Q  c #374469",
"!  c #3E4A70",
"~  c #5A4846",
"^  c #524958",
"/  c #454358",
"(  c #664C4A",
")  c #685756",
"_  c #775D58",
"`  c #6D534B",
"'  c #4E744A",
"]  c #727050",
"[  c #434669",
"{  c #4B4A72",
"}  c #695B63",
"|  c #786765",
" . c #6F696F",
".. c #5C6C7B",
"X. c #860C3A",
"o. c #951C36",
"O. c #AD1734",
"+. c #8E2D31",
"@. c #B32739",
"#. c #85381E",
"$. c #CE1535",
"%. c #C92F38",
"&. c #914A32",
"*. c #A95237",
"=. c #8F6A3B",
"-. c #A76239",
";. c #D5463F",
":. c #911547",
">. c #A6174A",
",. c #8F3549",
"<. c #B42F47",
"1. c #CB364C",
"2. c #944C51",
"3. c #AC4D4A",
"4. c #8D7055",
"5. c #B46E4E",
"6. c #8D766F",
"7. c #B3796A",
"8. c #D04E4C",
"9. c #D06E57",
"0. c #E66758",
"q. c #D57764",
"w. c #CE706A",
"e. c #E57064",
"r. c #698B3D",
"t. c #158249",
"y. c #2C854C",
"u. c #4A864F",
"i. c #72864F",
"p. c #7A9969",
"a. c #71906B",
"s. c #7AA779",
"d. c #5B9668",
"f. c #969859",
"g. c #928856",
"h. c #B19355",
"j. c #9BA351",
"k. c #928D72",
"l. c #BC8666",
"z. c #AA9979",
"x. c #AB8973",
"c. c #8FA56C",
"v. c #B2A972",
"b. c #BCAE57",
"n. c #CB8A55",
"m. c #E88F5D",
"M. c #D1A85D",
"N. c #E7AD5D",
"B. c #E6B05D",
"V. c #C58D6D",
"C. c #C48869",
"Z. c #C4926D",
"A. c #C58E72",
"S. c #C68B76",
"D. c #C59272",
"F. c #CC9475",
"G. c #CC9B7B",
"H. c #C99579",
"J. c #D29D7C",
"K. c #D39678",
"L. c #D68D6A",
"P. c #EC8E6E",
"I. c #DCA865",
"U. c #DAB567",
"Y. c #CAA57C",
"T. c #DBA97A",
"R. c #CCB16F",
"E. c #E6A869",
"W. c #E6B266",
"Q. c #E3A974",
"!. c #E4AC7C",
"~. c #E5A678",
"^. c #E2B07E",
"/. c #E9B577",
"(. c #F0AB68",
"). c #D4C476",
"_. c #606486",
"`. c #817C93",
"'. c #988987",
"]. c #938F89",
"[. c #B59988",
"{. c #AD9289",
"}. c #B9AA95",
"|. c #B7AD8A",
" X c #A8B7A1",
".X c #C69A88",
"XX c #D69D83",
"oX c #D08986",
"OX c #C9A486",
"+X c #D4A383",
"@X c #DAA384",
"#X c #DDAC8B",
"$X c #D7A888",
"%X c #DAB58A",
"&X c #C7A997",
"*X c #D6AC95",
"=X c #DCB592",
"-X c #DABA94",
";X c #D8B699",
":X c #C9B792",
">X c #E4AD82",
",X c #E4AE8B",
"<X c #E8AC87",
"1X c #E4B385",
"2X c #E9B385",
"3X c #E5B886",
"4X c #E5B38B",
"5X c #EAB48C",
"6X c #E5BB8C",
"7X c #EBBA8E",
"8X c #E4AD91",
"9X c #E4B492",
"0X c #EAB594",
"qX c #E5BA94",
"wX c #EABA94",
"eX c #EBB79A",
"rX c #E5BC9A",
"tX c #EABB9A",
"yX c #E5B59C",
"uX c #F0B289",
"iX c #DBB5A4",
"pX c #CEB4A4",
"aX c #E4BAA4",
"sX c #E59C84",
"dX c #B0C49A",
"fX c #BACCA4",
"gX c #C8C49C",
"hX c #D7C59A",
"jX c #E6C395",
"kX c #EAC395",
"lX c #E5C49D",
"zX c #E9C49D",
"xX c #E6CA9C",
"cX c #EACB9D",
"vX c #E8C897",
"bX c #F1C898",
"nX c #E5C58E",
"mX c #D9C7A5",
"MX c #D5D1AB",
"NX c #E5C5A1",
"BX c #EBC5A2",
"VX c #E5CBA2",
"CX c #EBCCA3",
"ZX c #ECCDA9",
"AX c #E6CBAA",
"SX c #F1CCA7",
"DX c #E6D3A5",
"FX c #EBD2A5",
"GX c #E6D4AB",
"HX c #EBD4AB",
"JX c #EBD9AC",
"KX c #E7D9AB",
"LX c #F2D3AC",
"PX c #F0D3A8",
"IX c #E9D5B1",
"UX c #EAD0B4",
/* pixels */
"qXqXyX0XeX0X0X0XeX0XqXyX0XqXqXzXBXLXSXbX3X^.Q.Q.~.~.~.>X,X4XqXvXCXSXSXBXtXeX0X5X0XqXtXzXCXHXJXJXJXPXbX%X+XS.S.F.T.#XwXwXaXeXwXqX",
"qXqXqXyXqXtXeXeXeX0X0X0XqX0XtXBXZXZXBXkX3X^.Q.Q.~.~.~.>X4X4XqXcXBXZXSXCXBXtXwXeX9XqXrXvXCXFXHXJXJXFXcX6X+XS.D.H.T.#XwXtXeXyXwX0X",
"rXtXtXrXtXrXtXrXyXrXrXrXrXrXlXzXBXSXzXkX2X^.Q.Q.~.~.>X>X4X6XlXBXFXHXZXZXBXlXtXrXrXrXrXzXlXlXCXCXVXxXjX%XXX.XH.XX$X1XwX9X0X0X5X3X",
"zXzXzXzXzXlXlXxXzXzXzXBXBXzXlXBXzXzXkX3X1X/.^.!.!.>X>X,XqXzXzXZXFXFXHXHXVXVXlXzXzXzXzXlXrX-X=X=X;X;X%X$X+X.XXXXX#X4X4XwX0X<X2X2X",
"BXBXCXCXCXCXcXcXcXcXCXSXBXBXBXzXrX3X3X1X^.1X2X2X>X1X5XqXtXBXZXZXHXLXLXFXFXCXVXCXCXBXBXrX*X$X+XXX+X+X+X+X+X$X#X8X9X9X0X4X<X>X>X!.",
"ZXHXFXCXCXCXFXFXcXFXSXPXLXZXBXzX3X1X1X1X1X1X4X3X4X9XwXtXBXSXZXHXPXFXPXFXFXFXFXFXPXZXBXqX$XG.H.S.x.H.F.G.+X#X8XeX0X0X9X4X>X>X~.Q.",
"HXHXHXFXFXcXcXcXcXcXcXcXSXBXCXkX2X!.!.1X7XqXtXtXtXtXaXzXSXLXUXZXcXcXxXjXxXlXCXzXBXBXtX#XXXH.A.V.S.F.F.G.#X4XqXtXtXyX0X4X>X!.~.~.",
"JXJXHXFXcXvXvXjXnXbXbXkXkXkXqX6X3X>X>X4XtXtXaXaXBXBXSXSXZXLXHXAXlXrX-X-X;X-X-X-X-X=X=X$X+XJ.F.F.K.K.J.T.1X9XyXtXtXeX0X4X4X2X>X!.",
"JXHXFXcXjX6X4X<X3X2X7X2X2X3X3X3X2X<X5XqXaXSXSXZXSXBXLXLXCXJXGX;X&XOX|.[.[.&XOX.XOXOX$X+X+X@XT.@XsXJ.#X4X%X5XqX0XtXeXqX9X9X4X2X<X",
"JXHXCXxXqX1X%X>X2X^.!.>X^.^.!.1X5X5XwXtXSXZXAXUXHXCXZXHXIXUXz.] ) ) ) ) } 4.| _ 4.6..X.X+X#X<X4X5X,X4X#X9XqXtX0XtX0XrX0X9X9X5X5X",
"CXcXcXjX6X#X!.T.~.~.!.~.Q.T.T.1X!.wXzXxXAXUXUXGXDXVXmXMXUX}.~ X > $ > > 4 5 5 5 p 4.{.OX$X4XeX7X0X0XaXaXrXrX0X0X0XwXtXqXtXwXeX0X",
"vXvXwX6X1X1X>X>X<X~.<X~.!.^.^.1XkXrXVXKXUXMXGXmXmX:X&X}.}. .4 $ + = - % = = 4 > < ~ 6.[.=X9X7X7XtXeXiX&X&X*XqX0X5XwXqXtXqXwXeXeX",
"3X3X1X3X5X<X5X<X<X5X5X1X1X1X4XqX=XZXmX}.{.k.6.| _ ) ) ) ^ A < & * % * % * N 1 1 4 5 ~ 6.;X=XyXwXrX*X{.6.4.{.yXeX5XwXqXqXqXqXtX0X",
"!.!.^.<X2X5X5X5X5X9X9X4X4XqXwXqXNXAX6.p   2 $ $ $       $ & % * % - % * % % * V Z > 3 _ &XaXeXyXaX{.} L L 6.*XyX7XuXeXqXqX0X0X0X",
"Q.Q.~.2X2X7XqXtXrXtXtXrXrXtXzXNXAX'.5 . - = & % + # # + + + % % + + + % % * * * 1 $   ( &XaXaXyX&X6.P P L 6.*X0XuX5X4X9X4X9X5XuX",
"E.Q.~.!.7XwXzXBXzXlXaXNXBXBXBXAXk./ # $ % % N % % & # # # # # & ; # # # % % * * = = $ ) pXaXyXiX'. .P A L 6.*X4X<XuX<X4X4X4X<X5X",
"P.Q.Q.1X6XzXBXZXCXBXCXCXVXAXIX'.5 $ + - - * N % @ & ; : , : : w w w w , < $ + % % % ; _ }.iXiX[. .^ [ ^ _ x.#X!.!.!.>X!.!.^.!.!.",
"Q.Q.!.3XjXBXZXUXHXLXFXFXLXmX[.~ > + + & - - * % & & : w y u y i K i K r w ; # @ % & # P '.pX&X`.{ [ [ 6.{.$X!.~.~.!.!.~.~.Q.~.!.",
"~.>X1X6XvXZXHXHXHXHXFXHXAXx.( o ; $ ; & & & % N ; : w i o.>.O.O.>.>.:.:.i : ; + % * N J _.`._._./ D ^ '.&X$X<X~.!.~.!.~.~.~.!.~.",
"1X6X6XjXcXHXHXJXIXFXFXZX&Xp o : w , , , ; & & , , w i >.<.1.1.1.1.1.8.<.,.r # + % B J J _._._.! D S / 6.&X#X<X!.uX~.<X!.!.!.!.uX",
"kXvXvXvXcXFXKXJXJXJXFXhX.Xp w r K K K e , , r y y u o.8.0.0.e.0.8.0.0.w.2.r # @ * B V G { _.I ! S Z A } k..X5XuX5X<X5X<X2X2X5X<X",
"CXFXcXDXFXFXDXJXFXJXDX;Xx.i w K :.:.:.y w w K K o.O.3.0.e.P.P.m.m.P.P.e.7.p # @ * B G G I { G H S V % < p 6.8X5X5X5X0X0XuX5X3X4X",
"HXHXPXJXPXPXDXDXFXVXhXiX7.K y K :.>.>.:.e y +.3.1.3.8.9.w.7.h.Z.I.W./.~.7.L < * N S G _.[ D S Z N N % @ ; ` $X5XwX5XqXyX0XqX7X3X",
"IXJXJXJXKXJXDXDXhX-X#X*X7.,.K u :.:.>.X.e 7 ,.w.e.9.5.2.( n n 4.n.U./.Y.x.( F Z S G G G Q D S 1 = * % % . ` *X4X7XqXrXaXrXqXwXnX",
"KXIXJXJXLXIXHXlX%XOX+XXXw.,.K y t :.>.X.e a 5.L.sXsX7.a 6 O X n f.M.R.|.x.) D D Q Q [ [ Q Y F $ $ - # # > _ $X1X4XqXtXaXaXwXwX6X",
"GXHXHXHXLXLXBXrXOXY.H.XXoX2.K t t X.>.o.i &.5.K.<XXXl.` p   . 0 g.Y.:X[.6.[ A D ! ! [ [ D F A A 4 > . > ( x.%X>X4X3XwXyXeXeXwX3X",
"VXxXVXVXAXBXrX#X+XH.F.XXoX2.i e t u >.1.3.5.C.>XqXY.x.x.| p X 6 4.Y.[.6.) A J G ! ! Q S Z $ L } ) 6 X ] [.:X1X1X1X5X0XeX0XuX0X5X",
"=X=X-X-X9X=X=X$X+XG.XXsXoX2.i e e X.<.1.q.L.I.3X3Xl.H.*X[._ 5 p 6.z.k.} A V N S Q Q Q F 1 3 ( k.k.n b [.hXqX3X2X<X5X4X<X<XuX5X5X",
"Y.OX+XY.+XY.+X+X+X+X#XyXoX` r w e X.<.8.P.(././.2XL.J.8X*X7.) ~ ] 6.| L Z V V H H G H Z p b 4.z.OXz.z.hXxXnXbX/.4X1X1X!.<X~.<X<X",
"A.D.D.Z.Z.D.H.J.XX,XyXaXoX~ : : e X.$.8.e.(.(.W./.I.T.#X*X.Xk.6.| ) L Z Z F S G G F Z 5 ( 6.C.Y.cXFXcXFXDXbXbX7X4X1X~.T.~.~.<X~.",
"A.A.V.V.V.Z.F.J.@X9XtXaX'.p & ; e X.<.8.m.(.N.N.W.I.%X%X*X;X}.]. .Y Z N J G Q G G F < L 2.oX~.J.qXLXJXKXLXFXbXbX6X1X^.T.!.Q.~.~.",
"F.K.F.F.F.F.J.T.,X9XrXaX'.r # ; e u <.8.m.(.N.N.E.I.nXnXlXZXAX[. .D Z J J I [ D D , , i 3.w.e.q.,XLXIXIXJXPXFXcXjXqX%X1X1X!.!.~.",
"+X+X@X@X@X@X@X,X5XwXaXiX6.p # # w X.@.8.m.(.B.B.N.(././.3XbX;X[.} Q S G G G G F J , y +.<.1.8.8.L.SXLXLXJXHXFXFXcXvXtXwX7X5X4X>X",
"%X4X,X0X8X8X4X5X4X9XqXaX{.~ > . r i @.0.m.N.N.B.N.N.(.W.W.R.Y.x.| ^ P / G G G J < r i @.@.%.%.3.K.BXLXSXFXHXFXHXFXZXbXzXrX7X9X9X",
"qXqXeXeXeXeXeX0X0X7X9XtX&X6.` p 0 a 3.9.N.N.B.W.(.N.N.W.I.n.l.4.( P P [ [ G J J ; r ,.8.;.;.9.q.<XBXBXCXGXGXKXJXJXHXPXcXzXzXrXrX",
"qXwXeXeXeXeXqX5X4X5X<X,X8X*X6.a 0 2.w.m.N.N.W.U.W.B.N.N.I.h.&.a p p P I G G F < > p 3.w.0.0.P.sX8XqXqXzXVXDXJXJXJXFXPXPXBXbXzXkX",
"6XwXqXeXeXeXeX9X1X1X!.~.>X4XH.4.p 4.l.Z.b.b.b.R.U.U.B.M.n.*.q 9 7 r p A D D A 2 > b 4.l.L.L.F.XXXXXX$X%XhXDXJXKXJXJXJXHXHXBXCXcX",
"wXwXwXeXeXeX0X5X>X!.!.!.T.!.T.v.g.7.g.f.j.g.j.j.b.M.M.n.-.#.q 8 7 7 r p A Y Y 2 2 g ] g.g.h.l.D.D.V.G.OXrXVXHXJXJXHXHXHXHXZXFXFX",
"qXwXeX0XeX0X4X4X/.!.!.!.^.^.%XR.).j.i.] u.r.r.r.j.M.n.-.#.q 9 8 9 7 r r 6 A s s s s W ' m 4.l.l.V.V.G.+X=XlXxXxXVXmXVXDXFXHXHXHX",
"qX9XeX0X8X5X4X4X3X3X2X2X/.nX%XnXdXc.i.m r.m v v r.j.n.#.q q q 9 9 7 8 0 6 g f s U s j f m ] x.S.H.F.J.XX$X#X=X=X-X%X;XhXVXHXJXJX",
"tXqX9X0X<X,X>X3X2XbXkXkXbXkXhXhXv.c.j.i.i.u.m m m =.-.*.&.*.*.&.q 7 7 8 O g c j j s s W a.z..X8X@X+X+X@XXXJ.XXJ.Y.+X$X-XmXDXJXJX",
"rX0X0X5X<X>X!.5XkXbXbXbXcXCXxX|.j.c.c.j.j.i.m x M n &.-.9.n.L.5.a 9 8 0 O d z k j s U ' ].:X8X8X9X8X#X@XJ.K.F.S.D.D.Y.$XrXVXLXIX",
"rXrX9X5X>X!.>X1XkXbXSXLXHXIXmXk.i.f.R.v.R.h.] b q q #.;.e.P.(.9.&.9 8 O d x c k l z ] ].:XNXtXtXtXrX9X#XXXK.V.C.V.A.H.OX=XrXVXCX",
"qX0X5X<X!.~.^.3XkXcXZXLXZXAXgXk.i.c.).).U.M.=.=.#.#.@.%.0.m.P.q.n 7 0 6 g c c k c d.].:XNXzXzXCXlXBXtX8X>XJ.K.K.F.K.J.+X$X=X=X-X",
"tXqX5X<X!.T.!.3XjXFXZXLXAXmXmXg.r.c.v.).U.M.b.5.*.@.$.$.;.0.m.9.#.0 O g f k c c u.c.:XmXBXcXDXcXFXCXCXrX4X#XXX@X@X+X$X+X+X+X+X+X",
"tX0X5X<X!.T.^.%XjXCXCXHXNXNXhXv.f.c.v.R.U.U.M.n.;.%.$.$.$.%.9.5.n 0 O f R T y.y.p.v.hXBXcXcXDXKXFXFXBXzXtX9X8X,X9X4X,X@XG.H.D.Z.",
"0X0X5XuX^.^.%XnXvXCXFXCXNXrXjXhXv.c.f.v.R.U.N.m.;.%.$.$.$.%.*.&.b d f j R T d.s. XhXAXaXBXFXHXHXJXFXFXCXzXlXtXtXtXqX=X+XH.Z.l.l.",
"5X5X2X3X2X%X6XnXCXZXHXBXzX-XhXvXhXv.g.g.b.^./.m.9.%.O.$.O.O.q b M v z h R T d. XgXVXBXSXLXHXHXJXJXJXHXFXCXBXlXlXtXrX4X@XG.Z.w.C.",
"~.!.1X1X3XkXxXVXFXFXCXBXNX-XrXvXVXgXv.v.v.R.^.Z.5.3.+.@.+.a 0 d x c R j R T p.fXMXFXZXBXFXLXHXHXFXJXDXFXZXZXVXVXzXrX9X@XF.V.C.7.",
"Q.Q.^.1XkXcXCXFXHXHXHXCXlXlXlXNXVXDXhXY.:XOX|.f.4.n n n n b b f z E T h R T a.gXGXFXFXPXFXFXHXHXDXFXDXFXHXFXZXBXBXtX9X@XK.V.C.n.",
"E.Q./.1XvXBXLXJXIXHXHXCXlXlXlXBXSXLXhXhXv.v.c.' ' v m ' m x x c T k l h h R a.gXDXcXcXFXcXcXcXCXcXFXcXFXHXHXFXCXBXtX,XXXK.A.C.l.",
"I.Q.!.3XvXcXLXJXLXJXHXBXBXNXlXCXSXLXcX%XY.v.c.u.c c T T y.c E E T k l h h R a.mXDXvXvXjXjXvXkXvXnXnXvXcXFXHXFXZXBXyX8X>XK.C.l.l.",
"Q.Q.!.3XvXcXHXLXJXGXFXFXCXBXZXSXLXUXCX-XY.v.p.m c t.t.t.t.t.c k k j h l h z a.mXhX6X6X1X3X3X1X4X3X3XqXvXxXDXFXSXBXtX,X@XK.V.l.7.",
"Q.I.^.3XvXCXHXHXJXHXHXHXHXHXLXFXLXZXVX-XY.v.p.y.k t.t.y.y.y.y.c c z j h j f i.hXnX/.^.#XT.!.#X1X<X1X1X6XvXFXCXSXzXtX0X@XK.A.C.C.",
"Q.Q.~.3XkXCXFXJXHXGXHXHXHXLXHXZXZXcX;X*XOXz.p.u.y.y.u.d.s.s.s.s.p.a.u.z j z i.hX3X1XT.!.~.T.~.>X~.!.<X4XjXvXcXcXzXtX9X,XXXH.A.V.",
"E.~.!.1XkXcXFXJXGXJXJXHXHXHXZXcXkXqX;X*X$X|.p.u.E W d. XMXMXMXMXMXfXs.W s W i.:X%X!.~.!.!.!.>X<X!.>X>X1X6XnXkXvXzXzXrX*X$XXXK.F.",
"E.Q.!.3XjXcXFXJXHXKXJXHXHXFXDXlX1X@X+XOX$X}.s.' W W ].gXmXGXKXKXKXMXdX' f g k.:X1X1X>XuX>X2X<X4X4X<X2X2X1X1X3XjXvXzXCXrX=X$X@XXX",
"Q.Q./.3XvXCXHXGXGXGXHXJXHXHXVX-X$XJ.H.G.@X&X].W W Y s.MXDXJXJXIXKXKXgX' g d ] OX1X5X5X5X7X5X4X0X5X5X2X2X1X1X1X6XvXCXVXNXrX9X0X8X",
"E.~.^.3XkXCXHXJXJXGXJXHXHXHXxX-XG.D.V.G.@X*X].Y Y S a.MXxXDXKXKXKXKXgX] 6 O _ %X9XqXwX9XwXkXtXtXtXwX7X2X!.!.T.3XkXVXCXVXBXtXtXeX",
"E.Q.^.3XjXcXFXHXHXKXGXJXJXHXhX-XY.Z.Z.F.XXiX].Y B 2 `.MXDXDXMXKXKXKXgX` X X ` ;XrXzXkXkXkXzXlXNXBXvXwX7X!.~.^.3XxXcXHXGXCXSXBXtX",
"L.Q.Q.3XjXCXFXJXJXGXJXIXHXHXBX-XJ.A.V.F.XXiX].F * C .. XMXIXKXGXGXGXgX(   X b OXAXxXBXSXBXCXZXAXVXVXzX7X/.T.1X3XvXCXHXHXFXZXZXCX",
"Q.Q.^.3XjXCXFXJXJXHXHXHXLXHXVX-XY.A.V.F.XXiX'.F B C H `.}.GXIXIXGXKXmX~ X X 0 _ &XGXAXHXFXCXHXHXHXZXbXwX^.^.1X1XkXCXHXJXHXGXFXCX",
"E.Q./.3XvXCXFXHXHXGXHXJXHXHXVX-XY.A.A.H.XXiX'.S C B C U  .mXIXJXKXIXpX(       O 6.MXHXHXZXPXLXIXUXHXZXvX3XT.^.1XkXcXFXHXJXJXHXFX",
"Q.Q.!.3XjXcXHXJXHXGXJXJXLXFXVX%XG.D.S.oX*X*X`.H C C B B ^ }.IXGXKXIXgXb         M MXIXLXPXLXIXJXIXHXCXkX%X^.1X3XkXBXLXHXJXKXFXJX"
};
