/* XPM */
static char *fb015a4410544539dc50395ed74edd02eWdjdxwR6tthpOKX[] = {
/* columns rows colors chars-per-pixel */
"64 64 148 2 ",
"   c #BE7F64",
".  c #BF8165",
"X  c #C08267",
"o  c #C28469",
"O  c #C68B6E",
"+  c #C78E71",
"@  c #C79072",
"#  c #CD9376",
"$  c #CF9678",
"%  c #CE9D7C",
"&  c #D09679",
"*  c #D19A7C",
"=  c #CFA07F",
"-  c #D0A07F",
";  c #E3A36E",
":  c #E4A674",
">  c #E4A877",
",  c #E5AB7B",
"<  c #E5B17F",
"1  c #D39F80",
"2  c #CFA180",
"3  c #D3A282",
"4  c #D9A384",
"5  c #D5A886",
"6  c #D6AA88",
"7  c #DEAA8A",
"8  c #D9B28E",
"9  c #DAB591",
"0  c #DCBA94",
"q  c #E6AE84",
"w  c #E2AF8F",
"e  c #E6B485",
"r  c #E6B887",
"t  c #E6B28B",
"y  c #E6BA8B",
"u  c #E6B492",
"i  c #E8B796",
"p  c #E7BC92",
"a  c #E8B897",
"s  c #E8B798",
"d  c #E5BC99",
"f  c #E8BB99",
"g  c #E7C395",
"h  c #E7C495",
"j  c #E7C496",
"k  c #E7C294",
"l  c #E8C597",
"z  c #E8C597",
"x  c #E0C09A",
"c  c #E0C29B",
"v  c #E6C09B",
"b  c #E7C19C",
"n  c #E5C49E",
"m  c #E7C59F",
"M  c #E4C79F",
"N  c #E1C29B",
"B  c #E8C399",
"V  c #E8C39B",
"C  c #E8C698",
"Z  c #E8C19C",
"A  c #E8C19D",
"S  c #E8C29D",
"D  c #E9C29D",
"F  c #E8C19E",
"G  c #E8C29E",
"H  c #E9C39E",
"J  c #E8C29F",
"K  c #E8C39F",
"L  c #EAC29E",
"P  c #EAC39E",
"I  c #E9C49E",
"U  c #E8C59E",
"Y  c #E9C49F",
"T  c #E8C59F",
"R  c #E9C59F",
"E  c #E9C39D",
"W  c #E8C89C",
"Q  c #E8CA9E",
"!  c #E8C99D",
"~  c #E9C3A0",
"^  c #E9C4A0",
"/  c #E9C5A0",
"(  c #E8C7A0",
")  c #EAC6A2",
"_  c #E9C5A0",
"`  c #E4C8A0",
"'  c #E4C9A1",
"]  c #E5CAA2",
"[  c #E5CBA2",
"{  c #E6CCA3",
"}  c #E6CDA4",
"|  c #E5CAA2",
" . c #E9C8A0",
".. c #E9CAA0",
"X. c #E9C8A2",
"o. c #E9C9A2",
"O. c #E9C9A3",
"+. c #E9CAA3",
"@. c #EACAA3",
"#. c #E9CDA1",
"$. c #E9CDA2",
"%. c #E9CEA3",
"&. c #E9CAA4",
"*. c #E9CBA4",
"=. c #E9CBA5",
"-. c #EACBA4",
";. c #E9CCA4",
":. c #E9CCA5",
">. c #EACCA5",
",. c #EBCCA5",
"<. c #EACDA5",
"1. c #E9CFA4",
"2. c #E9CCA6",
"3. c #E9CFA6",
"4. c #E9CFA7",
"5. c #EACFA7",
"6. c #E9CCA4",
"7. c #E9CFA8",
"8. c #E7D0A6",
"9. c #E9D0A5",
"0. c #E9D0A7",
"q. c #E8D1A7",
"w. c #E9D1A7",
"e. c #EAD0A7",
"r. c #E9D0A7",
"t. c #E9D0A8",
"y. c #E9D1A9",
"u. c #EAD1A8",
"i. c #EBD1A8",
"p. c #E8D2A8",
"a. c #E9D2A8",
"s. c #E9D3A9",
"d. c #EAD2A9",
"f. c #EAD3A9",
"g. c #EBD3A9",
"h. c #EBD3AA",
"j. c #EAD4AA",
"k. c #EBD4AA",
"l. c #EBD5AB",
"z. c #EAD6AB",
"x. c #EAD6AC",
"c. c #EBD7AC",
"v. c #EAD7AD",
"b. c #EAD4AA",
"n. c #ECD8AD",
"m. c #EBD8AE",
"M. c #EDDBB0",
"N. c #EDDCB0",
/* pixels */
"u u u a u u u u a u u u u u a ^ 4.f.#.V r > : ; ; ; : , q u a ~ &.7.4.O.F a a u u u a F &.h.m.N.N.z.} 0 2 + O # 1 w s s s f i s ",
"a a a a i a a a a a i i i a d ~ O.i.#.g r , : : ; ; , , q u a V &.q.4.&.F a a u a a a ~ O.4.p.z.m.j.M 8 2 + + # 1 w u s i i a a ",
"a a a a f f f f a f f f f f f F ) Q V k r , > : : : , q t a f V 4.q.4.#.^ F a a f f d x m M ' [ } M c 8 2 # # * 7 w u a u u t u ",
"b F F b F F V F F F V F ~ V F V g h k y r , , , , , q q p B ^ O.,.h.h.4.) ^ V F V V b d d 9 0 8 0 9 8 5 1 * * 4 w w u u u t t q ",
"O.O.O.O.O.O.O.O.&.&.&.&.4.&.( v p y r e e e q t t q t p g V O.4.f.j.j.j.h.,.$.,.&.&.m d 6 5 3 * = = 3 3 3 4 4 7 t u i t q q , , ",
"4.4.4.4.4.4.4.q.4.4.q.q.7.4.Q k r q , < t t u u u u a f ~ 4.q.f.f.j.j.q.q.q.4.h.f.8.M 0 5 % + O O @ # * 4 7 u u i i u t < , : : ",
"f.f.f.q.9.9.#.#.#.#.#.#.9.Q Q p e , , q t u a a f a f ^ &.4.f.q.} | M M m | | | ' ' c 8 2 # O O o O # * 6 t u a s i u q q , , : ",
"v.v.f.4.! j j k g g h h z k k y e , q e p f F ~ P ~ ) ,.h.f.q.| c 0 0 9 8 9 9 9 0 9 8 6 3 $ & # # # * 3 w u s a s i u t q q , , ",
"m.g.i.Q k y r e e r e r r r r e e q t u g V &.&.&.&.7.7.x.v.2.` 8 3 = % 1 2 2 % 1 2 2 3 1 1 4 4 1 4 4 w t i i a s i u u t q q q ",
"m.g.$.z y < , , > > , , > > < , t t u B ^ ,.} f.f.7.7.x.x.y.' 0 5 % @ + + + + + + + # % 4 w w w t w w u u i i i i i i i u u u i ",
"q.#.W k r , : : > > > : : > , q t i f ^ 4.4.f.4.[ | ` ' ' ` 0 9 2 $ O O O O + O O O # * 4 w a s a u i i i i i i i i i i i i i i ",
"z g p y e q , , , , , , , , , e p b ^ &.f.f.f.| c 0 9 9 9 9 8 4 3 $ # # # # # # # & * 1 w u i f f s a a i i i i i i i i i s s i ",
"r r e r t e q q q q q q q q t u B V &.f.j.j.8.c 9 5 2 = 1 1 1 1 3 3 4 4 4 4 4 4 1 4 7 w w w s f s s i a i i i i i a a a i i s s ",
"> , , , e t u u u u u u u u a f m &.f.f.v.f.| 0 5 $ @ O O O # 1 3 w w u w w w w w w w u u u u a i i i i i i i u i i u u i i a i ",
": : , , t u a a f f a f a f f R &.q.f.f.} | c 8 2 # O O o O O 1 4 u u a s s u d s i u i s a a a i i i i i u i u u u u u u u t u ",
"; ; > , y f ~ ~ ~ P F P V ) ) ,.f.j.q.} c 0 8 5 3 $ # # # # 1 1 w u a a a a a a s f s s s s u s i i u u u q q q q q t q q q t q ",
"; ; > < y V O.4.&.O.O.&.&.4.4.f.h.g.8.c 8 2 2 2 1 q 1 1 1 7 q w u i s f f f i i s i i a a s s s s i u u q q , , , , , , q , , q ",
"; ; > e k #.4.f.f.8.q.4.4.4.q.f.j.f.' 0 5 % # $ 1 7 w w w w w w u i i i i i i i i a a a a a u s i i u q q , > > , : > > : > > : ",
"> > < y z #.f.f.j.j.f.8.} | | | | | d 8 = # # * 1 u i s s s s i u u i t u u u u u t t u t u u u u u u q q > : : : : : : > : > > ",
"e r y k Q q.j.v.m.v.q.} x 0 9 9 9 9 8 5 * * * 3 q i i f s s s i u q q q q q e e q t t q t q q q q q q q q , q q , q , q , , q , ",
"k j z W #.q.j.n.m.m.8.c 9 5 % * % 2 * 1 3 1 4 w t i i s a i i t q q > , , , , , , , , q , , , , , , , q q q q t q q q q q q q t ",
"#.#.#.q.q.f.j.j.j.p.' 0 5 $ @ O + @ # * 5 w w u i i i i i i i t q > > > > > , : , : > : > > > > > , > < e u t u i i i t u u u u ",
"j.j.j.j.j.j.f.f.8.' c 8 2 # O O O O # * 4 u u s a i i i i t t t q , , , , > , > , , , , > , , > > , , q e t i i i i i i i i i i ",
"n.v.v.v.m.j.q.| c 0 8 5 3 $ # # # # * 1 w u s s a i t i t t r q e e q r r r < r e e r q e r r r r e e e e q q u u i s s s s s i ",
"m.v.v.m.m.v.} c 9 5 % 2 3 3 4 4 4 4 4 7 w u s s i i u t q < q r y k k z k z z k k k k k k k k k z k k r q , q q t i s s s s s a ",
"f.f.j.j.j.f.[ 0 5 $ $ $ 3 7 w w t w w u u u s s s i u t < , , e k W Q $.$.$.$.$.#.#.#.#.#.4.#.4.$.Q W k r , , < q t i s i i i i ",
"' ' | | | | 0 8 3 # # % 6 u a a s d s u a a i s i i u q , > , e k #.g.n.f.q.,.i.q.f.f.f.f.f.q.f.g.g.#.z y q , < q i t i t i u t ",
"9 9 9 9 9 9 9 5 % & * 5 u f F F f a a s i s i i a i u q , : > e k #.g.g.7.#.4.,.f.j.j.v.v.j.v.v.m.c.i.W k y r q t q q q q e q t ",
"2 2 1 % 2 2 1 1 3 3 7 9 d ^ ^ O.F f a a a a i s f i u q , : > e g #.f.4.&.^ ^ O.4.f.j.j.j.m.j.j.g.j.j.9.! l k y e q , , q , , q ",
"+ + + + + + $ * 4 w u d ( &.#.O.F a a u u u i i i i u t , > , r g #.4.4.~ f f F O.i.j.j.j.j.j.j.j.j.j.q.g.Q l k e , : : : : , : ",
"+ O O + O + # * 4 w d ^ O.4.&.O.F a a a u u u u u u u q , , q r V #.q.&.^ f F V O.q.j.j.j.j.j.j.j.j.j.j.g.g.,.l y e > > : : : : ",
"# # & # # # & 1 w u a f ^ O.^ ^ F a a t t t q q q q q q e r y z Q q.q.4.&.V F O.q.j.g.j.m.z.c.c.g.c.z.j.n.n.i.P k y e q q q , , ",
"1 1 q 1 1 1 q q w a f f ~ ~ ~ f a a a t q q , , , , , e y p C ! #.q.q.q.4.O.O.4.f.v.v.v.j.v.v.v.v.j.v.v.m.j.q.9.! j k y t t q q ",
"w w w w w w w u u i f f s a a s s a u t q , > : : , , r k C 4.8.q.j.j.f.4.4.q.q.p.p.f.f.f.f.q.f.f.f.f.f.p.j.j.8.q.9.Q B f p u u ",
"s s i i s s i u u u u t u t u u u t t e q , > > , , < y j #.f.v.g.j.j.j.j.g.q.q.' ' ' ` ` ' ' M ' ' | } 8.f.j.j.j.j.q.O.V f a a ",
"s s s s s s i i t t w q q q q q q t q r e e e r e e y k Q q.j.v.m.j.m.c.m.g.q.| c 0 9 9 9 8 9 9 8 9 0 x ' j.j.m.m.z.j.q.,.R F P ",
"s i s s a i i u q , , , > , , , , , q e y k k k k g z W #.f.j.v.v.j.c.m.m.v.8.x 9 5 = % % 3 1 * % 2 5 8 c } v.m.m.m.v.f.5.&.&.O.",
"i i i i i i u q q , > > > > > > : > , e p Q #.#.Q #.#.q.q.f.j.j.j.f.j.j.m.f.} 0 5 $ @ + + + + O + @ % 5 0 ' j.j.j.j.f.q.f.4.q.4.",
"i u i u u u u t q , , , > , > > > , q y z #.f.j.j.j.j.j.j.j.j.8.} | | | | | x 8 3 # O O O + O O O O # 3 8 c c ' | | | } 4.f.h.j.",
"i i i u t t q e e r e e r r r r r e y k Q q.v.v.m.m.m.m.v.v.q.' x 0 9 9 9 8 8 5 1 & # # # # & # # # * * 6 8 9 0 8 9 0 x | q.n.m.",
"i i u t q q q q y p h z j k k k k k z W 9.q.g.m.m.m.m.m.m.m.} c 8 5 = = * 1 3 3 3 1 4 4 4 4 1 1 1 4 4 1 1 2 * % = = 5 8 c 8.m.m.",
"i i u t q , , r k V #.#.#.#.#.#.9.Q #.q.q.s.j.j.p.p.p.m.j.p.' 0 5 $ @ O O + # $ 5 w w w w u w u u w 7 5 % $ @ O O @ $ 5 0 } p.m.",
"i i u q , > , e k #.f.f.f.f.4.q.q.j.g.j.j.j.f.8.[ [ [ [ [ ' c 8 2 $ O o O O # * 4 u a a a a f f a a u 7 * # O O O + # 3 8 c ' } ",
"s i u q , > > e k 4.f.f.f.&.&.4.q.g.j.m.m.j.8.| c 0 9 8 0 8 8 5 3 $ $ # # # & 1 w u a a P P V ^ ) F a 9 4 * # # @ # * 3 5 8 9 0 ",
"i i u e , : > e k 9.s.7.4.V ^ O.4.f.j.n.m.j.8.N 8 5 = % % 3 * 1 3 3 4 4 1 4 4 7 w u a F ^ ) O.,.,.) V d w 4 4 1 1 3 3 3 3 3 = 2 ",
"i i u q , > , r z Q q.#.^ F f F O.q.j.v.j.j.} 0 5 % @ O O @ # * 4 7 w u w w u u u u a F ^ 4.4.f.h.q.4.m d u u w w u 7 4 * # @ @ ",
"i t u q < , < r V 9.q.O.F a a F O.4.q.q.q.| x 8 3 # + o O O # * 7 t u a a a a a s f f V #.q.h.j.v.j.4.O.P f f f f a u 4 # O o . ",
"q t t q r r r z Q #.4.O.F a a B ^ 4.q.} c 0 8 5 * * $ # # # & 1 7 u d f ~ F ^ F F F O.O.7.h.v.v.v.j.f.4.,.~ P P f s t 4 $ O . . ",
", q q e y k z Q i.9.,.O.F a a F O.4.} x 9 5 2 3 3 3 4 1 4 4 4 7 w u a F R ) O.#.&.&.&.4.f.j.z.m.v.j.j.f.4.4.^ R P a u 4 # O X   ",
"> > , e k ! #.q.s.s.q.O.B a a F O.4.| 0 5 $ # % 3 w w w w u w u u a a F V 4.q.9.q.4.f.f.q.j.j.g.j.f.q.j.q.4.4.) P a w 4 $ O o . ",
"; : , e h Q s.c.g.j.q.O.^ f F V &.f.' 9 = @ O $ 4 w a a a a a a a f f ^ ,.q.s.s.q.#.#.#.#.#.Q $.#.#.4.q.f.f.f.&.P a t 4 # + o . ",
"; ; , e h Q c.c.z.j.q.#.&.V ^ ,.f.f.| 9 = O o # 1 u f f P R F F F F F O.f.g.s.9.Q V j k k k k k k k j ! #.f.f.,.) a w 4 # O o   ",
"; ; > < C 9.g.c.v.j.f.} 4.O.O.i.h.x.| 9 % O o # 4 w a P ) ) $.,.O.) #.4.f.j.q.Q k y r e q r e e e e y k Q f.h.&.~ d u 4 # + X   ",
"; : , r k 9.g.g.j.j.j.f.f.4.4.f.f.f.( 9 2 # O # 4 w a F ) 4.q.q.q.q.q.f.j.j.#.V y < < > , , , > > > , y V #.q.#.~ d w 4 & O o . ",
"; : , r k #.g.n.j.j.j.j.j.f.q.f.7.| c 6 2 # # & q w s ~ ) i.j.j.f.f.f.f.9.#.W k r , : : : > > > > > , r k W Q O.F f u 4 * # O O ",
"; : , < k #.g.n.v.j.j.j.j.f.q.| c 0 9 5 1 % 1 4 7 w s F O.q.j.j.v.j.f.#.W z k t e , , , , , , , , , < r y k g V V F d w 4 * & # ",
"; : > e k 4.f.j.j.j.j.j.m.j.} c 9 5 2 1 1 4 4 7 w u a F O.q.j.v.v.f.q.W k y e e e q q q q q e q q q q q e e r k V Q m d 8 7 4 1 ",
"; ; < e k #.q.v.j.j.j.j.j.j.' 0 5 $ # % 4 7 u u u i f m O.8.j.m.v.f.4.C r < , , t t u u u u u u u u u e < < < r z O.4.V d u w w ",
"; : , r k #.q.v.v.j.j.v.v.j.' 9 2 + O & 4 7 u f a a f ^ O.q.j.j.j.f.#.k y , , q t u a a f a a a a a i e , - , r k #.q.&.^ f a a ",
"; ; > r k #.f.j.j.j.j.j.j.q.' 9 * O O # 4 u f f B F F O.&.f.j.j.j.j.4.j y , e t p F V ~ P ~ ~ ^ R P z r < : , < h #.i.i.,.) ~ ~ ",
"; : , r k #.f.j.j.j.j.c.v.f.M 9 % + O # 4 w a P ^ ^ 4.4.q.f.f.j.j.f.q.V p t t p d V 4.O.&.O.&.&.,.) V p < > > e k #.f.f.5.&.&.) ",
"; : > r k #.f.v.j.j.j.z.v.f.' 9 2 + O # 4 t a P O.&.q.q.j.j.j.j.j.j.q.V B u a f m #.q.f.f.q.q.f.h.,.Q k < < < e k #.f.j.h.f.q.f.",
"; : , r k #.j.v.v.j.j.j.v.j.' 9 2 + O # 4 w a R O.q.i.g.j.j.j.j.j.j.q.O.F a f B O.4.f.j.f.f.j.j.g.j.$.k e > > e k 4.f.j.j.j.f.f.",
"; : , < k #.j.j.j.j.j.j.v.q.' 9 2 # O # 4 w a R $.f.j.j.j.j.j.j.j.j.q.O.F f f F O.f.j.j.v.j.j.v.m.g.$.k r > , e k #.f.v.v.v.j.j."
};
