/* XPM */
static char *result[] = {
/* columns rows colors chars-per-pixel */
"64 64 153 2 ",
"   c #6E3C3B",
".  c #733A36",
"X  c #7A3B35",
"o  c #733D3A",
"O  c #7D3E39",
"+  c #6E3F41",
"@  c #6F4245",
"#  c #704345",
"$  c #7C4641",
"%  c #73474A",
"&  c #76494B",
"*  c #794B4A",
"=  c #644B57",
"-  c #724E54",
";  c #6C525B",
":  c #7F5251",
">  c #5E576B",
",  c #6C5764",
"<  c #615A6D",
"1  c #785B60",
"2  c #775F6A",
"3  c #795F69",
"4  c #5E637B",
"5  c #7C636B",
"6  c #656176",
"7  c #696070",
"8  c #63667D",
"9  c #716774",
"0  c #786370",
"q  c #786E7A",
"w  c #736A7C",
"e  c #7F767F",
"r  c #843C33",
"t  c #8E3E33",
"y  c #903E33",
"u  c #A13F2F",
"i  c #8D4037",
"p  c #86473F",
"a  c #86483F",
"s  c #9C4132",
"d  c #954739",
"f  c #96493C",
"g  c #B4442F",
"h  c #BE462E",
"j  c #BF482F",
"k  c #A24232",
"l  c #AB4432",
"z  c #A74A37",
"x  c #A74B39",
"c  c #A84B39",
"v  c #B44631",
"b  c #BE4730",
"n  c #BF4830",
"m  c #B64E38",
"M  c #BF5037",
"N  c #BF5038",
"B  c #C1462E",
"V  c #C1482F",
"C  c #C14830",
"Z  c #C15037",
"A  c #C0573E",
"S  c #874840",
"D  c #8E564A",
"F  c #955749",
"G  c #97594C",
"H  c #99594A",
"J  c #895851",
"K  c #A35846",
"L  c #AF5B45",
"P  c #B15A43",
"I  c #BB5D44",
"U  c #91615A",
"Y  c #9C695B",
"T  c #A66955",
"R  c #AB6B55",
"E  c #A96C58",
"W  c #B36B53",
"Q  c #BC6D52",
"!  c #BD7B5F",
"~  c #866767",
"^  c #8C7175",
"/  c #80767F",
"(  c #927370",
")  c #9B7E77",
"_  c #977E7D",
"`  c #9B7E7B",
"'  c #A37265",
"]  c #AA7868",
"[  c #B77B63",
"{  c #BC7C62",
"}  c #B17F6E",
"|  c #C15E44",
" . c #C26347",
".. c #C26449",
"X. c #C56C4F",
"o. c #C26E53",
"O. c #C37155",
"+. c #C47659",
"@. c #C57D5E",
"#. c #C17C61",
"$. c #9C807B",
"%. c #B3816C",
"&. c #AD8476",
"*. c #A2847D",
"=. c #B98672",
"-. c #BA8873",
";. c #C38265",
":. c #C18468",
">. c #C2886C",
",. c #666C82",
"<. c #696C81",
"1. c #636F89",
"2. c #6F7387",
"3. c #6F7288",
"4. c #7E7682",
"5. c #7E7884",
"6. c #777788",
"7. c #7E798B",
"8. c #6E7A94",
"9. c #747C92",
"0. c #7A7E93",
"q. c #837982",
"w. c #817A8C",
"e. c #7C869E",
"r. c #7E889F",
"t. c #7C88A1",
"y. c #8D8289",
"u. c #848595",
"i. c #8B8391",
"p. c #848A9D",
"a. c #948A93",
"s. c #9A8F96",
"d. c #948E99",
"f. c #988F99",
"g. c #9A9096",
"h. c #9D959C",
"j. c #A58782",
"k. c #A38885",
"l. c #AB8D85",
"z. c #A78F8B",
"x. c #AE918A",
"c. c #B19289",
"v. c #A0979E",
"b. c #A1989E",
"n. c #878EA4",
"m. c #888EA4",
"M. c #8C92A6",
"N. c #8593AC",
"B. c #8D95AB",
"V. c #9293A2",
"C. c #9297AA",
"Z. c #9399AB",
"A. c None",
/* pixels */
"A.A.A.A.A.A.A.A.A.A.A.A.A.A.A.A.A.A.A.A.A.A.A.A.A.A.A.A.A.A.A.A.A.A.A.A.A.A.A.A.A.A.A.A.A.A.A.A.A.A.A.A.A.A.A.A.A.A.A.A.A.A.A.A.",
"A.A.A.A.A.A.A.A.A.A.A.A.A.A.A.A.A.A.A.A.A.A.A.A.A.A.A.A.A.A.A.A.A.A.A.A.A.A.A.A.A.A.A.A.A.A.A.A.A.A.A.A.A.A.A.A.A.A.A.A.A.A.A.A.",
"A.A.A.A.A.A.A.A.A.A.A.A.A.A.A.A.A.A.A.A.A.A.A.A.A.A.A.A.A.A.A.A.A.A.A.A.A.A.A.A.A.A.A.A.A.A.A.A.A.A.A.A.A.A.A.A.A.A.A.A.A.A.A.A.",
"A.A.A.A.A.A.A.A.A.A.A.A.A.A.A.A.A.A.A.A.A.A.A.A.A.A.A.A.A.A.A.A.A.A.A.A.A.A.A.A.A.A.A.A.A.A.A.A.A.A.A.A.A.A.A.A.A.A.A.A.A.A.A.A.",
">.>.>.>.>.>.>.>.>.:.>.>.>.>.>.>.>.>.>.>.>.>.:.>.>.:.-.l.h.C.C.v.c.>.>.>.>.>.>.>.>.>.>.>.>.>.>.>.>.>.>.>.>.>.>.>.>.>.>.>.>.>.>.>.",
":.:.:.:.:.:.:.:.:.;.=.:.:.:.:.:.:.>.:.:.:.;.>.;.;.:.-.l.h.C.C.h.l.-.>.;.;.>.;.;.:.>.:.:.:.:.:.:.:.:.:.:.:.:.:.:.:.:.:.:.>.:.:.:.",
"#.#.#.{ #.#.#.#.#.#.#.#.#.#.#.#.#.#.#.#.#.#.#.;.;.:.-.l.h.C.C.f.j.} [ { { #.#.#.#.#.#.#.#.#.#.#.#.#.#.{ #.#.#.#.#.#.{ #.#.#.#.#.",
"o.Q O.o.o.Q O.o.o.o.O.O.Q O.O.Q Q o.o.o.Q o.O.+.@.;.-.z.h.C.M.a._ ' E R Q Q o.o.Q o.o.O.Q o.O.o.o.Q O.o.o.Q O.O.Q O.O.O.Q o.o.Q ",
" . .|  . .|  .I | I I |  . .I  .| I  . .I | ..o.+.#.-.x.v.C.m.i.^ J G K L I I | | | I  .I  .| |  . .I  .| |  .I | |  .I |  .I | ",
"m Z C m C Z m M N Z M Z C N N N M M C N N Z A  .O.#.-.x.v.C.m.w.0 J S f z m Z Z Z N N Z M M m Z N N C Z Z Z m M N N N C Z N N Z ",
"C C n n C C h n n b C b C h n n h n h h h h m | o.{ -.x.v.C.n.7.2 & O y k v n C C b n n h n n n b n h h C C n n b C b b b b n n ",
"h B h h h j h h b h h h h h h h h h h h h h C | o.#.-.x.v.C.n.7.2 % O t u g h B B h h h h h h h h h h h h h h h b b h h h h h h ",
"h h h h h h h h h h h h h h h h h h h h h h Z A X.#.-.x.v.C.n.7.2 % X t u v h B B B h h h h h h h h h h h h h h h h h h h h h h ",
"h h n h b h h n n h n h h h h b j h h h h V Z  .o.#.-.x.v.C.m.7.2 % X t u v h C C h n h n h h h h h n h h h n h n h b h h b b h ",
"n n n n n n n n n n n n n n n n n n h h h h Z A o.#.-.x.v.C.n.7.2 & O t k v b C B j n n n n n n n n n n n n n n n n n n n n C n ",
"n n n n n n n n n n n n n n n n n j h h h V m | X.{ -.x.v.C.n.7.2 & O t u v b C C V n n n n n n n n n n n n n n n n n n n n n n ",
"n n n n n b C n n b n n n n n n n n h h h n M | X.{ -.x.v.C.n.7.5 & X t k v n V V j n n n n n j n n n n n n n n n b n n b n n j ",
"n n n n n n n n n n n n j n n n j n n h h n m | o.{ -.x.v.C.n.7.2 & O t k v b V V j n n n n n n n n b n n n n n n C n n n n n n ",
"b n n n n n n n n n n n n n n n n n h h h V C  .o.@.-.x.v.C.n.7.2 & O t k g h V V j n j n b n n n n n j j n n n n n n n n n n n ",
"n n n j n n n j j n n n n n b C n n h h h V Z | o.#.-.x.v.C.n.7.2 & X t k g j V V j n n n n n n n n n n n n b n n j n n b n n n ",
"n n j n n C n n n b C n n n n n n n j h h h Z | X.{ -.x.v.C.n.7.2 & X t k g V V V j n n n n n C n n n j n n n n b n n n C n n j ",
"n n n n n b n n n n n n n n n n n n h h h h m | o.#.-.x.v.C.m.7.2 & O t k g j V V j b n n n n b n n b n n n n n n n n n n n n n ",
"j j j j j j j j j j j j j j B n j j B B B V C  .X.#.-.x.v.C.n.7.2 & O t k g C V V j V j j j j V j j j j j j j j j j j j j j j j ",
"V V V V V V V V V V V V V V C C V V B B B V Z | o.#.-.x.v.C.n.7.5 & O t k v B V V V V V V V V V V V V V V V V V V V V V V V V V ",
"V V V V C C C C C V V V C C C C V V V B B V Z | X.{ -.x.v.C.m.7.2 % O t k g V V V V V V V V V V V V C B V V V V V V B V V V V V ",
"b b b b b C b b b b b b b C b b n b h h h V Z | o.@.-.x.v.C.m.7.2 & O t k v C V V V n n b b b b b b b C b b b C b b b C b b b b ",
"v v v v v v v v v v v v v v v v v g v g g g m I Q #.-.x.v.C.n.7.2 & X t s l v v g v v g v v v v v v v v v v v v v v v v v v v v ",
"k k k k k k k k k k k k k k k k k k k k k k z P Q #.-.c.v.C.n.7.3 & X r y k k k l k k k k k k k k k k k k k k k k k k k k k k k ",
"y t t y t i y t y y t y t i t y i i t t t t f K W ! -.c.b.Z.m.7.3 & X X r t t t y t i y t y y y y y i y i y y i y i y t y y i y ",
"O O O O O O O O O O O O O O O O O O O X X O a F R [ -.c.b.Z.m.7.3 * o . X O O O O O O O O O O O O O O O O O O O O O O O O O O O ",
"# @ # @ # # @ @ # # @ @ # # # @ # # # + @ @ * J Y ] &.z.h.C.m.w.5 - #   + # @ @ @ @ @ @ # @ # # # # # # # @ @ @ # @ @ @ @ @ # # ",
"= = = = = = = = = = = = = = = = = = = = = = ; 1 ~ ( _ a.V.B.N.0.w , = = = = = = = = = = = = = = = = = = = = = = = = = = = = = = ",
"> > > > > > > > > > > > > > > > > > > > > > < 7 9 q 5.u.m.N.N.e.3.6 < > > > > > > > > > > > > > > > > > > > > > > > > > > > > > ",
"4 4 4 4 4 4 4 4 4 4 4 4 4 4 4 4 4 4 4 4 4 8 8 8 8 ,.2.9.n.N.N.e.8.,.4 8 4 4 4 4 4 4 4 4 4 4 4 4 4 4 4 4 4 4 4 4 4 4 4 4 4 4 4 4 ",
"<.<.<.<.<.<.<.<.<.<.<.<.<.<.<.<.<.<.<.<.<.<.<.8 ,.<.2.0.p.M.M.p.9.6.<.8 <.<.8 <.<.<.<.<.<.<.<.,.1.1.1.1.,.,.<.w <.<.<.<.<.<.<.<.",
"/ 4.e / e / 4./ / / 4.e e / / / e 4.e / / e / / e e e y.a.f.s.a.w.q./ / e / / / e / q./ / e 4.6.9.8.8.9.6.4.q./ q.e e e e / / 4.",
"$.) ) ) ) ) ) ) $.$.) ) ) $.) ) ) ) ) ) ) ) ) ) ) ) ) $.j.l.l.l.*.*.) ) ) ) ) ) *.) ) ) ) ) ` w.u.e.t.u.y.$.) ) ) ) ) ) $.$.) ) ",
"%.%.%.%.%.%.%.%.%.%.%.%.%.%.%.%.} } %.%.%.%.%.%.} %.%.%.%.-.-.%.%.%.%.%.} %.%.%.%.%.%.[ %.%.&.k.d.M.M.d.k.&.%.} %.%.%.%.%.%.%.%.",
"#.@.@.{ @.#.#.#.#.@.@.! #.#.#.#.#.#.@.#.#.#.#.#.#.@.#.#.@.#.{ @.#.#.#.#.#.#.@.{ #.#.#.#.;.;.-.l.h.C.C.f.k.} [ @.@.{ #.#.@.@.@.! ",
"o.O.o.O.O.o.o.o.o.o.O.O.X.o.o.O.X.o.o.o.O.O.X.o.o.o.O.o.o.o.o.o.o.X.O.X.o.o.o.o.X.X.+.+.@.;.-.c.h.Z.C.a._ ' R W Q o.o.o.o.O.o.O.",
"| | |  .|  . .| I  .|  . .| | |  .| |  .|  . .| | | | | | | | | | | |  .| | | | |  . .X.+.;.>.x.h.Z.M.i.^ U H K P I | |  . . .| ",
"Z Z M Z C N N C M M C N M Z M M Z Z Z m C Z Z C M M M M N C M M Z Z Z C M M Z m C Z A  .O.{ -.x.b.Z.m.w.~ : a f z m Z Z C Z Z C ",
"j h n h n n n n j j n n j h V h C C b B n n C C h n n n n n n j n n C C h h h h h V Z | o.@.-.x.V.Z.n.7.2 % X t u v b B C n C C ",
"h h h h h h h j h h h h h h h h h h h h h h h n h h h h j h h h h h h n h h h h h V Z A o.{ -.x.b.Z.n.7.2 % X t u g h B B B h n ",
"h h h h h h h h h h h h h h h h h h h h h h h h h h h h h h h h h h h h h h h h h h m A O.@.-.x.b.C.m.w.2 % X t u g h B h h h h ",
"n h n h h j j h h h b h b h b h n h n h h j h j h h n h j n h h h b h b h n n h h h M A o.#.-.x.b.C.m.7.2 & O t k v h V C j n h ",
"n n n n n n n n n n n n n n n n n n n n n n n n n n n n n n n n n n n n n n n h h h Z | X.#.-.x.v.C.m.7.2 & O t k g b V V j n n ",
"n n n n n n n n n n n n n n n n n n n n n n n n n n n n n n n C n n n n n n h h h B M | o.@.-.x.v.C.n.7.2 & O t k g b V j j n n ",
"n n n n n n n n n n n n n n n n n n j n n n n n n n n b n n n b n n n n n n n h j n C | o.#.-.x.v.C.m.7.2 & O t u v b V V j n n ",
"n n n n j n n n b n n n b C n n n n n n n n n n n n n C n n n n n n n n n n h h h n Z | o.#.-.x.v.C.n.7.2 & O t u v b V V j n n ",
"n n b n n n n n n n j n n n j n n n n n n b n j n n n n j n n n n n n n n n h h h n C | X.#.-.x.v.C.n.7.2 & O t k v h V j j n n ",
"n n j n n b n n n n n n n n n n n n n n n n n n n n j n n n n n n n n n n n n h h n m | o.#.-.x.v.C.n.7.2 & O t u v b V V j n n ",
"n n b n n n n n n n n n b n n n n n n n n n n n n n n n n n n n n n n n n n h h h j M | o.@.=.x.v.C.n.7.2 & O t k v b V j j n n ",
"n n n n n j n n b n n n C n j n n n n n n n n n n n n n n n n n n n n n j j h h h h m | o.#.-.z.v.C.n.7.3 & O t k v b V V j n n ",
"j j j j j j j j j j j j j j j j j j j j n n n n h j j j j j j j j j j j V j B B B V Z A X.#.-.x.v.C.m.7.2 & O t u g b V V j j j ",
"j V V V V V V V V V V V V V V V V V V V V C C C V V V V V V V V V V V j V V V B B V Z  .o.{ -.x.v.C.n.7.2 & O t k g V V V V V V ",
"C C C C C n C C V V C C C C C C C C C C C C C C C C C C C n C n V V C C C n C B B C Z | X.#.-.x.h.C.n.7.0 & X t k h V V V V V V ",
"n n n n n n n n b b n n n n b b b b b b b b n n b b b b n n n n b b n n n n b h h b N | o.#.-.x.b.Z.n.7.2 & O t k g n C V C n n ",
"v v v v v v v v v v v v v v v v m v v v v v v v v v m v v v v v v v v v v v v v v v m I Q @.-.x.v.C.n.7.2 & O t s l g v v v v v ",
"k s k k s k k k k k k s k s k k k k s k k k s k k k k k s k k k k k s k k s k k k k x P Q [ -.x.v.Z.m.7.2 & X r t s k k k k k k ",
"i i i i i i i i i i i i i i i i i i i i i i i i i i i i i i i i i i i i i i i i t t S K W { -.c.b.C.n.7.3 & o O r i i i i i i i ",
"O O O O O O O O O O O O O O O O O O O O O O O O O O O O O O O O O O O X O O O X O X S H R [ -.c.b.C.m.w.2 & o . o O O O O O O O ",
"o o # o o o o o o o o o o o o o o o o o o o o o o o o o o o o o o o o o o o o o . o $ D T [ -.c.v.C.m.w.5 % o . . o o o o o o o ",
"      o                       +                                                     $ D T [ -.c.v.C.m.7.5 &   . .             + "
};
