/* XPM */
static char *_83b8c61493a4257bb24ce7b78284307ABwl7JB6y456IALs[] = {
/* columns rows colors chars-per-pixel */
"64 64 121 2 ",
"   c None",
".  c #262622",
"X  c #2E2E28",
"o  c #33332D",
"O  c #363630",
"+  c #3D3D36",
"@  c #3E3E38",
"#  c #42423B",
"$  c #484740",
"%  c #474840",
"&  c #4B4C44",
"*  c #504F47",
"=  c #4F5047",
"-  c #4F5048",
";  c #505047",
":  c #54544B",
">  c #58574E",
",  c #57584F",
"<  c #58584F",
"1  c #575950",
"2  c #5C5C52",
"3  c #605F55",
"4  c #5E6156",
"5  c #5F6459",
"6  c #616157",
"7  c #636258",
"8  c #68675D",
"9  c #66695E",
"0  c #69695E",
"q  c #676C60",
"w  c #6B6D62",
"e  c #706F64",
"r  c #6E7266",
"t  c #717367",
"y  c #727669",
"u  c #78776B",
"i  c #757A6D",
"p  c #797C6F",
"a  c #7E7D71",
"s  c #7F7E71",
"d  c #7C7F72",
"f  c #7A7E71",
"g  c #807F72",
"h  c #7B8072",
"j  c #7C8173",
"k  c #7C8174",
"l  c #7D8174",
"z  c #7D8274",
"x  c #7D8374",
"c  c #7E8374",
"v  c #7E8375",
"b  c #7E8475",
"n  c #7F8476",
"m  c #7D8274",
"M  c #818073",
"N  c #828174",
"B  c #838275",
"V  c #848375",
"C  c #848376",
"Z  c #808577",
"A  c #818677",
"S  c #818577",
"D  c #818678",
"F  c #848779",
"G  c #878678",
"H  c #828679",
"J  c #84897A",
"K  c #858A7B",
"L  c #858A7C",
"P  c #878A7C",
"I  c #868B7C",
"U  c #878B7D",
"Y  c #868C7D",
"T  c #858A7B",
"R  c #8D8B7D",
"E  c #888D7E",
"W  c #898E7F",
"Q  c #8D8C7E",
"!  c #8E8D7F",
"~  c #898D7E",
"^  c #8A8F80",
"/  c #8C9081",
"(  c #8C9082",
")  c #8D9283",
"_  c #8F9384",
"`  c #8D9182",
"'  c #929082",
"]  c #929182",
"[  c #949284",
"{  c #909485",
"}  c #919485",
"|  c #909586",
" . c #919686",
".. c #929687",
"X. c #929787",
"o. c #919586",
"O. c #939788",
"+. c #939788",
"@. c #989788",
"#. c #969A8B",
"$. c #979C8C",
"%. c #95998A",
"&. c #999888",
"*. c #999889",
"=. c #9C9B8B",
"-. c #999D8D",
";. c #9D9C8C",
":. c #9E9D8D",
">. c #9F9E8E",
",. c #999D8E",
"<. c #A09F8F",
"1. c #9EA392",
"2. c #9DA191",
"3. c #A1A08F",
"4. c #A1A090",
"5. c #A0A494",
"6. c #A3A797",
"7. c #A1A695",
"8. c #A4A897",
"9. c #A6AB9A",
"0. c #A8AD9C",
/* pixels */
"                                                                                                                                ",
"                                                                                                                                ",
"                                                                                                                                ",
"                                                                                                                                ",
"0 0 8 7 7 7 3 7 3 7 3 3 3 7 7 0 8 8 8 8 8 8 8 8 0 0 7 7 8 7 7 8 7 8 7 0 8 8 8 8 8 8 8 8 7 2 2 2 3 3 3 3 7 7 8 8 8 0 0 0 0 0 0 8 ",
"' ! g t e w 8 e e 0 e 0 0 0 t ! <.<.<.<.<.<.<.@.R g u t t t t t t t p ' 4.4.4.4.4.4.4.*.u 7 7 w 0 w w e e t M @.3.;.' V g p G [ ",
"7 7 7 7 7 : * 3 3 7 7 7 7 7 7 7 e e u u p g u 8 7 2 3 4 7 7 7 7 8 3 > 8 d g C C C g g e 7 2 2 : 3 7 3 < < > < 7 0 7 2 2 3 7 7 8 ",
"7 7 7 7 7 3 < 2 3 < < 3 3 3 7 7 3 7 3 3 3 3 3 3 7 p d d c c c c c d 7 * 3 7 7 7 7 7 3 3 7 7 ; # < 2 * > 3 6 4 4 4 7 2 2 : 2 7 7 ",
"7 2 : 2 7 ; & & & & % & & - 2 7 7 7 2 3 3 7 7 3 p n k c x k d f c c q % 2 7 7 3 2 2 2 2 2 2 4 2 2 & 2 d k c k c c h k h y , 4 7 ",
"7 : # < < 1 r r r 0 w q 7 & - 7 7 3 & * 7 7 3 2 D x c c k k y q p c w & 2 7 2 7 w r r r 9 - 2 7 : - p x c k c k c h f x h 2 2 7 ",
"7 7 2 3 : r x x M c c c c 4 & 2 7 7 2 3 7 7 7 < _ Y k k x c c 7 7 c y & 2 7 2 i c c i c c 7 - 2 : 1 Y x k c k c h 9 5 k k 2 2 7 ",
"7 7 8 2 2 c k c c c c c d r % 1 7 7 7 3 7 3 7 > p 0. .Y L n D d f c r & : 7 2 D k k f q r w & 2 : 1 O.k c k c k c i y x x 7 2 7 ",
"7 7 3 2 9 D c k c x x i q y & : 7 7 7 7 7 7 7 2 & q d d d p y w q 7 : & , 2 w ^ k c k q r r & 1 1 ; $.D x c k c c c k k k 4 2 7 ",
"7 7 7 < d J k c k k x h 7 r 1 - 7 7 7 7 7 7 3 7 1 % $ $ $ & % % & % % - 4 2 t 1.c k k c x y & 2 2 % O.O.h x c k k x x k h 1 2 7 ",
"7 7 7 2 ( x c k k c k k i f 4 & 3 7 7 2 - - ; : 2 2 2 : > : > : - : 1 7 7 2 >  .6.) L n f 9 % 1 2 & 7 1.$._ ( L A i p y 7 ; 7 7 ",
"7 7 3 2 $.) L L L J n h i y 1 & 3 7 2 - : w y y 7 2 7 7 7 7 3 7 7 7 7 7 7 7 : & 5 8 7 2 - % & 2 7 2 & : 2 1 2 2 1 ; - & ; 2 7 7 ",
"7 7 7 3 e R d u w 9 7 2 : : : 2 7 7 : - p c p q i 1 7 7 7 2 * 3 7 7 3 7 7 7 3 > & & & & & ; 2 7 7 7 2 2 : < < : 2 2 < 2 3 7 7 7 ",
"7 3 7 7 3 < < 2 2 2 4 7 7 7 7 7 7 3 & w ^ d i q d q 2 7 & & 2 7 7 3 % 2 7 7 7 7 7 3 3 3 7 7 7 7 7 7 7 7 7 7 7 7 2 3 7 7 7 7 7 7 ",
"7 7 7 7 7 7 7 7 7 7 2 2 2 2 2 3 7 < $ e 1.D n n x 9 2 7 - & 3 7 7 3 2 3 7 7 7 7 7 7 7 7 2 3 4 4 2 5 7 2 2 4 7 7 ; : 7 7 7 3 7 7 ",
"7 7 7 3 7 3 - > 7 2 8 q q q 7 : : : ; - d L d y 7 : 2 2 2 2 2 2 2 2 2 2 3 7 7 7 7 7 2 q p p i f d f d d w ; 2 7 2 % > 7 * * 3 7 ",
"7 7 7 7 7 3 < 2 2 q c c h h k 9 & 2 2 - & & - & ; 2 < - : , , 1 < 2 : , : : 7 7 7 3 7 Z c k c k k h k x i - : 7 7 2 3 7 * * 7 7 ",
"2 2 2 7 7 7 7 7 2 h k c i y y i & 2 7 7 2 7 7 2 7 2 & 7 d h h d d d d d p 5 1 7 7 3 w R k k k c f q i k h : - 7 7 7 7 4 3 2 2 3 ",
"8 8 8 2 7 7 7 3 4 Y x k k q 7 i ; : 3 7 7 7 7 7 7 & 1 h k k k c k k h h c y > 7 7 2 y _ d k c c k r 1 i h , = 7 7 2 : 2 5 7 7 7 ",
"v c c w 2 7 7 3 7 2.k k k h d d ; : 7 7 7 7 7 7 3 & r J k c c k k f 4 y c i : 7 7 2 7 0.| L n c c d y x h , = 4 7 & 4 d c c c c ",
"k k k i : 7 7 7 : +.8.) L D c r - : 7 7 7 3 7 7 3 & u R h c k c x h w i x i , 7 7 3 * 8 E R R D d i y t 7 & - 3 2 % r v c c k c ",
"k c y r : 7 7 7 : ; w p t q 2 & & : 7 7 7 7 7 7 7 * w O.k c c k x h x k x i : 7 7 3 2 & % % & & - - & & & & < 7 < - d c c k c k ",
"x k c r : 7 7 7 7 < & & & % & & : 3 7 3 3 7 7 7 7 ; 7 6.c h h c k x x k h y : 7 7 7 7 3 : : : : * * - - - < 3 3 2 ; ^ c k c k c ",
"k k n w : 7 7 7 7 7 3 2 2 2 2 3 7 7 7 2 : 3 7 7 7 : & ) 6. .( E J x h d i 2 , 7 7 3 : 3 7 7 7 7 7 3 3 3 7 3 : 3 > &  .D c k c k ",
"n x k 7 1 7 7 7 7 7 7 7 3 7 7 * & 2 & & 3 7 7 7 7 7 ; - 8 q 0 8 7 2 : : = ; 7 7 3 7 2 * - 7 2 2 2 2 2 > 2 7 3 3 > & +.%.v c v v ",
"f y w : 2 7 7 7 7 7 7 7 7 7 7 > < 3 & ; 7 7 3 7 7 7 7 : ; - & : : : : : 2 4 7 7 7 7 3 * - 3 1 r d d k r : 2 7 7 2 & 5 ,.O.^ L v ",
"& & % : 4 2 1 1 < < < 2 2 7 7 7 7 7 7 3 2 2 2 2 2 2 3 7 7 : & 3 7 7 7 7 7 4 2 7 7 7 7 3 3 2 5 c n x k b 7 & 2 < 7 : % & - & - - ",
": : : 2 ; 7 y y y y y y q : 3 7 7 7 3 ; & & & % & % & & 2 2 2 3 7 7 7 : & : : : 2 7 7 7 7 > w k i k k v q & 2 & : 3 > : : : : : ",
"3 7 7 > : d c c k c n x c 5 2 7 7 7 2 1 r r r w w q 7 & * 3 7 7 7 7 : & 9 f f y 2 2 7 7 7 : f d r r y c 7 & 7 : ; 7 7 7 7 7 7 7 ",
"7 7 7 : 2 Z c y y c k k c 8 : 7 7 3 : r c c c c x n x 5 & 2 7 7 7 2 % 8 n x q w y 2 7 7 7 > D D p 1 q v q & 5 7 7 7 7 7 3 7 7 7 ",
"7 7 7 : 5 ) d p i k k n c 7 : 7 7 2 2 c k c c k x k d w & 2 7 7 7 : & ( n k y i d 2 3 7 7 : ) ) d i i n 8 & 3 7 2 : : : < 3 7 7 ",
"7 7 7 : 2 6.$.) ^ L d y 7 - : 7 7 2 q n c k k c k p w y - ; 7 7 7 : & ^ 2.L n x u < 3 3 7 : w 8.%.) n y 2 & 3 2 & > q w 8 < 7 3 ",
"7 3 7 2 & 7 r q 5 1 - & % ; 3 7 7 > f D k c k k c k 5 w > - 7 7 7 2 - ; i y r 7 : 2 3 7 7 2 & > 5 2 : & & * 2 - 1 d c i y q 2 7 ",
"7 7 7 3 : & & & & - ; : 2 2 7 7 7 2 ^ c c k k c k c i f 5 & 2 7 7 7 2 * & - - - < 7 7 2 - 2 2 ; & - - : > 2 > & k n k q r i 2 7 ",
"7 7 3 7 7 3 2 2 2 7 7 7 7 7 7 7 7 2 ,.) J L L J n k i r 2 & 3 2 7 7 7 7 3 7 7 7 3 2 7 : $ 2 7 7 5 7 7 7 7 7 : & %.^ k k k d 2 2 ",
"7 7 7 7 7 7 3 & 2 7 7 7 7 7 4 7 7 2 t L d p w 9 5 2 , : < 2 7 - ; 7 7 7 7 3 7 7 2 < 7 3 2 2 7 2 2 7 2 2 2 7 2 & 8 %.^ v i 5 : 7 ",
"7 3 7 7 3 : * 3 7 5 2 2 2 2 1 , 3 7 2 < 2 2 2 3 3 7 7 7 7 3 7 2 2 7 7 3 7 7 7 7 7 7 3 7 q w w r r y y r 7 : 7 : & & ; : - : 3 7 ",
"7 7 7 7 3 * & 3 2 7 i d f h i 1 ; 7 7 7 7 3 7 7 7 7 2 : ; : - : ; : : ; : 2 7 7 7 3 7 d c c x n k x x x p & , 7 2 2 2 2 2 3 7 7 ",
"7 3 7 7 7 3 3 3 2 y x x i f f y & 2 7 7 7 7 3 7 3 2 - > w r y y r y r r q > 2 7 7 3 q F k c c k h r h x i : : 4 $ - : 2 7 3 3 7 ",
"2 2 2 2 7 7 7 7 2 L c k k 9 5 i - : 3 < 7 7 7 7 7 : - y v v v v c c n c c r : 7 7 2 t ^ h c k k k q 9 i h : ; 2 - : : : 2 2 2 2 ",
"f d f 7 3 < 3 3 7 | k x k i i p * > 3 3 7 7 7 7 3 & q Z k c v d c d r i k y 2 7 7 2 w 9.D d k k k i 7 h h , = 7 7 : 1 y y p p p ",
"k k x y < : : 3 4 9.| n c k c d * : 3 7 3 7 7 7 3 & y ^ d k v c v i 4 y k i : 2 7 3 ; L 6.+.) R J x h h y : = 7 2 & w x c c k k ",
"k k u t < 3 3 3 : 7 %._ L d w 2 % : 7 3 7 7 7 7 3 - r | k c v c c c d k k i : 7 7 7 : & > 2 5 5 5 1 1 , & % ; 7 1 & p k c k k k ",
"k x f t > 7 7 7 2 & & = & & % $ * 2 7 7 7 7 7 3 3 - q ,.k k d c c k k k x f 1 5 7 7 3 > & & & % & & % % & : 2 7 1 - L c k c k c ",
"x c x r : 7 7 7 7 7 2 : : : : 2 3 7 7 3 7 7 3 7 7 : : 9.{ L v D x x x x h 9 : 7 7 7 7 7 3 3 3 3 2 2 2 2 2 7 7 7 > & ( A c c k c ",
"c k c q : 7 7 7 7 7 7 3 2 3 7 3 7 7 7 7 7 7 7 7 7 2 & 3 ^ ^ L d d y q 7 2 = 2 7 7 6 7 7 7 6 7 7 7 7 7 7 7 7 7 7 2 & -.Y d h k k ",
"x k f 1 2 7 7 7 7 7 7 2 # 2 7 7 7 7 7 5 3 2 3 3 3 3 < - & - & - & & & & ; 2 7 7 7 6 7 7 7 7 7 7 7 7 7 7 7 7 7 7 2 % p 0._ ( L J ",
"2 1 : & 2 7 2 2 2 2 2 2 3 3 7 7 7 3 : & & & & & & - * 2 7 3 2 7 3 3 7 7 2 2 1 2 > 3 7 3 : 3 3 7 7 2 2 2 2 3 7 7 3 ; & 7 w q 7 7 ",
"& & - < < < 5 7 7 9 7 7 2 2 7 7 7 < : 7 q q 7 5 3 2 & : 2 2 7 7 7 7 7 2 7 y i f 0 , < 7 < : & 3 : & : 1 1 2 7 7 7 2 * % & & & % ",
"3 4 3 < ; y k v b x x k d 2 2 7 7 : w v d v v c v d 2 & - % 2 7 7 7 2 : h x x x V 0 & 7 7 : & > & 7 f k f q 2 7 7 7 7 3 4 2 3 7 ",
"7 7 7 : 2 c c f i x k c c 8 : 7 2 2 d c d v v v c v w & > 2 7 7 7 7 2 7 x d h c x r & 2 7 7 7 : 1 D c y 5 i 5 2 7 7 7 7 7 7 7 7 ",
"7 7 7 : 5 L d u y k c k c 0 : 7 2 q n k k k d c i w y & : 7 7 7 7 7 2 w x r y p c r = 2 7 7 2 # y O.d f i h w 2 7 7 7 7 7 7 7 7 ",
"7 7 7 : 3 2.J F n n v k y 1 : 7 : p n c k c c c h 7 r : * 7 3 7 7 7 > y R f 4 2 c r & 2 7 7 2 & 4 1._ J V u 2 2 7 7 7 7 7 7 7 7 ",
"7 7 7 > ; F } P f y 5 1 - & 2 7 2 R c c c k d c h r i 4 & 3 7 7 7 7 > d ) h r y c r & 2 7 7 7 : # 4 0 8 4 : > 3 7 3 7 7 3 7 7 7 ",
"7 7 7 3 & % % & % % & & : 2 7 7 2 -.E A D D D D x h p 2 & 3 7 7 7 7 > q 9.#.^ L h 8 & 2 7 7 7 7 2 : : ; ; < 3 8 7 3 3 2 3 7 7 7 ",
": : : > 2 2 > > 2 2 2 2 & 2 7 7 2 d  .R v f t q 4 2 : > < 3 7 7 3 7 2 & 4 y w 5 : & & 3 7 7 7 7 7 7 7 7 7 7 7 > * & # # # : : : ",
"@ @ @ @ > u t e e 8 8 3 < 3 7 7 7 2 2 < 2 2 2 ; % % & & % & & & & * 2 2 - % & & * ; < 6 6 7 7 7 7 7 7 7 8 3 > # # @ + O # @ # @ ",
"# o X @ @ * > 3 7 w e u u u u e e w 7 3 < > ; # # # @ @ X o O O # @ $ , 1 : 1 2 6 8 e e e e 0 0 0 0 8 7 > # # @ @ @ @ O o @ @ # ",
"@ O o @ @ @ + + @ @ @ # # $ & $ % # # # @ @ @ @ @ @ @ @ o o @ @ @ @ @ @ # # # # # * : > 2 6 7 7 7 : # # @ @ @ @ @ @ @ + O @ @ @ ",
". . . . . . . . . . . . . . . . . . . . . . . . . . . . . . . . . . . . . . . . . . . . . . . . . . . . . . . . . . . . . . . . "
};
